<svg width="900" height="1351" viewBox="0 0 900 1351" fill="none" xmlns="http://www.w3.org/2000/svg">
<path d="M311.981 1084.68C296.609 1084.68 283.755 1072.83 282.712 1057.49C275.584 952.611 227.46 854.466 148.781 783.604C57.431 701.333 0 582.119 0 449.502C0 202.791 198.752 2.51256 444.873 0.0235568C695.384 -2.50344 898.807 198.598 899.012 449.128C899.124 581.81 841.74 701.099 750.399 783.445C671.698 854.406 623.444 952.552 616.301 1057.5C615.257 1072.83 602.403 1084.68 587.032 1084.68H311.981Z" fill="#FFC715"/>
<path d="M607.704 1173.18H291.309C273.904 1173.18 259.794 1159.07 259.794 1141.66C259.794 1124.26 273.904 1110.15 291.309 1110.15H607.704C625.109 1110.15 639.219 1124.26 639.219 1141.66C639.219 1159.07 625.109 1173.18 607.704 1173.18Z" fill="#9BA1AA"/>
<path d="M607.704 1261.67H291.309C273.904 1261.67 259.794 1247.56 259.794 1230.15C259.794 1212.75 273.904 1198.64 291.309 1198.64H607.704C625.109 1198.64 639.219 1212.75 639.219 1230.15C639.219 1247.56 625.109 1261.67 607.704 1261.67Z" fill="#9BA1AA"/>
<path d="M540.139 1350.16H358.874C324.064 1350.16 295.844 1321.94 295.844 1287.13H603.169C603.169 1321.94 574.95 1350.16 540.139 1350.16Z" fill="#9BA1AA"/>
</svg>
