<svg width="614" height="500" viewBox="0 0 614 500" fill="none" xmlns="http://www.w3.org/2000/svg">
<path d="M481.32 473.95C481.32 474.094 377.747 474.21 250.012 474.21C122.233 474.21 18.6816 474.093 18.6816 473.95C18.6816 473.806 122.233 473.69 250.012 473.69C377.747 473.69 481.32 473.806 481.32 473.95Z" fill="#263238"/>
<path opacity="0.2" d="M147.582 124.858L61.5859 473.95H376.277L260.481 133.327L147.582 124.858Z" fill="#D34733"/>
<path d="M258.848 49.1662C258.848 44.4332 234.225 40.5972 203.851 40.5972C173.665 40.5972 149.17 44.3872 148.868 49.0792H148.854L141.842 148.553H265.827L258.848 49.1662Z" fill="#D34733"/>
<path d="M265.827 148.553C265.827 150.919 238.072 152.838 203.834 152.838C169.597 152.838 141.842 150.92 141.842 148.553C141.842 146.186 169.597 144.268 203.834 144.268C238.072 144.268 265.827 146.187 265.827 148.553Z" fill="#D34733"/>
<path d="M174.212 470.727L200.832 464.472H202.334H203.836L232.512 470.977C232.512 470.977 232.287 472.25 233.908 472.781V473.95H172.156V472.675C172.156 472.675 173.764 472.356 174.143 471.258L174.212 470.727Z" fill="#263238"/>
<path d="M189.916 228.484C189.772 228.484 189.656 209.639 189.656 186.397C189.656 163.148 189.773 144.306 189.916 144.306C190.06 144.306 190.176 163.147 190.176 186.397C190.176 209.639 190.06 228.484 189.916 228.484Z" fill="#263238"/>
<path d="M192.103 229.919C192.103 231.16 191.124 232.166 189.915 232.166C188.707 232.166 187.727 231.16 187.727 229.919C187.727 228.678 188.706 227.672 189.915 227.672C191.124 227.672 192.103 228.678 192.103 229.919Z" fill="#D34733"/>
<path opacity="0.4" d="M265.827 148.553C265.827 150.919 238.072 152.838 203.834 152.838C169.597 152.838 141.842 150.92 141.842 148.553C141.842 146.186 169.597 144.268 203.834 144.268C238.072 144.268 265.827 146.187 265.827 148.553Z" fill="white"/>
<path d="M203.835 144.268H200.832V464.961H203.835V144.268Z" fill="#263238"/>
<path d="M265.827 148.553C265.811 148.557 265.821 148.433 265.669 148.288C265.522 148.143 265.241 147.992 264.855 147.85C264.078 147.566 262.878 147.301 261.32 147.05C258.202 146.549 253.644 146.105 248.004 145.732C236.72 144.987 221.095 144.53 203.838 144.529C186.575 144.529 170.948 144.987 159.664 145.732C154.023 146.105 149.466 146.549 146.348 147.05C144.79 147.301 143.59 147.566 142.813 147.85C142.426 147.992 142.146 148.143 141.999 148.288C141.847 148.433 141.858 148.557 141.841 148.553C141.84 148.56 141.808 148.423 141.96 148.252C142.105 148.084 142.388 147.913 142.775 147.752C143.553 147.431 144.755 147.133 146.313 146.85C149.433 146.285 153.993 145.785 159.637 145.364C170.927 144.524 186.563 144.008 203.836 144.008C221.103 144.008 236.738 144.525 248.028 145.364C253.672 145.784 258.232 146.285 261.353 146.85C262.912 147.133 264.114 147.431 264.892 147.752C265.279 147.912 265.562 148.083 265.707 148.252C265.859 148.423 265.828 148.56 265.827 148.553Z" fill="#263238"/>
<path opacity="0.4" d="M203.835 169.704L200.832 162.599V144.268H203.835V169.704Z" fill="white"/>
<path opacity="0.1" d="M206.469 468.966H185.914C185.771 468.966 185.747 468.756 185.886 468.722L199.959 465.289C199.968 465.287 199.977 465.286 199.987 465.286H203.542C203.576 465.286 203.608 465.3 203.631 465.326L206.608 468.642C206.719 468.766 206.633 468.966 206.469 468.966Z" fill="white"/>
<path d="M233.95 472.708C233.95 472.852 220.203 472.968 203.248 472.968C186.288 472.968 172.543 472.852 172.543 472.708C172.543 472.564 186.287 472.448 203.248 472.448C220.203 472.448 233.95 472.564 233.95 472.708Z" fill="#455A64"/>
<path d="M203.834 464.429C203.834 464.573 203.158 464.689 202.324 464.689C201.49 464.689 200.814 464.572 200.814 464.429C200.814 464.285 201.49 464.169 202.324 464.169C203.158 464.169 203.834 464.285 203.834 464.429Z" fill="#455A64"/>
<path d="M69.0996 354.077C69.0996 354.085 69.1776 354.096 69.3296 354.109C69.5096 354.122 69.7306 354.138 70.0046 354.157C70.5966 354.208 71.4746 354.201 72.5916 354.362C74.8276 354.589 78.0696 355.128 81.8596 356.492C85.6436 357.844 89.9846 359.976 94.2816 363.119C96.4276 364.688 98.5766 366.478 100.651 368.496C102.713 370.527 104.699 372.778 106.538 375.235C108.39 377.685 110.038 380.199 111.546 382.676C113.072 385.142 114.429 387.592 115.703 389.933C118.218 394.636 120.285 398.976 121.935 402.657C123.579 406.341 124.826 409.361 125.642 411.464C126.04 412.489 126.355 413.298 126.584 413.887C126.686 414.142 126.769 414.348 126.836 414.515C126.895 414.656 126.929 414.726 126.937 414.724C126.945 414.721 126.926 414.645 126.881 414.499C126.826 414.328 126.757 414.116 126.672 413.855C126.479 413.293 126.211 412.457 125.812 411.4C125.047 409.274 123.845 406.231 122.237 402.523C120.623 398.819 118.583 394.455 116.083 389.729C114.816 387.375 113.463 384.915 111.937 382.436C110.429 379.947 108.776 377.42 106.912 374.953C105.059 372.478 103.054 370.208 100.972 368.167C98.8766 366.137 96.7046 364.34 94.5346 362.768C90.1896 359.62 85.7956 357.5 81.9686 356.178C78.1356 354.843 74.8616 354.351 72.6096 354.179C71.4846 354.045 70.6026 354.082 70.0076 354.061C69.7326 354.06 69.5106 354.06 69.3306 354.059C69.1776 354.064 69.0996 354.069 69.0996 354.077Z" fill="#263238"/>
<path d="M142.654 313.924C142.646 313.921 142.604 314.002 142.529 314.162C142.447 314.344 142.34 314.58 142.205 314.878C141.919 315.537 141.516 316.466 141.002 317.65C140.43 318.84 139.989 320.371 139.393 322.126C139.119 323.009 138.753 323.937 138.5 324.952C138.24 325.966 137.966 327.037 137.678 328.161C137.039 330.4 136.646 332.905 136.1 335.573C135.812 336.906 135.674 338.305 135.445 339.735C135.256 341.17 134.976 342.638 134.847 344.158C134.125 350.223 133.729 356.921 133.546 363.954C133.433 370.991 133.592 377.695 133.905 383.784C134.259 389.872 134.704 395.348 135.238 399.934C135.492 402.228 135.735 404.301 136.005 406.117C136.261 407.934 136.464 409.5 136.695 410.773C136.911 412.026 137.08 413.009 137.2 413.707C137.259 414.024 137.307 414.275 137.343 414.468C137.378 414.639 137.4 414.726 137.408 414.725C137.416 414.724 137.41 414.635 137.391 414.462C137.366 414.267 137.334 414.014 137.294 413.695C137.195 412.995 137.055 412.009 136.876 410.752C136.673 409.477 136.497 407.908 136.266 406.091C136.021 404.275 135.801 402.201 135.569 399.907C135.078 395.322 134.667 389.85 134.337 383.768C134.049 377.684 133.903 370.989 134.016 363.963C134.199 356.941 134.581 350.254 135.278 344.199C135.401 342.68 135.674 341.215 135.856 339.783C136.078 338.355 136.208 336.958 136.486 335.627C137.014 332.963 137.387 330.46 138.004 328.224C138.28 327.101 138.543 326.03 138.792 325.017C139.032 324.002 139.386 323.075 139.647 322.191C140.217 320.435 140.631 318.9 141.176 317.705C141.654 316.512 142.029 315.575 142.295 314.911C142.412 314.607 142.504 314.365 142.575 314.18C142.634 314.013 142.661 313.927 142.654 313.924Z" fill="#263238"/>
<path d="M130.702 414.725C130.709 414.728 130.761 414.606 130.854 414.363C130.953 414.098 131.088 413.738 131.26 413.277C131.359 412.779 131.51 412.164 131.622 411.429C131.676 410.688 131.804 409.832 131.773 408.865C131.859 404.985 130.868 399.446 129.293 392.743C128.526 389.383 127.557 385.734 126.931 381.739C126.753 380.74 126.571 379.724 126.387 378.691C126.179 377.664 125.968 376.622 125.754 375.563C125.338 373.443 124.844 371.278 124.37 369.049C122.422 360.147 120.159 350.389 117.767 340.151C112.962 319.684 108.612 301.159 105.457 287.723C103.923 281.006 102.683 275.57 101.907 271.797C101.493 269.915 101.22 268.446 101.031 267.449C100.935 266.968 100.861 266.593 100.806 266.317C100.753 266.062 100.721 265.932 100.713 265.934C100.705 265.935 100.72 266.068 100.758 266.325C100.802 266.603 100.861 266.981 100.937 267.465C101.096 268.467 101.34 269.945 101.728 271.833C102.45 275.62 103.641 281.069 105.134 287.796C108.142 301.247 112.511 319.779 117.311 340.257C119.703 350.494 121.978 360.248 123.948 369.141C124.427 371.367 124.928 373.531 125.35 375.646C125.568 376.702 125.782 377.743 125.994 378.767C126.182 379.794 126.367 380.806 126.548 381.8C127.194 385.813 128.184 389.468 128.971 392.817C130.586 399.504 131.622 405.01 131.591 408.863C131.636 409.825 131.522 410.672 131.484 411.41C131.387 412.14 131.252 412.752 131.169 413.251C131.016 413.715 130.897 414.077 130.81 414.343C130.732 414.593 130.695 414.722 130.702 414.725Z" fill="#263238"/>
<path d="M129.109 414.725C129.125 414.725 129.13 414.524 129.123 414.143C129.115 413.762 129.091 413.2 129.039 412.478C128.938 411.033 128.713 408.947 128.362 406.377C127.689 401.235 126.406 394.169 125.583 386.319C125.19 382.395 124.991 378.637 125.253 375.239C125.389 373.543 125.647 371.936 126.113 370.482C126.578 369.034 127.277 367.73 128.292 366.796C129.313 365.87 130.638 365.403 131.828 365.338C133.022 365.248 134.061 365.42 134.884 365.592C136.531 365.968 137.387 366.334 137.408 366.291C137.415 366.279 137.203 366.188 136.792 366.027C136.588 365.942 136.33 365.85 136.018 365.754C135.711 365.647 135.348 365.543 134.932 365.444C134.105 365.248 133.051 365.047 131.806 365.119C130.568 365.163 129.141 365.639 128.05 366.606C126.966 367.577 126.23 368.922 125.738 370.395C125.246 371.875 124.971 373.502 124.821 375.213C124.533 378.641 124.72 382.416 125.115 386.352C125.94 394.223 127.276 401.282 128.032 406.41C128.424 408.973 128.699 411.051 128.856 412.489C128.927 413.179 128.984 413.73 129.028 414.147C129.065 414.527 129.093 414.726 129.109 414.725Z" fill="#263238"/>
<path d="M159.441 316.166C156.937 317.288 154.683 318.981 152.054 319.766C151.492 319.934 150.703 319.949 150.516 319.393C150.375 318.974 150.713 318.557 151.03 318.25C155.412 314 161.145 311.18 167.17 310.227C163.659 306.571 159.669 303.303 155.125 302.302C153.703 303.068 152.389 304.074 151.201 305.17C148.974 307.225 147.086 309.618 144.918 311.734C144.609 312.036 144.284 312.338 143.882 312.497C143.48 312.655 142.981 312.639 142.663 312.347C142.352 312.061 142.289 311.58 142.399 311.172C142.51 310.764 142.765 310.413 143.019 310.077C145.253 307.12 147.843 304.432 150.712 302.086C147.955 302.423 145.015 303.662 141.878 306.146C141.878 306.146 137.134 310.672 137.485 319.3C137.485 319.3 123.414 320.643 123.542 334.312C123.601 340.596 127.279 345.405 132.607 348.915C132.219 342.806 133.543 336.594 136.406 331.183C136.761 330.511 137.41 329.743 138.121 330.012C138.523 330.164 138.741 330.621 138.748 331.051C138.754 331.481 138.592 331.893 138.435 332.293C137.113 335.669 135.997 339.156 135.594 342.759C135.288 345.491 135.41 348.302 136.135 350.943C140.843 353.306 146.333 354.872 151.62 355.731C148.799 352.154 146.411 348.162 145.293 343.752C144.126 339.149 144.457 334.037 146.907 329.969C147.503 328.98 148.493 327.95 149.618 328.21C150.406 328.392 150.93 329.186 151.064 329.983C151.198 330.781 151.026 331.594 150.883 332.391C149.416 340.585 151.215 349.299 155.709 356.295C158.503 356.649 160.87 356.905 162.937 356.976C161.52 354.496 160.163 351.979 159.119 349.324C157.803 345.976 156.993 342.371 157.278 338.786C157.329 338.146 157.422 337.486 157.762 336.942C158.102 336.398 158.75 335.999 159.378 336.133C160.133 336.295 160.541 337.1 160.808 337.824C162.135 341.426 162.588 345.289 163.688 348.967C164.534 351.795 165.872 354.622 167.963 356.639C171.868 355.82 174.964 353.656 178.511 348.579C179.715 346.856 180.74 345.343 180.892 343.196C180.688 340.523 177.474 338.664 174.906 337.895C172.338 337.126 169.58 337.109 167.049 336.226C166.196 335.929 165.227 335.27 165.391 334.382C165.521 333.676 166.3 333.314 166.99 333.117C170.116 332.229 173.544 332.445 176.533 333.72C178.338 334.49 179.974 335.645 181.323 337.07C181.238 334.474 180.737 331.817 179.911 329.226C173.56 326.18 166.107 325.456 159.301 327.293C158.327 327.556 157.319 327.871 156.328 327.683C155.337 327.495 154.395 326.59 154.571 325.597C154.767 324.493 156.074 324.037 157.169 323.794C161.302 322.879 165.318 323.045 169.543 323.292C173.334 323.513 176.031 324.131 178.281 325.063C176.874 322.038 175.057 319.215 172.997 316.826C172.552 316.309 172.096 315.776 171.631 315.232C167.624 314.136 163.236 314.465 159.441 316.166ZM137.092 322.531C137.325 322.397 137.97 322.16 138.237 322.187C138.606 322.225 138.86 322.617 138.86 322.988C138.86 323.359 138.668 323.702 138.451 324.003C137.98 324.655 137.362 325.202 136.656 325.589C136.381 325.74 136.066 325.87 135.76 325.802C135.234 325.685 134.995 325.016 135.144 324.497C135.293 323.979 135.706 323.586 136.102 323.22C136.102 323.22 136.303 322.986 137.092 322.531Z" fill="#455A64"/>
<path d="M177.149 350.601C177.16 350.593 177.061 350.445 176.864 350.17C176.67 349.893 176.367 349.496 175.97 348.991C175.172 347.983 173.954 346.575 172.357 344.922C170.76 343.269 168.777 341.385 166.552 339.323C164.336 337.252 161.846 335.02 159.123 332.813C153.673 328.395 148.374 324.874 144.444 322.502C142.483 321.308 140.862 320.4 139.737 319.781C139.197 319.495 138.764 319.265 138.431 319.088C138.131 318.934 137.97 318.858 137.963 318.87C137.957 318.881 138.105 318.98 138.393 319.156C138.716 319.348 139.138 319.599 139.663 319.911C140.764 320.569 142.362 321.511 144.302 322.733C148.189 325.16 153.448 328.705 158.882 333.111C161.598 335.313 164.084 337.526 166.313 339.583C168.551 341.63 170.548 343.489 172.164 345.112C173.781 346.735 175.024 348.11 175.855 349.086C176.247 349.554 176.562 349.929 176.803 350.217C177.02 350.477 177.139 350.609 177.149 350.601Z" fill="#263238"/>
<path d="M154.801 329.69C154.775 329.687 154.707 330.081 154.608 330.797C154.508 331.512 154.373 332.548 154.232 333.832C153.973 336.394 153.591 339.981 154.064 343.931C154.344 345.897 154.708 347.734 155.149 349.398C155.594 351.058 156.201 352.5 156.847 353.63C157.501 354.756 158.154 355.587 158.636 356.127C158.87 356.404 159.076 356.597 159.208 356.734C159.343 356.868 159.419 356.934 159.429 356.925C159.502 356.868 158.323 355.746 157.083 353.499C156.478 352.371 155.91 350.95 155.49 349.308C155.074 347.669 154.719 345.817 154.444 343.884C153.977 339.995 154.312 336.422 154.502 333.859C154.605 332.626 154.691 331.602 154.757 330.814C154.809 330.092 154.827 329.692 154.801 329.69Z" fill="#263238"/>
<path d="M165.632 329.323C165.629 329.222 163.45 329.23 160.799 329.622C158.149 330.014 156.049 330.553 156.069 330.648C156.091 330.76 158.222 330.388 160.854 330C163.485 329.611 165.637 329.433 165.632 329.323Z" fill="#263238"/>
<path d="M158.055 319.104C158.035 319.058 157.425 319.273 156.474 319.703C155.523 320.133 154.236 320.791 152.878 321.627C151.52 322.464 150.354 323.318 149.542 323.974C148.73 324.63 148.264 325.079 148.296 325.117C148.369 325.208 150.384 323.608 153.079 321.952C155.768 320.291 158.104 319.21 158.055 319.104Z" fill="#263238"/>
<path d="M146.462 323.923C146.445 323.907 146.189 324.147 145.767 324.617C145.344 325.087 144.769 325.803 144.145 326.749C142.888 328.628 141.547 331.537 140.963 334.959C140.353 338.383 140.658 341.568 141.178 343.765C141.433 344.869 141.718 345.741 141.945 346.331C142.173 346.921 142.326 347.235 142.347 347.227C142.415 347.203 141.881 345.907 141.441 343.709C140.995 341.523 140.739 338.39 141.338 335.026C141.914 331.655 143.189 328.787 144.372 326.893C145.551 324.988 146.519 323.971 146.462 323.923Z" fill="#263238"/>
<path d="M156.038 309.631C156.024 309.609 155.804 309.725 155.419 309.956C155.032 310.183 154.488 310.54 153.832 311.003C152.52 311.928 150.784 313.327 149.066 315.082C147.351 316.84 145.992 318.609 145.098 319.942C144.65 320.609 144.306 321.16 144.088 321.552C143.867 321.943 143.755 322.165 143.778 322.179C143.829 322.211 144.372 321.382 145.319 320.098C146.265 318.814 147.642 317.09 149.34 315.349C151.041 313.612 152.732 312.195 153.994 311.22C155.255 310.244 156.071 309.682 156.038 309.631Z" fill="#263238"/>
<path d="M126.471 335.562C126.536 335.573 126.704 334.381 127.288 332.548C127.871 330.723 128.984 328.267 130.839 325.994C132.678 323.703 134.868 322.14 136.533 321.179C137.309 320.716 137.967 320.325 138.501 320.006C138.963 319.724 139.214 319.558 139.2 319.534C139.188 319.512 138.914 319.634 138.429 319.876C137.945 320.119 137.249 320.479 136.398 320.945C134.689 321.851 132.416 323.417 130.542 325.754C128.65 328.072 127.553 330.599 127.029 332.469C126.76 333.406 126.609 334.181 126.54 334.72C126.466 335.259 126.443 335.558 126.471 335.562Z" fill="#263238"/>
<path d="M142.506 310.25C142.436 310.179 140.972 311.964 140.088 314.618C139.638 315.933 139.387 317.169 139.27 318.068C139.152 318.968 139.152 319.53 139.2 319.535C139.321 319.551 139.559 317.325 140.449 314.742C141.312 312.147 142.599 310.313 142.506 310.25Z" fill="#263238"/>
<path d="M48.7302 372.394C52.1532 369.514 56.1992 367.481 60.2802 365.649C62.2762 364.753 64.2902 363.898 66.3222 363.085C67.2192 362.726 67.1672 361.428 66.2402 361.154C63.2672 360.275 59.7452 361.148 56.7462 362.349C51.1022 364.608 45.8492 367.824 41.2422 371.79C41.5492 369.286 42.3532 366.882 43.5362 364.224C45.4712 359.878 48.7072 354.816 53.1202 351.08C53.2932 351.09 53.4662 351.099 53.6382 351.112C57.4012 351.394 61.1312 352.288 64.9002 352.121C65.3682 352.1 65.8562 352.057 66.2572 351.814C66.6582 351.572 66.9412 351.071 66.7892 350.628C66.6312 350.169 66.1102 349.964 65.6452 349.823C62.8582 348.979 59.9682 348.479 57.0602 348.319C60.5032 346.385 64.4762 345.326 68.9442 345.793C81.8022 347.135 80.7582 354.09 80.7582 354.09C81.1512 353.701 88.5482 347.639 99.3512 354.681C106.829 359.556 109.625 365.138 109.5 370.715C108.586 369.913 107.647 369.139 106.718 368.385C103.494 365.765 100.249 363.131 96.6092 361.13C92.9692 359.129 88.8742 357.776 84.7232 357.927C84.0542 357.951 83.2922 358.068 82.9252 358.628C82.5412 359.214 82.8002 360.042 83.3082 360.523C83.8162 361.004 84.5092 361.227 85.1722 361.453C94.3602 364.593 102.269 371.281 106.971 379.768C105.475 382.794 102.901 387.222 99.3402 391.834C97.7632 387.277 96.0952 382.725 93.5722 378.623C90.8062 374.125 86.8872 370.15 81.9442 368.292C81.2572 368.034 80.5102 367.816 79.7982 367.992C78.3282 368.356 77.7402 370.283 78.2392 371.712C78.7382 373.142 79.9612 374.175 81.1132 375.158C84.8252 378.33 88.3522 381.773 91.1232 385.792C93.2732 388.911 94.9532 392.405 95.7932 396.086C93.7202 398.385 91.4082 400.636 88.8672 402.691C85.7802 395.831 81.4822 389.516 76.2202 384.139C75.6492 383.555 74.9402 382.937 74.1302 383.045C73.2322 383.166 72.6842 384.189 72.7602 385.092C72.8362 385.995 73.3612 386.791 73.8772 387.536C76.4692 391.277 79.3022 394.938 80.8982 399.201C81.8672 401.789 82.3042 404.683 81.9222 407.396C77.0042 410.11 71.4662 411.902 65.3572 412.048C65.3572 412.048 62.0062 410.823 57.6482 406.811C59.2202 401.286 61.6022 395.991 64.7002 391.154C65.1122 390.511 65.5552 389.745 65.2902 389.029C64.9652 388.15 63.7082 387.96 62.8952 388.426C62.0812 388.892 61.6132 389.772 61.1872 390.608C58.9722 394.946 56.7582 399.284 54.5432 403.622C52.9212 401.769 51.2432 399.532 49.6032 396.863C51.8642 388.519 57.3652 381.089 64.7052 376.517C65.4442 376.057 66.2272 375.6 66.7122 374.877C67.1972 374.154 67.2752 373.069 66.6332 372.481C65.9462 371.852 64.8582 372.076 63.9872 372.405C58.8882 374.338 54.9072 378.573 52.3342 383.381C50.4402 386.921 49.2382 390.77 48.3352 394.693C48.1292 394.322 47.9232 393.948 47.7202 393.563C45.0782 388.557 43.3162 384.569 42.2782 381.154C43.5522 377.744 45.9262 374.753 48.7302 372.394Z" fill="#455A64"/>
<path d="M65.3566 412.05C65.3726 412.051 65.3976 411.835 65.4286 411.422C65.4566 410.962 65.4936 410.363 65.5386 409.617C65.6226 407.996 65.7386 405.744 65.8806 402.983C66.0646 400.189 66.3396 396.859 67.0266 393.226C67.3696 391.416 67.8586 389.523 68.2356 387.535C68.6286 385.552 68.9836 383.491 69.3556 381.383C70.0926 377.168 70.8536 373.163 71.9086 369.619C72.9576 366.076 74.2816 363.002 75.6846 360.589C77.0856 358.173 78.5186 356.405 79.5936 355.272C80.6696 354.137 81.3446 353.588 81.3116 353.549C81.3016 353.537 81.1286 353.668 80.8086 353.931C80.4806 354.185 80.0306 354.598 79.4636 355.145C78.3406 356.247 76.8526 358.001 75.4006 360.421C73.9466 362.838 72.5776 365.93 71.4976 369.495C70.4106 373.061 69.6336 377.084 68.8966 381.302C68.5246 383.41 68.1736 385.469 67.7876 387.447C67.4186 389.427 66.9416 391.31 66.6056 393.147C65.9366 396.812 65.6956 400.161 65.5536 402.965C65.4236 405.771 65.3886 408.042 65.3596 409.611C65.3506 410.358 65.3426 410.958 65.3366 411.418C65.3336 411.832 65.3406 412.05 65.3566 412.05Z" fill="#263238"/>
<path d="M70.9214 371.769C70.8984 371.787 71.1394 372.146 71.6204 372.761C72.0994 373.378 72.8314 374.239 73.7754 375.266C75.6544 377.331 78.4444 379.992 81.5104 382.924C84.5894 385.841 87.1104 388.742 88.6174 391.068C90.1444 393.382 90.7544 395.006 90.8374 394.969C90.8624 394.959 90.7374 394.545 90.4334 393.824C90.1354 393.101 89.6294 392.084 88.8964 390.89C87.4444 388.49 84.9254 385.514 81.8354 382.587C78.7624 379.648 75.9474 377.036 74.0154 375.038C73.0454 374.044 72.2794 373.221 71.7594 372.643C71.2384 372.067 70.9494 371.747 70.9214 371.769Z" fill="#263238"/>
<path d="M51.1056 375.071C51.1766 375.128 52.0426 374.003 53.7166 372.468C54.5476 371.694 55.6086 370.854 56.8446 370.007C58.0946 369.182 59.5276 368.362 61.1066 367.658C62.6946 366.971 64.2676 366.47 65.7206 366.108C67.1806 365.771 68.5176 365.558 69.6496 365.469C71.9126 365.275 73.3276 365.398 73.3326 365.307C73.3356 365.275 72.9846 365.227 72.3446 365.169C72.0246 365.135 71.6326 365.106 71.1756 365.112C70.7196 365.112 70.1986 365.088 69.6246 365.139C68.4746 365.186 67.1116 365.368 65.6216 365.688C64.1386 366.033 62.5316 366.53 60.9166 367.23C59.3086 367.947 57.8566 368.793 56.5996 369.652C55.3566 370.533 54.3006 371.414 53.4886 372.229C53.0636 372.617 52.7286 373.017 52.4196 373.353C52.1066 373.686 51.8626 373.994 51.6716 374.253C51.2826 374.76 51.0806 375.051 51.1056 375.071Z" fill="#263238"/>
<path d="M94.9531 372.271C94.9741 372.247 94.7511 372.012 94.3291 371.608C93.9071 371.204 93.2861 370.632 92.5031 369.94C90.9351 368.565 88.7221 366.687 86.0021 364.989C83.2821 363.288 80.5411 362.214 78.4891 361.757C77.4641 361.521 76.6201 361.407 76.0351 361.367C75.4501 361.326 75.1251 361.337 75.1231 361.366C75.1151 361.449 76.4091 361.53 78.4081 362.078C80.4071 362.61 83.0731 363.71 85.7561 365.387C88.4401 367.063 90.6711 368.885 92.2911 370.193C93.9041 371.51 94.9091 372.323 94.9531 372.271Z" fill="#263238"/>
<path d="M61.8926 354.792C61.8896 354.96 65.4266 354.683 69.6036 355.7C73.7826 356.71 76.7996 358.578 76.8736 358.427C76.9026 358.38 76.1846 357.866 74.9236 357.202C73.6636 356.541 71.8366 355.762 69.7146 355.245C67.5926 354.733 65.6106 354.587 64.1886 354.597C62.7616 354.609 61.8886 354.737 61.8926 354.792Z" fill="#263238"/>
<path d="M58.1455 301.395C58.2565 302.561 58.3665 303.703 58.4675 304.815C58.9345 309.955 60.1895 315.302 62.1465 320.396C63.6065 316.69 65.9475 312.815 69.9985 308.105C74.5135 302.855 78.8845 297.942 84.6605 294.122C86.1905 293.11 88.2135 292.091 89.7345 293.116C91.1035 294.038 91.0965 296.174 90.1905 297.554C89.2855 298.934 87.7685 299.76 86.3515 300.607C76.4525 306.523 68.8295 316.112 65.1905 327.045C67.2975 330.963 69.8545 334.573 72.8105 337.625C72.6685 334.418 73.1705 331.181 74.3175 328.182C76.2165 323.216 79.8605 318.938 84.4595 316.272C85.4755 315.683 86.7875 315.179 87.7655 315.829C88.9965 316.647 88.6695 318.535 88.0485 319.877C86.2075 323.857 83.0915 327.12 81.0765 331.016C79.0615 334.911 77.5935 340.806 80.5055 344.084C83.2025 346.347 86.1475 346.861 89.5425 347.405C99.5465 349.006 105.612 347.826 111.016 344.164C111.021 339.411 109.217 334.621 106.853 330.412C103.778 324.936 99.7485 320.011 97.0215 314.354C96.4725 313.216 95.9905 311.821 96.6585 310.749C97.2145 309.858 98.4205 309.549 99.4475 309.768C100.475 309.987 101.357 310.628 102.168 311.296C106.709 315.039 110.028 320.091 112.469 325.445C114.406 329.693 115.823 334.15 117.128 338.637C119.395 336.125 121.786 333.051 124.547 329.362C121.429 316.12 113.226 304.096 101.92 296.504C100.821 295.766 99.6685 295.044 98.8825 293.979C98.0965 292.914 97.7585 291.395 98.4415 290.261C99.4155 288.643 101.753 288.649 103.594 289.073C111.164 290.817 117.553 296.24 121.64 302.847C125.556 309.177 127.535 316.525 128.535 323.911C133.537 316.716 137.937 308.478 140.512 300.254C138.23 296.398 135.062 293.057 131.501 290.311C126.805 286.689 121.434 284.036 115.96 281.752C115.311 281.481 114.642 281.203 114.144 280.707C113.646 280.211 113.357 279.434 113.635 278.789C114.126 277.647 115.767 277.758 116.962 278.104C126.583 280.89 135.394 286.396 142.138 293.799C144.068 283.542 142.595 273.748 135.27 266.533C119.339 250.839 101.76 265.861 101.76 265.861C92.0105 255.636 81.2935 256.07 81.2935 256.07C74.8045 256.935 70.0045 258.984 66.4745 261.844C72.4965 261.138 78.6015 261.148 84.6205 261.883C85.3065 261.966 86.0085 262.065 86.6145 262.399C87.2195 262.732 87.7135 263.355 87.6965 264.046C87.6785 264.752 87.1295 265.358 86.4865 265.651C85.8435 265.943 85.1175 265.981 84.4115 266.002C79.4575 266.145 74.4945 265.645 69.5465 265.928C66.9055 266.079 64.2295 266.481 61.7115 267.282C57.7215 273.764 57.0285 282.173 57.3355 290.46C65.3085 284.457 75.1435 280.921 85.1245 280.6C85.8475 280.577 86.7205 280.654 87.0535 281.295C87.4955 282.146 86.5795 283.058 85.7445 283.528C81.8325 285.728 77.2785 286.454 73.1115 288.123C66.7965 290.648 61.4195 295.435 58.1455 301.395ZM107.947 268.69C108.828 268.641 109.759 268.602 110.538 269.016C111.317 269.43 111.833 270.472 111.372 271.224C111.103 271.662 110.593 271.883 110.102 272.035C108.844 272.425 107.499 272.531 106.196 272.343C105.596 272.256 104.974 272.092 104.538 271.67C104.102 271.248 103.93 270.503 104.305 270.026C104.577 269.68 105.588 269.191 106.011 269.07C107.444 268.66 107.947 268.69 107.947 268.69Z" fill="#455A64"/>
<path d="M93.4747 348.104C93.4827 348.103 93.4807 348.03 93.4677 347.888C93.4497 347.72 93.4277 347.514 93.4007 347.263C93.3297 346.715 93.2427 345.905 93.1337 344.863C92.9207 342.777 92.7087 339.749 92.6317 336.001C92.5527 332.253 92.6317 327.788 92.7647 322.828C92.8757 317.868 93.0977 312.424 93.5957 306.724C94.5937 295.32 96.4137 285.1 97.9927 277.771C98.7687 274.102 99.4857 271.151 99.9727 269.111C100.214 268.121 100.404 267.338 100.544 266.763C100.599 266.516 100.644 266.315 100.681 266.149C100.709 266.01 100.72 265.938 100.712 265.936C100.704 265.934 100.678 266.002 100.635 266.137C100.586 266.299 100.526 266.497 100.453 266.739C100.292 267.309 100.073 268.085 99.7967 269.066C99.2547 271.094 98.4877 274.035 97.6697 277.701C96.0057 285.022 94.1297 295.255 93.1297 306.685C92.6307 312.395 92.4207 317.859 92.3337 322.82C92.2247 327.781 92.1797 332.255 92.3007 336.011C92.4207 339.767 92.6837 342.8 92.9527 344.884C93.0897 345.926 93.2067 346.733 93.3077 347.277C93.3527 347.526 93.3907 347.729 93.4207 347.896C93.4477 348.034 93.4667 348.105 93.4747 348.104Z" fill="#263238"/>
<path d="M94.2936 298.039C94.2836 298.052 94.4026 298.165 94.6386 298.368C94.9186 298.601 95.2635 298.888 95.6845 299.238C96.6555 300.024 97.9706 301.087 99.5716 302.382C102.813 305.062 107.404 308.727 111.456 313.708C113.421 316.234 115.191 318.758 116.646 321.118C118.098 323.487 119.122 325.78 119.755 327.779C120.374 329.784 120.665 331.467 120.815 332.634C120.966 333.801 121.024 334.452 121.063 334.45C121.079 334.449 121.082 334.285 121.073 333.974C121.057 333.663 121.06 333.202 120.995 332.613C120.9 331.434 120.657 329.726 120.071 327.682C119.471 325.644 118.462 323.3 117.015 320.895C115.56 318.492 113.809 315.973 111.82 313.414C107.721 308.376 103.076 304.741 99.7766 302.122C98.1106 300.823 96.7435 299.797 95.7955 299.093C95.3535 298.771 94.9906 298.507 94.6956 298.292C94.4416 298.114 94.3036 298.026 94.2936 298.039Z" fill="#263238"/>
<path d="M81.547 310.363C81.593 310.413 82.277 309.849 83.377 308.939C84.478 308.029 86.005 306.782 87.728 305.45C89.398 304.187 90.909 303.045 92.181 302.084C93.323 301.224 94.019 300.674 93.981 300.62C93.945 300.568 93.183 301.022 91.989 301.814C90.797 302.607 89.174 303.742 87.441 305.08C85.71 306.418 84.207 307.712 83.158 308.69C82.11 309.668 81.505 310.318 81.547 310.363Z" fill="#263238"/>
<path d="M78.143 289.83C78.169 289.895 79.164 289.548 80.776 289.015C82.388 288.482 84.626 287.781 87.133 287.14C89.642 286.501 91.941 286.042 93.612 285.737C95.283 285.431 96.321 285.258 96.313 285.189C96.306 285.13 95.252 285.187 93.56 285.41C91.869 285.633 89.543 286.042 87.017 286.686C84.493 287.332 82.255 288.088 80.664 288.703C79.073 289.319 78.12 289.774 78.143 289.83Z" fill="#263238"/>
<path d="M96.9961 281.673C96.9951 281.71 97.5641 281.754 98.5861 281.857C99.6081 281.959 101.084 282.154 102.876 282.541C106.457 283.291 111.295 285.048 115.923 288.21C120.571 291.338 123.965 295.215 126.02 298.239C127.058 299.751 127.806 301.038 128.296 301.941C128.786 302.844 129.048 303.351 129.081 303.336C129.096 303.329 129.048 303.194 128.944 302.943C128.836 302.694 128.689 302.32 128.458 301.858C128.015 300.925 127.306 299.604 126.294 298.055C124.292 294.958 120.894 290.992 116.184 287.823C111.504 284.625 106.573 282.89 102.942 282.218C101.124 281.869 99.6311 281.724 98.5991 281.677C98.0841 281.641 97.6821 281.652 97.4101 281.648C97.1401 281.649 96.9971 281.657 96.9961 281.673Z" fill="#263238"/>
<path d="M69.297 276.685C69.304 276.716 69.707 276.661 70.427 276.534C71.146 276.401 72.19 276.226 73.481 276.032C76.063 275.641 79.655 275.254 83.638 275.229C87.622 275.211 91.218 275.56 93.804 275.923C95.097 276.104 96.143 276.268 96.863 276.393C97.585 276.513 97.988 276.564 97.995 276.532C98.002 276.5 97.612 276.389 96.899 276.214C96.188 276.034 95.147 275.819 93.854 275.596C91.269 275.147 87.648 274.743 83.635 274.761C79.623 274.786 76.007 275.229 73.427 275.705C72.136 275.942 71.098 276.168 70.389 276.356C69.678 276.538 69.289 276.654 69.297 276.685Z" fill="#263238"/>
<path d="M133.416 271.396C133.437 271.366 133.053 271.062 132.33 270.546C131.975 270.278 131.52 269.98 130.98 269.652C130.451 269.305 129.821 268.959 129.118 268.585C126.321 267.09 122.11 265.519 117.245 265.109C112.378 264.657 107.963 265.538 104.953 266.504C103.437 266.968 102.22 267.368 101.38 267.653C100.541 267.939 100.083 268.113 100.092 268.142C100.102 268.175 100.579 268.06 101.434 267.828C102.369 267.568 103.583 267.23 105.046 266.823C108.067 265.943 112.407 265.133 117.205 265.577C121.998 265.98 126.161 267.477 128.969 268.882C129.674 269.233 130.31 269.556 130.847 269.879C131.396 270.183 131.861 270.456 132.23 270.699C132.979 271.165 133.4 271.419 133.416 271.396Z" fill="#263238"/>
<path d="M85.4122 261.473C85.4012 261.547 86.2982 261.713 87.7112 262.103C89.1242 262.49 91.0432 263.145 93.0682 264.091C95.0922 265.041 96.8352 266.081 98.0692 266.876C99.3042 267.67 100.048 268.199 100.092 268.142C100.128 268.097 99.4542 267.474 98.2552 266.602C97.0582 265.73 95.3192 264.63 93.2662 263.667C91.2122 262.707 89.2422 262.09 87.7912 261.781C86.3382 261.469 85.4182 261.419 85.4122 261.473Z" fill="#263238"/>
<path d="M157.426 407.061C157.426 407.612 161.899 445.288 148.732 460.674C145.998 464.401 142.474 468.41 138.498 472.579V473.949H126.186V407.06H157.426V407.061Z" fill="#D34733"/>
<path d="M97.9294 407.061C97.9294 407.612 93.4564 445.288 106.623 460.674C109.357 464.401 112.881 468.41 116.857 472.579V473.949H129.169V407.06H97.9294V407.061Z" fill="#D34733"/>
<path d="M117.152 472.946C117.152 472.757 121.973 472.603 127.92 472.603C133.868 472.603 138.689 472.757 138.689 472.946C138.689 473.136 133.869 473.289 127.92 473.289C121.974 473.289 117.152 473.136 117.152 472.946Z" fill="#263238"/>
<path d="M97.3164 416.029C97.3164 415.839 110.937 415.686 127.735 415.686C144.539 415.686 158.157 415.84 158.157 416.029C158.157 416.218 144.539 416.372 127.735 416.372C110.937 416.371 97.3164 416.218 97.3164 416.029Z" fill="#263238"/>
<path d="M97.3164 419.325C97.3164 419.136 110.937 418.982 127.735 418.982C144.539 418.982 158.157 419.136 158.157 419.325C158.157 419.514 144.539 419.668 127.735 419.668C110.937 419.668 97.3164 419.514 97.3164 419.325Z" fill="#263238"/>
<path d="M97.3164 422.56C97.3164 422.37 110.937 422.217 127.735 422.217C144.539 422.217 158.157 422.371 158.157 422.56C158.157 422.749 144.539 422.903 127.735 422.903C110.937 422.903 97.3164 422.749 97.3164 422.56Z" fill="#263238"/>
<path d="M154.694 388.265C152.365 385.267 149.421 382.885 146.423 380.667C144.956 379.582 143.469 378.529 141.963 377.508C141.298 377.057 141.519 375.968 142.295 375.887C144.786 375.629 147.471 376.943 149.695 378.45C153.88 381.285 157.622 384.866 160.744 388.977C160.845 386.807 160.536 384.64 159.961 382.196C159.02 378.2 157.14 373.386 154.139 369.501C154 369.481 153.861 369.461 153.722 369.444C150.685 369.068 147.59 369.215 144.609 368.458C144.239 368.364 143.856 368.248 143.57 367.977C143.284 367.706 143.127 367.236 143.31 366.886C143.499 366.524 143.943 366.434 144.332 366.391C146.669 366.132 149.041 366.18 151.38 366.521C148.904 364.321 145.885 362.775 142.26 362.44C131.83 361.475 131.702 367.534 131.702 367.534C131.443 367.14 126.385 360.799 116.806 364.996C110.175 367.901 107.176 372.171 106.506 376.913C107.345 376.383 108.2 375.882 109.044 375.395C111.974 373.704 114.924 372.004 118.101 370.904C121.278 369.805 124.727 369.328 128.014 370.135C128.544 370.265 129.135 370.488 129.35 371.022C129.575 371.581 129.255 372.24 128.783 372.564C128.311 372.888 127.729 372.964 127.169 373.047C119.415 374.204 112.189 378.574 107.272 384.992C108.046 387.798 109.486 391.968 111.686 396.455C113.572 392.854 115.529 389.273 118.106 386.212C120.931 382.855 124.602 380.13 128.797 379.366C129.38 379.26 130.005 379.197 130.548 379.463C131.669 380.011 131.872 381.739 131.276 382.868C130.681 383.997 129.564 384.671 128.511 385.316C125.116 387.395 121.83 389.733 119.067 392.684C116.923 394.973 115.102 397.657 113.925 400.636C115.259 402.921 116.791 405.205 118.532 407.36C121.939 402.056 126.236 397.412 131.171 393.719C131.707 393.318 132.357 392.91 132.987 393.134C133.686 393.383 133.981 394.339 133.796 395.091C133.611 395.843 133.083 396.431 132.569 396.978C129.987 399.722 127.224 402.359 125.364 405.707C124.235 407.74 123.487 410.119 123.417 412.479C126.961 415.58 131.126 418.003 135.973 419.125C135.973 419.125 138.812 418.635 142.838 415.951C142.348 411.016 141.182 406.144 139.38 401.542C139.14 400.93 138.894 400.21 139.204 399.646C139.584 398.955 140.612 398.999 141.196 399.527C141.78 400.054 142.032 400.877 142.256 401.653C143.422 405.688 144.587 409.723 145.753 413.757C147.302 412.453 148.948 410.834 150.622 408.841C149.973 401.407 146.615 394.217 141.398 389.147C140.873 388.636 140.312 388.122 140.025 387.43C139.738 386.738 139.826 385.808 140.419 385.414C141.053 384.994 141.89 385.361 142.537 385.782C146.333 388.252 148.921 392.489 150.306 396.98C151.326 400.286 151.753 403.742 151.931 407.211C152.146 406.931 152.362 406.648 152.577 406.355C155.373 402.548 157.328 399.459 158.627 396.738C158.081 393.641 156.603 390.721 154.694 388.265Z" fill="#455A64"/>
<path d="M135.97 419.124C135.986 419.126 136.025 418.943 136.084 418.592C136.147 418.191 136.226 417.682 136.324 417.055C136.523 415.719 136.814 413.785 137.102 411.384C137.38 408.983 137.653 406.106 137.627 402.897C137.613 401.288 137.495 399.621 137.474 397.888C137.44 396.154 137.445 394.356 137.44 392.513C137.435 388.827 137.37 385.3 136.997 382.112C136.628 378.926 135.968 376.091 135.141 373.807C134.318 371.52 133.369 369.782 132.616 368.655C132.233 368.095 131.927 367.667 131.695 367.395C131.471 367.118 131.347 366.977 131.334 366.987C131.296 367.016 131.76 367.603 132.462 368.752C133.162 369.899 134.054 371.641 134.828 373.916C135.607 376.188 136.226 378.999 136.568 382.16C136.914 385.323 136.967 388.831 136.971 392.515C136.976 394.357 136.975 396.157 137.015 397.898C137.042 399.64 137.169 401.319 137.195 402.903C137.244 406.084 137.008 408.949 136.772 411.348C136.511 413.701 136.298 415.628 136.142 417.032C136.08 417.663 136.029 418.176 135.989 418.581C135.962 418.935 135.954 419.122 135.97 419.124Z" fill="#263238"/>
<path d="M137.099 384.109C137.076 384.084 136.797 384.304 136.299 384.704C135.802 385.106 135.074 385.676 134.158 386.359C132.333 387.735 129.71 389.493 126.839 391.492C123.953 393.48 121.539 395.603 120.076 397.392C119.339 398.279 118.808 399.05 118.482 399.605C118.152 400.158 118.004 400.483 118.028 400.497C118.101 400.543 118.803 399.302 120.326 397.609C121.833 395.901 124.237 393.854 127.108 391.875C129.972 389.881 132.578 388.071 134.361 386.62C135.256 385.9 135.956 385.287 136.419 384.841C136.883 384.397 137.12 384.131 137.099 384.109Z" fill="#263238"/>
<path d="M152.43 390.143C152.459 390.129 152.347 389.855 152.119 389.37C151.9 388.881 151.517 388.204 150.997 387.398C149.953 385.793 148.225 383.721 145.854 381.974C144.668 381.106 143.451 380.404 142.304 379.853C141.14 379.339 140.066 378.93 139.13 378.706C138.67 378.568 138.241 378.494 137.866 378.422C137.493 378.343 137.168 378.298 136.9 378.278C136.366 378.225 136.071 378.21 136.068 378.243C136.056 378.329 137.232 378.467 139.038 379.024C139.947 379.284 140.987 379.718 142.117 380.242C143.231 380.803 144.414 381.5 145.575 382.35C147.896 384.06 149.625 386.051 150.724 387.585C151.823 389.126 152.354 390.182 152.43 390.143Z" fill="#263238"/>
<path d="M117.882 380.608C117.917 380.665 118.832 380.151 120.297 379.309C121.764 378.475 123.786 377.304 126.152 376.322C128.517 375.337 130.797 374.835 132.466 374.705C134.137 374.561 135.181 374.697 135.189 374.616C135.193 374.587 134.937 374.52 134.464 374.455C133.992 374.389 133.3 374.344 132.445 374.374C130.736 374.421 128.381 374.885 125.973 375.889C123.565 376.888 121.553 378.116 120.125 379.025C118.7 379.943 117.85 380.555 117.882 380.608Z" fill="#263238"/>
<path d="M146.637 371.211C146.652 371.156 145.984 370.899 144.854 370.651C143.727 370.405 142.126 370.198 140.355 370.284C138.583 370.374 137.011 370.74 135.914 371.101C134.816 371.463 134.178 371.788 134.198 371.841C134.246 371.997 136.91 370.921 140.378 370.752C143.844 370.577 146.605 371.371 146.637 371.211Z" fill="#263238"/>
<path d="M141.456 286.924C141.343 286.925 141.549 284.846 140.952 281.586C140.379 278.353 138.789 273.912 135.51 270.066C132.227 266.222 128.091 263.953 124.988 262.878C121.863 261.775 119.778 261.652 119.797 261.541C119.8 261.512 120.317 261.522 121.246 261.639C122.174 261.753 123.51 262.016 125.108 262.53C128.287 263.53 132.548 265.795 135.907 269.729C139.262 273.664 140.828 278.227 141.315 281.524C141.571 283.183 141.62 284.543 141.587 285.478C141.556 286.413 141.485 286.927 141.456 286.924Z" fill="white"/>
<path d="M161.736 309.568C161.624 309.677 160.272 308.342 158.292 307.146C156.321 305.933 154.516 305.344 154.561 305.194C154.585 305.065 156.518 305.445 158.563 306.701C160.616 307.943 161.84 309.487 161.736 309.568Z" fill="white"/>
<path d="M173.213 321.244C173.066 321.289 172.679 320.136 171.649 319.127C170.638 318.098 169.484 317.715 169.529 317.567C169.536 317.431 170.886 317.618 172.017 318.758C173.16 319.887 173.35 321.237 173.213 321.244Z" fill="white"/>
<path d="M179.528 332.502C179.395 332.564 179.113 332.233 178.75 331.875C178.393 331.512 178.061 331.231 178.123 331.097C178.177 330.968 178.686 331.072 179.118 331.506C179.552 331.94 179.657 332.448 179.528 332.502Z" fill="white"/>
<path d="M130.313 315.13C130.176 315.03 132.429 312.337 134.054 308.391C135.715 304.459 136.043 300.964 136.21 300.99C136.272 300.995 136.272 301.874 136.055 303.274C135.84 304.673 135.367 306.588 134.535 308.591C133.698 310.591 132.67 312.275 131.827 313.412C130.985 314.552 130.361 315.171 130.313 315.13Z" fill="white"/>
<g opacity="0.3">
<path d="M140.734 281.034C140.447 276.036 137.577 271.284 133.96 267.823C130.343 264.362 125.829 261.63 120.824 261.563C118.981 261.326 117.181 262.733 116.605 264.5C116.029 266.267 116.504 268.249 117.484 269.828C118.464 271.407 119.901 272.646 121.371 273.782C126.542 277.78 132.427 280.853 138.663 282.811C139.132 282.958 139.662 283.095 140.096 282.863C140.7 282.542 140.773 281.717 140.734 281.034Z" fill="white"/>
</g>
<path d="M470.161 388.941L496.346 478.095H488.986L452.877 388.317L470.161 388.941Z" fill="#6F4439"/>
<path d="M405.904 388.941L432.089 477.245H424.728L388.619 388.317L405.904 388.941Z" fill="#6F4439"/>
<path d="M326.123 388.941L302.383 477.245H309.744L343.407 388.317L326.123 388.941Z" fill="#AE7461"/>
<path d="M403.016 388.941L380.512 477.245H387.872L420.301 388.317L403.016 388.941Z" fill="#AE7461"/>
<path d="M311.93 350.274C311.93 350.274 309.88 323.395 313.98 315.723C318.079 308.051 357.432 292.474 357.432 292.474C357.432 292.474 384.45 249.842 402.505 240.823C420.56 231.804 491.068 233.034 501.316 246.972C511.564 260.91 500.086 297.393 494.757 319.529L475.49 373.639L470.161 388.94H323.408L311.93 350.274Z" fill="#D34733"/>
<path d="M494.715 246.536C494.723 246.533 494.763 246.627 494.828 246.814C494.893 247.001 494.987 247.281 495.093 247.654C495.31 248.397 495.601 249.505 495.891 250.955C496.46 253.848 497.06 258.137 496.804 263.484C496.677 266.158 496.265 269.063 495.795 272.18C495.319 275.297 494.75 278.627 494.114 282.137C492.843 289.157 491.327 296.902 489.627 305.093L489.602 305.215L489.491 305.271C487.291 306.379 484.967 307.555 482.59 308.705C465.934 316.839 450.312 323.019 438.872 327.07C433.152 329.099 428.479 330.616 425.242 331.634C423.642 332.12 422.389 332.5 421.503 332.769C421.095 332.886 420.773 332.979 420.526 333.05C420.305 333.11 420.191 333.137 420.188 333.129C420.185 333.12 420.295 333.077 420.51 332.999C420.752 332.916 421.07 332.807 421.471 332.669C422.35 332.378 423.593 331.966 425.179 331.441C428.396 330.364 433.047 328.796 438.747 326.724C450.146 322.588 465.726 316.362 482.361 308.237C484.735 307.088 487.057 305.915 489.255 304.81L489.119 304.987C490.825 296.803 492.359 289.064 493.658 282.054C494.308 278.549 494.893 275.225 495.387 272.117C495.875 269.008 496.305 266.115 496.455 263.466C496.756 258.158 496.213 253.884 495.703 250.99C495.442 249.541 495.183 248.429 494.997 247.68C494.906 247.327 494.834 247.046 494.779 246.829C494.731 246.637 494.707 246.539 494.715 246.536Z" fill="#263238"/>
<path d="M330.873 372.248C331.015 372.224 331.754 375.942 332.523 380.551C333.292 385.162 333.801 388.917 333.659 388.941C333.517 388.965 332.779 385.248 332.009 380.637C331.24 376.028 330.732 372.272 330.873 372.248Z" fill="#263238"/>
<path d="M406.845 388.317C406.703 388.293 408.341 378.022 410.503 365.38C412.665 352.734 414.532 342.505 414.674 342.529C414.816 342.553 413.178 352.821 411.016 365.468C408.855 378.111 406.987 388.342 406.845 388.317Z" fill="#263238"/>
<path d="M230.082 395.672L209.91 421.201C209.91 421.201 177.187 409.271 173 413.626L221.093 454.516L254.156 416.029L230.082 395.672Z" fill="#263238"/>
<path d="M226.553 431.761C227.268 432.807 227.021 434.4 226.005 435.157C224.99 435.914 223.367 435.677 222.635 434.643C221.902 433.61 222.139 431.689 223.234 431.05C224.328 430.412 226.218 430.794 226.681 431.973" fill="#E0E0E0"/>
<path d="M221.094 454.515L224.275 450.505L176.975 412.8C176.975 412.8 174.042 411.911 173.002 413.625L221.094 454.515Z" fill="#455A64"/>
<path d="M209.339 420.293C209.147 420.535 210.231 421.64 210.744 423.377C211.303 425.101 211.034 426.625 211.329 426.716C211.584 426.854 212.428 425.153 211.769 423.06C211.13 420.961 209.472 420.035 209.339 420.293Z" fill="white"/>
<path d="M202.52 418.091C202.273 418.273 202.951 419.537 202.904 421.208C202.906 422.881 202.194 424.126 202.437 424.314C202.626 424.539 203.958 423.302 203.976 421.222C204.014 419.144 202.716 417.871 202.52 418.091Z" fill="white"/>
<path d="M194.521 421.692C194.692 421.923 196.016 421.028 196.507 419.229C197.011 417.433 196.335 415.984 196.069 416.096C195.772 416.176 195.898 417.472 195.473 418.943C195.083 420.423 194.307 421.47 194.521 421.692Z" fill="white"/>
<path d="M214.582 414.985C214.499 415.283 215.851 415.875 217.102 417.094C218.378 418.287 219.032 419.611 219.326 419.514C219.607 419.46 219.337 417.733 217.843 416.318C216.361 414.892 214.624 414.703 214.582 414.985Z" fill="white"/>
<path d="M273.922 352.293C273.922 354.605 263.584 460.916 263.584 460.916L298.506 464.965C298.506 464.965 307.199 411.35 308.547 401.467C309.895 391.584 314.422 373.876 314.422 373.876L388.926 366.507C388.926 366.507 352.384 315.385 348.831 315.17C345.276 314.956 273.922 352.293 273.922 352.293Z" fill="#263238"/>
<path d="M213.555 411.034C213.555 411.034 276.092 326.263 279.699 321.823C283.306 317.383 287.469 312.666 300.511 312.666C313.553 312.666 348.83 315.17 348.83 315.17L367.469 306.679L435.131 317.112C435.131 317.112 437.628 349.301 433.189 356.794C428.749 364.286 402.387 366.229 396.837 366.506C391.287 366.783 305.334 355.115 305.334 355.115C305.334 355.115 288.489 378.495 280.402 387.482C274.636 393.89 243.867 433.375 243.867 433.375L213.555 411.034Z" fill="#263238"/>
<path d="M243.961 434.067L212.855 411.139L213.152 410.737C213.777 409.889 275.737 325.905 279.311 321.508C282.693 317.346 286.901 312.165 300.511 312.165C313.03 312.165 346.399 314.498 348.738 314.662L367.398 306.162L367.545 306.184L435.598 316.678L435.628 317.073C435.731 318.394 438.087 349.508 433.617 357.049C428.799 365.182 400.115 366.843 396.861 367.005C391.453 367.322 311.992 356.523 305.563 355.652C303.742 358.169 288.342 379.405 280.773 387.817C275.085 394.139 244.568 433.29 244.261 433.684L243.961 434.067ZM214.253 410.929L243.771 432.685C246.97 428.583 274.623 393.158 280.03 387.149C288.006 378.284 304.759 355.057 304.927 354.824L305.103 354.58L305.4 354.621C306.259 354.738 391.358 366.282 396.811 366.008C398.087 365.944 428.126 364.356 432.758 356.54C436.805 349.711 434.925 321.247 434.66 317.547L367.539 307.196L348.92 315.678L348.793 315.669C348.44 315.644 313.386 313.165 300.51 313.165C287.376 313.165 283.334 318.141 280.086 322.139C276.655 326.361 218.938 404.579 214.253 410.929Z" fill="#455A64"/>
<path d="M298.422 343.88C298.543 343.802 300.351 346.385 302.46 349.648C304.57 352.912 306.182 355.621 306.061 355.699C305.94 355.777 304.132 353.195 302.022 349.93C299.914 346.668 298.301 343.958 298.422 343.88Z" fill="#455A64"/>
<path d="M266.405 439.902L268.185 472.39C268.185 472.39 235.761 485.11 235.506 491.146L298.621 489.957L297.924 439.224L266.405 439.902Z" fill="#263238"/>
<path d="M287.648 469.287C288.876 469.598 289.746 470.955 289.486 472.195C289.226 473.434 287.853 474.331 286.62 474.041C285.387 473.752 284.293 472.155 284.69 470.952C285.087 469.75 286.757 468.785 287.884 469.362" fill="#E0E0E0"/>
<path d="M298.62 489.957L298.349 484.846L237.936 487.898C237.936 487.898 235.149 489.174 235.504 491.147L298.62 489.957Z" fill="#455A64"/>
<path d="M267.156 472.088C267.172 472.396 268.716 472.507 270.251 473.469C271.811 474.392 272.618 475.712 272.899 475.584C273.182 475.519 272.687 473.685 270.808 472.552C268.94 471.403 267.084 471.806 267.156 472.088Z" fill="white"/>
<path d="M260.586 474.951C260.521 475.251 261.866 475.75 262.937 477.034C264.046 478.286 264.337 479.691 264.643 479.671C264.933 479.715 265.113 477.905 263.75 476.335C262.403 474.751 260.587 474.656 260.586 474.951Z" fill="white"/>
<path d="M256.977 482.944C257.258 483.004 257.658 481.457 256.835 479.784C256.023 478.105 254.558 477.466 254.432 477.726C254.262 477.983 255.215 478.87 255.87 480.254C256.558 481.622 256.67 482.92 256.977 482.944Z" fill="white"/>
<path d="M267.57 464.639C267.705 464.918 269.11 464.466 270.855 464.551C272.601 464.601 273.968 465.16 274.123 464.892C274.297 464.666 272.952 463.55 270.896 463.478C268.842 463.391 267.415 464.4 267.57 464.639Z" fill="white"/>
<path d="M393.944 233.358L396.137 253.63L370.691 304.679C370.691 304.679 355.64 309.687 350.314 315.17L362.504 315.701C379.983 316.462 396.909 322.544 410.876 333.441C416.898 338.139 421.752 343.219 422.652 347.835C425.304 361.44 429.358 359.342 429.358 359.342L444.786 339.488L455.594 318.006L477.284 233.867L456.352 222.373L451.652 215.534L420.684 219.847L414.513 225.941L393.944 233.358Z" fill="#455A64"/>
<path d="M342.544 287.738L355.545 282.295L375.975 253.638C375.975 253.638 385.449 234.693 393.945 233.359C402.441 232.025 396.138 253.631 396.138 253.631L383.039 290.829L361.913 305.617L347.342 304.351L337.91 296.318L342.544 287.738Z" fill="#455A64"/>
<path d="M395.977 240.411C395.993 240.418 395.916 240.648 395.754 241.079C395.568 241.556 395.324 242.179 395.022 242.954C394.356 244.635 393.431 246.971 392.297 249.833C390.005 255.645 386.943 263.714 383.579 272.636C380.214 281.561 377.094 289.615 374.714 295.396C373.526 298.287 372.543 300.618 371.834 302.216C371.494 302.975 371.221 303.585 371.011 304.053C370.818 304.471 370.708 304.687 370.692 304.68C370.675 304.673 370.753 304.443 370.915 304.012C371.101 303.535 371.345 302.912 371.647 302.138C372.313 300.458 373.238 298.122 374.372 295.259C376.663 289.447 379.727 281.377 383.092 272.452C386.456 263.53 389.575 255.477 391.956 249.696C393.144 246.805 394.127 244.474 394.836 242.876C395.176 242.116 395.449 241.506 395.659 241.038C395.851 240.62 395.961 240.404 395.977 240.411Z" fill="#263238"/>
<path d="M421.49 239.57C421.456 239.586 421.18 239.095 420.709 238.193C420.205 237.198 419.55 235.905 418.762 234.35L419.104 234.348C418.423 235.85 417.628 237.632 416.574 239.523C415.519 241.406 414.176 243.411 412.33 245.118L411.844 245.568L411.894 244.908C411.897 244.875 411.899 244.84 411.902 244.804C412.278 239.642 412.886 234.993 413.435 231.648C413.708 229.975 413.959 228.627 414.151 227.699C414.343 226.771 414.47 226.262 414.505 226.268C414.541 226.275 414.481 226.796 414.351 227.733C414.208 228.766 414.022 230.1 413.8 231.702C413.345 235.054 412.797 239.695 412.422 244.841C412.419 244.876 412.417 244.912 412.414 244.945L411.978 244.735C413.765 243.082 415.092 241.132 416.154 239.285C417.215 237.43 418.04 235.67 418.76 234.188L418.937 233.825L419.102 234.186C419.829 235.771 420.433 237.089 420.897 238.103C421.311 239.032 421.523 239.554 421.49 239.57Z" fill="#263238"/>
<path d="M454.34 223.953C454.354 223.965 454.254 224.105 454.052 224.361C453.807 224.66 453.51 225.024 453.15 225.464C452.35 226.408 451.178 227.763 449.675 229.388C446.682 232.648 442.366 236.995 437.267 241.431C434.953 243.448 432.68 245.311 430.561 246.963L430.175 247.264L430.167 246.777C430.102 242.949 429.379 239.653 428.612 237.205L428.86 237.298C427.288 238.201 426.011 238.933 425.056 239.482C424.164 239.982 423.673 240.239 423.657 240.211C423.64 240.183 424.1 239.873 424.962 239.324C425.897 238.743 427.147 237.965 428.686 237.007L428.865 236.896L428.935 237.1C429.773 239.552 430.558 242.882 430.655 246.767L430.261 246.581C432.361 244.916 434.619 243.05 436.926 241.039C442.009 236.616 446.352 232.325 449.407 229.136C450.941 227.546 452.153 226.232 452.998 225.33C453.387 224.916 453.709 224.573 453.973 224.292C454.201 224.058 454.327 223.941 454.34 223.953Z" fill="#263238"/>
<path d="M452.464 218.188L454.57 175.181C455.908 161.716 449.187 149.713 435.689 148.749L434.437 148.732C421.832 148.568 411.21 158.107 410.034 170.658C408.939 182.336 407.879 195.252 407.875 201.525C407.867 214.51 420.826 216.698 420.826 216.698C420.855 216.7 420.478 224.583 420.264 228.388L422.981 238.292L452.464 218.188Z" fill="#FFBF9D"/>
<path d="M420.85 216.732C420.85 216.732 429.027 217.319 437.82 211.954C437.82 211.954 433.626 221.662 420.686 220.324L420.85 216.732Z" fill="#FF9A6C"/>
<path d="M413.902 182.524C413.854 183.503 414.644 184.35 415.665 184.418C416.684 184.486 417.551 183.75 417.598 182.771C417.646 181.792 416.856 180.944 415.837 180.876C414.816 180.808 413.949 181.545 413.902 182.524Z" fill="#263238"/>
<path d="M412.744 175.983C412.971 176.228 414.389 175.206 416.384 175.238C418.377 175.24 419.828 176.286 420.048 176.044C420.156 175.938 419.927 175.498 419.296 175.025C418.674 174.555 417.61 174.091 416.367 174.08C415.124 174.071 414.073 174.514 413.466 174.975C412.845 175.439 412.631 175.874 412.744 175.983Z" fill="#263238"/>
<path d="M431.305 182.908C431.258 183.887 432.047 184.734 433.068 184.802C434.087 184.87 434.954 184.134 435.001 183.155C435.048 182.176 434.258 181.329 433.239 181.26C432.218 181.191 431.352 181.929 431.305 182.908Z" fill="#263238"/>
<path d="M432.296 176.7C432.523 176.945 433.943 175.924 435.937 175.955C437.93 175.958 439.381 177.003 439.601 176.761C439.708 176.654 439.482 176.215 438.848 175.743C438.227 175.272 437.162 174.809 435.919 174.798C434.676 174.789 433.625 175.233 433.017 175.693C432.399 176.156 432.185 176.591 432.296 176.7Z" fill="#263238"/>
<path d="M424.937 191.938C424.948 191.824 423.71 191.594 421.704 191.311C421.195 191.252 420.714 191.145 420.633 190.796C420.518 190.427 420.738 189.88 420.993 189.29C421.488 188.063 422.006 186.778 422.55 185.43C424.714 179.934 426.288 175.412 426.066 175.326C425.843 175.241 423.909 179.627 421.745 185.123C421.224 186.479 420.725 187.771 420.251 189.007C420.051 189.584 419.711 190.236 419.961 191.003C420.093 191.386 420.464 191.667 420.789 191.759C421.115 191.863 421.401 191.872 421.653 191.891C423.674 192.026 424.928 192.051 424.937 191.938Z" fill="#263238"/>
<path d="M431.73 170.451C431.994 170.964 433.937 170.454 436.295 170.433C438.653 170.366 440.613 170.803 440.858 170.281C440.965 170.032 440.574 169.568 439.749 169.145C438.932 168.722 437.671 168.382 436.257 168.407C434.844 168.435 433.596 168.821 432.795 169.274C431.987 169.728 431.613 170.207 431.73 170.451Z" fill="#263238"/>
<path d="M412.727 170.116C413.129 170.581 414.766 170.156 416.72 170.188C418.674 170.163 420.318 170.593 420.712 170.13C420.885 169.905 420.638 169.443 419.927 168.994C419.227 168.547 418.045 168.164 416.703 168.161C415.36 168.159 414.186 168.537 413.494 168.982C412.79 169.429 412.551 169.89 412.727 170.116Z" fill="#263238"/>
<path d="M453.408 184.336C453.63 184.243 462.363 181.813 461.964 190.686C461.565 199.558 452.74 197.328 452.736 197.073C452.732 196.817 453.408 184.336 453.408 184.336Z" fill="#FFBF9D"/>
<path d="M455.599 193.833C455.639 193.806 455.749 193.948 456.005 194.08C456.254 194.208 456.689 194.308 457.159 194.155C458.112 193.853 458.968 192.401 459.083 190.803C459.142 189.997 459.007 189.22 458.75 188.571C458.508 187.91 458.109 187.437 457.641 187.332C457.176 187.202 456.83 187.47 456.71 187.715C456.58 187.958 456.629 188.137 456.581 188.151C456.555 188.172 456.397 187.994 456.485 187.63C456.53 187.455 456.643 187.251 456.859 187.09C457.079 186.926 457.397 186.852 457.724 186.902C458.406 186.98 458.994 187.637 459.277 188.35C459.598 189.068 459.768 189.941 459.701 190.847C459.564 192.632 458.574 194.264 457.274 194.577C456.642 194.712 456.13 194.5 455.871 194.279C455.606 194.048 455.568 193.848 455.599 193.833Z" fill="#FF9A6C"/>
<path d="M392.793 157.574C392.956 157.058 393.355 156.644 393.833 156.389C394.875 155.832 396.043 155.962 397.175 155.993C399.993 156.069 402.816 155.468 405.381 154.303C404.525 153.822 403.731 153.248 403.066 152.525C401.693 151.032 400.963 148.806 401.702 146.918C401.841 146.564 402.066 146.196 402.435 146.099C403.019 145.947 403.499 146.534 403.882 147.001C405.14 148.534 406.334 149.221 408.313 149.106C409.543 149.035 410.74 148.811 411.729 148.253C411.769 148.215 411.805 148.172 411.846 148.134C412.328 147.678 412.798 147.242 413.261 146.821C413.262 146.819 413.264 146.817 413.264 146.817L413.263 146.819C416.743 143.652 419.713 141.481 422.719 140.418C427.126 138.86 434.401 138.465 438.868 139.843C443.334 141.222 447.233 145.061 447.662 149.716C450.287 147.683 454.09 147.864 457.122 149.237L457.201 149.206C460.584 150.578 462.38 154.292 463.244 157.84C463.291 158.034 463.331 158.23 463.375 158.425C464.457 160.316 465.969 161.962 467.805 163.139C468.129 163.347 468.499 163.6 468.523 163.984C468.547 164.364 468.213 164.665 467.894 164.873C467.045 165.428 466.069 165.774 465.064 165.909C465.342 166.755 465.676 167.58 466.099 168.372C466.459 169.045 466.886 169.852 466.518 170.521C466.233 171.038 465.553 171.227 464.973 171.117C464.393 171.006 463.89 170.661 463.405 170.324C463.749 171.258 464.093 172.192 464.436 173.126C463.184 173.289 461.901 173.134 460.709 172.716C459.838 175.961 459.029 182.006 458.09 184.191C455.733 184.131 455.172 183.85 453.967 184.194C452.409 184.638 452.878 187.383 450.912 186.524C449.911 186.087 448.514 182.161 448.218 181.11C446.253 174.132 445.82 166.73 446.945 159.569C445.587 157.991 443.922 156.677 442.072 155.723L442.22 155.868C438.646 154.452 434.596 153.036 431.08 154.592C428.353 155.799 426.664 158.502 424.573 160.627C420.609 164.655 416.231 166.708 410.58 166.708C409.903 170.604 409.478 177.003 409.129 180.651L406.322 173.2L406.318 173.23C406.084 172.791 405.895 172.349 405.712 171.908L405.648 171.774L405.649 171.757C405.359 171.048 405.085 170.339 404.71 169.633C404.698 169.643 404.686 169.653 404.674 169.663C402.618 171.325 399.815 168.529 401.468 166.466C401.796 166.057 402.183 165.696 402.62 165.404C401.678 166.215 400.311 166.564 399.14 166.148C397.969 165.732 397.099 164.492 397.256 163.259C397.363 162.417 397.999 161.688 398.776 161.387C397.171 161.442 395.55 161.023 394.189 160.167C393.294 159.608 392.434 158.711 392.793 157.574Z" fill="#263238"/>
<path d="M443.509 151.032C443.482 151.064 444.038 151.399 444.761 152.279C445.476 153.155 446.256 154.66 446.569 156.676C446.73 157.678 446.811 158.795 446.759 159.99C446.713 161.186 446.562 162.463 446.412 163.808C446.267 165.154 446.109 166.576 446.132 168.063C446.144 168.805 446.2 169.562 446.329 170.322C446.461 171.069 446.62 171.88 447.152 172.54C447.575 173.078 448.309 173.339 448.958 173.235C449.612 173.148 450.204 172.827 450.647 172.374C451.525 171.435 451.786 170.207 452.04 169.126L451.766 169.147C452.169 170.146 452.585 171.133 453.229 171.935C453.862 172.741 454.762 173.295 455.697 173.419C456.162 173.481 456.636 173.427 457.046 173.242C457.464 173.061 457.776 172.734 457.995 172.385C458.205 172.029 458.323 171.633 458.32 171.246C458.315 170.86 458.18 170.488 457.946 170.218L457.803 170.335C458.756 171.519 459.786 172.177 460.503 172.548C460.865 172.734 461.156 172.848 461.353 172.921C461.552 172.989 461.656 173.019 461.66 173.011C461.663 173.002 461.564 172.957 461.373 172.873C461.183 172.785 460.901 172.657 460.551 172.46C459.857 172.067 458.861 171.394 457.95 170.221L457.807 170.338C458.224 170.82 458.214 171.634 457.811 172.271C457.608 172.585 457.322 172.876 456.954 173.029C456.589 173.189 456.157 173.236 455.732 173.175C454.875 173.053 454.035 172.533 453.443 171.767C452.836 171.001 452.434 170.04 452.036 169.04L451.867 168.616L451.762 169.062C451.508 170.142 451.235 171.319 450.435 172.165C450.039 172.571 449.496 172.86 448.924 172.935C448.35 173.021 447.758 172.807 447.388 172.346C446.923 171.775 446.757 171.006 446.629 170.271C446.503 169.53 446.446 168.788 446.432 168.058C446.406 166.596 446.556 165.183 446.693 163.838C446.835 162.493 446.977 161.21 447.013 159.998C447.054 158.787 446.96 157.654 446.783 156.638C446.438 154.595 445.611 153.07 444.854 152.202C444.088 151.331 443.509 151.032 443.509 151.032Z" fill="#455A64"/>
<path d="M402.793 161.942C402.79 161.946 402.824 161.977 402.894 162.035C402.979 162.103 403.082 162.185 403.208 162.285C403.345 162.397 403.52 162.529 403.743 162.661C403.962 162.799 404.21 162.967 404.515 163.111C405.696 163.736 407.606 164.388 410.031 164.35C412.432 164.318 415.344 163.593 417.993 161.793C420.668 160.039 423.063 157.388 425.06 154.321C426.072 152.789 426.911 151.21 427.823 149.758C428.73 148.304 429.72 146.967 430.895 145.929C432.056 144.884 433.385 144.132 434.734 143.818C435.407 143.649 436.079 143.633 436.717 143.675C437.356 143.736 437.957 143.892 438.509 144.099C439.612 144.523 440.489 145.18 441.147 145.846C441.807 146.517 442.239 147.215 442.531 147.81C443.07 149.029 443.07 149.797 443.117 149.786C443.123 149.786 443.121 149.739 443.113 149.649C443.101 149.54 443.086 149.409 443.069 149.249C443.02 148.898 442.892 148.388 442.639 147.761C442.359 147.148 441.933 146.426 441.27 145.728C440.609 145.036 439.721 144.349 438.589 143.9C438.023 143.679 437.403 143.512 436.741 143.442C436.081 143.391 435.375 143.403 434.679 143.573C433.277 143.887 431.903 144.656 430.71 145.72C429.502 146.778 428.489 148.137 427.572 149.6C426.649 151.062 425.809 152.638 424.806 154.155C422.824 157.199 420.464 159.82 417.839 161.559C415.238 163.345 412.394 164.074 410.028 164.135C407.643 164.2 405.754 163.591 404.57 163.005C403.375 162.412 402.818 161.907 402.793 161.942Z" fill="#455A64"/>
<path d="M401.856 156.185C401.844 156.203 402.005 156.324 402.307 156.529C402.606 156.74 403.067 157.004 403.657 157.289C404.244 157.579 404.976 157.858 405.81 158.1C406.647 158.327 407.587 158.51 408.586 158.59C409.586 158.659 410.543 158.619 411.405 158.52C412.265 158.404 413.03 158.239 413.655 158.04C414.28 157.846 414.775 157.654 415.102 157.49C415.432 157.332 415.609 157.236 415.6 157.217C415.577 157.164 414.844 157.503 413.596 157.833C412.974 158.003 412.218 158.144 411.373 158.242C410.526 158.324 409.589 158.355 408.609 158.287C407.63 158.208 406.708 158.038 405.883 157.83C405.062 157.607 404.335 157.354 403.746 157.094C402.561 156.581 401.887 156.137 401.856 156.185Z" fill="#455A64"/>
<path d="M424.794 198.008C424.915 197.693 426.964 198.615 429.21 197.519C431.459 196.428 432.217 194.141 432.51 194.255C432.651 194.285 432.688 194.921 432.297 195.854C431.919 196.772 431.032 197.961 429.658 198.631C428.283 199.297 426.886 199.219 426.014 198.909C425.123 198.601 424.719 198.143 424.794 198.008Z" fill="#263238"/>
<path d="M406.844 388.317C406.844 387.687 413.798 342.53 416.484 336.771C418.613 332.207 435.674 328.646 453.95 321.271C473.626 313.332 496.439 312.78 496.439 312.78L467.561 379.441L406.844 388.317Z" fill="#D34733"/>
<path d="M417.067 292.548L400.402 293.785V309.729L419.235 311.977L417.067 292.548Z" fill="#FFBF9D"/>
<path d="M469.918 230.075C478.144 233.462 485.779 240.76 485.281 250.218C484.542 264.24 481.253 294.327 480.49 302.081C479.495 312.197 476.068 320.724 461.181 321.283C446.294 321.842 424.378 318.225 424.378 318.225C424.378 318.225 416.487 322.218 414.312 317.827C413.735 316.662 409.82 293.088 409.82 293.088C409.82 292.774 411.751 290.532 414.512 289.149C417.64 287.583 421.452 288.781 423.181 291.823L452.212 290.875L457.963 263.569" fill="#455A64"/>
<path d="M457.963 263.567C457.963 263.567 457.945 263.728 457.887 264.04C457.823 264.368 457.734 264.827 457.618 265.425C457.367 266.662 457.003 268.461 456.531 270.791C455.559 275.49 454.147 282.317 452.371 290.906L452.345 291.03L452.218 291.034C446.264 291.241 439.411 291.478 431.822 291.742C429.924 291.807 427.98 291.873 425.992 291.941C425.495 291.958 424.995 291.975 424.493 291.992L423.737 292.018L423.358 292.031L423.263 292.034L423.215 292.036L423.191 292.037C423.229 292.063 422.816 291.826 422.988 291.921L422.982 291.911L422.883 291.756C422.366 290.923 421.665 290.182 420.807 289.661C419.114 288.594 416.847 288.353 414.94 289.208C413.984 289.63 413.073 290.223 412.227 290.885C411.803 291.218 411.394 291.576 411.009 291.957C410.819 292.149 410.63 292.345 410.456 292.55C410.367 292.652 410.286 292.756 410.206 292.861C410.14 292.939 410.044 293.134 410.054 293.086L410.051 293.048C410.973 298.526 411.952 304.285 413.028 310.25C413.307 311.739 413.587 313.241 413.871 314.756C414.023 315.509 414.169 316.272 414.348 317.018C414.439 317.41 414.502 317.713 414.738 318.018C414.846 318.163 414.915 318.341 415.052 318.46L415.448 318.831C416.623 319.722 418.284 319.743 419.792 319.474C421.324 319.213 422.839 318.666 424.262 317.995L424.34 317.958L424.42 317.971C430.32 318.903 436.551 319.692 442.904 320.291C447.302 320.695 451.658 320.984 455.955 321.059C460.24 321.11 464.521 321.083 468.478 319.873C470.441 319.251 472.281 318.319 473.849 317.063C475.415 315.806 476.687 314.218 477.582 312.456C479.378 308.91 479.988 304.979 480.339 301.188C481.928 285.947 483.371 272.227 484.35 260.683C484.597 257.798 484.81 255.048 484.983 252.446C485.073 251.143 485.151 249.879 485.126 248.665C485.103 248.058 485.013 247.463 484.961 246.876C484.856 246.297 484.726 245.731 484.612 245.172C484.026 242.963 483.037 241.042 481.912 239.441C480.786 237.835 479.543 236.53 478.36 235.435C475.942 233.29 473.752 232.015 472.251 231.222C471.503 230.814 470.908 230.552 470.512 230.368C470.116 230.183 469.918 230.076 469.918 230.076C469.918 230.076 470.13 230.15 470.533 230.32C470.937 230.488 471.54 230.735 472.298 231.13C473.819 231.896 476.036 233.148 478.494 235.285C479.697 236.377 480.963 237.683 482.114 239.3C483.265 240.911 484.282 242.854 484.892 245.098C485.012 245.666 485.147 246.241 485.257 246.831C485.313 247.429 485.408 248.034 485.435 248.653C485.468 249.899 485.395 251.165 485.311 252.467C485.151 255.073 484.95 257.826 484.715 260.714C483.782 272.266 482.376 285.996 480.814 301.236C480.466 305.038 479.862 309.036 478.021 312.685C477.103 314.5 475.786 316.151 474.165 317.455C472.541 318.758 470.64 319.721 468.629 320.36C464.573 321.602 460.238 321.626 455.945 321.577C451.63 321.503 447.262 321.214 442.855 320.809C436.487 320.209 430.253 319.417 424.335 318.479L424.493 318.455C423.008 319.153 421.48 319.704 419.876 319.978C418.313 320.249 416.514 320.268 415.132 319.23L414.672 318.797C414.516 318.655 414.431 318.457 414.309 318.289C414.054 317.975 413.933 317.499 413.855 317.136C413.672 316.37 413.528 315.61 413.376 314.852C413.094 313.334 412.814 311.829 412.537 310.338C411.468 304.368 410.498 298.607 409.587 293.125L409.582 293.095L409.584 293.086C409.65 292.761 409.744 292.737 409.828 292.584C409.917 292.468 410.006 292.353 410.1 292.246C410.285 292.028 410.482 291.825 410.68 291.626C411.08 291.231 411.502 290.864 411.94 290.521C412.819 289.838 413.744 289.236 414.759 288.789C416.809 287.877 419.236 288.141 421.041 289.286C421.955 289.847 422.703 290.64 423.252 291.53L423.357 291.696L423.364 291.706C423.541 291.806 423.13 291.582 423.177 291.604L423.201 291.603L423.248 291.602L423.343 291.599L423.722 291.587L424.477 291.563C424.979 291.547 425.479 291.532 425.976 291.516C427.964 291.454 429.908 291.394 431.806 291.335C439.396 291.103 446.25 290.893 452.205 290.711L452.052 290.839C453.891 282.263 455.352 275.446 456.358 270.755C456.866 268.432 457.258 266.639 457.528 265.406C457.663 264.812 457.766 264.356 457.841 264.03C457.914 263.722 457.963 263.567 457.963 263.567Z" fill="#263238"/>
<path d="M468.164 232.36C468.227 232.425 467.138 233.456 465.665 235.36C464.943 236.322 464.114 237.489 463.304 238.855C462.502 240.225 461.706 241.781 460.994 243.469C459.588 246.859 458.82 250.111 458.436 252.486C458.041 254.862 457.961 256.359 457.86 256.353C457.824 256.351 457.819 255.976 457.841 255.298C457.846 254.618 457.93 253.64 458.072 252.433C458.366 250.024 459.087 246.709 460.513 243.269C461.236 241.556 462.057 239.983 462.893 238.607C463.738 237.235 464.61 236.073 465.377 235.13C466.164 234.201 466.848 233.493 467.345 233.029C467.85 232.572 468.14 232.334 468.164 232.36Z" fill="#263238"/>
<path d="M464.722 303.08C464.629 303.101 464.411 302.082 463.739 300.57C463.075 299.059 461.86 297.088 460.035 295.347C458.201 293.614 456.169 292.504 454.625 291.92C453.079 291.328 452.051 291.164 452.067 291.07C452.072 291.035 452.332 291.051 452.801 291.112C453.271 291.162 453.942 291.316 454.748 291.574C455.559 291.825 456.488 292.236 457.467 292.787C458.434 293.358 459.444 294.082 460.393 294.971C461.329 295.871 462.105 296.842 462.726 297.778C463.327 298.728 463.786 299.634 464.079 300.43C464.379 301.222 464.567 301.884 464.642 302.351C464.728 302.814 464.758 303.073 464.722 303.08Z" fill="#263238"/>
<path d="M424.608 317.388C424.525 317.363 424.927 315.957 425.255 313.623C425.6 311.295 425.855 308.04 425.771 304.451C425.726 302.655 425.567 300.953 425.367 299.412C425.125 297.88 424.864 296.502 424.516 295.383C423.87 293.124 423.091 291.872 423.181 291.821C423.212 291.802 423.413 292.107 423.754 292.682C423.939 292.963 424.1 293.337 424.291 293.771C424.498 294.2 424.688 294.704 424.867 295.273C425.266 296.399 425.569 297.79 425.841 299.341C426.069 300.898 426.245 302.622 426.291 304.437C426.376 308.065 426.06 311.348 425.618 313.683C425.405 314.852 425.166 315.786 424.975 316.422C424.771 317.055 424.643 317.399 424.608 317.388Z" fill="#263238"/>
<path d="M311.416 257.267C311.416 257.267 312.552 254.561 314.798 254C314.798 254 325.957 256.967 329.214 260.561C329.214 260.561 329.864 258.019 335.86 252.918C343.36 246.537 351.728 246.537 351.728 246.537L357.662 250.265L333.886 266.915L326.816 269.386L311.416 257.267Z" fill="#FAFAFA"/>
<path d="M311.416 257.266C311.426 257.263 311.528 257.334 311.718 257.473C311.93 257.632 312.203 257.837 312.546 258.095C313.291 258.666 314.337 259.467 315.667 260.486C318.369 262.582 322.218 265.568 326.938 269.229L326.75 269.199C328.911 268.435 331.293 267.594 333.812 266.704L333.758 266.732C340.558 261.957 348.621 256.295 357.242 250.241L357.513 250.052L357.524 250.486C355.509 249.219 353.525 247.971 351.592 246.756L351.729 246.796C346.595 247.054 341.803 248.947 338.045 251.553C336.169 252.872 334.501 254.367 332.997 255.862C332.244 256.61 331.55 257.382 330.923 258.168C330.311 258.948 329.719 259.787 329.411 260.612L329.291 260.933L329.064 260.698C327.897 259.49 326.445 258.682 325.094 257.98C323.728 257.285 322.397 256.726 321.149 256.244C318.653 255.278 316.488 254.599 314.771 254.103H314.824C313.324 254.517 312.539 255.584 312.071 256.213C311.836 256.546 311.679 256.814 311.577 256.996C311.474 257.178 311.426 257.266 311.416 257.266C311.406 257.266 311.441 257.157 311.527 256.968C311.614 256.777 311.756 256.497 311.98 256.149C312.429 255.494 313.187 254.373 314.772 253.896L314.796 253.889L314.825 253.897C316.561 254.359 318.74 255.005 321.261 255.945C322.522 256.414 323.867 256.962 325.256 257.652C326.633 258.354 328.109 259.147 329.363 260.423L329.017 260.509C329.375 259.522 329.96 258.725 330.586 257.903C331.221 257.095 331.921 256.308 332.678 255.547C334.193 254.026 335.858 252.516 337.77 251.159C341.601 248.49 346.425 246.552 351.727 246.278L351.796 246.274L351.865 246.317C353.799 247.531 355.784 248.777 357.8 250.043L358.132 250.252L357.81 250.477L357.539 250.667C348.902 256.699 340.824 262.34 334.012 267.097L333.986 267.115L333.957 267.125C331.432 267.998 329.045 268.823 326.879 269.572L326.775 269.608L326.691 269.541C321.989 265.788 318.155 262.727 315.463 260.578C314.173 259.535 313.157 258.714 312.434 258.129C312.113 257.864 311.857 257.653 311.659 257.489C311.49 257.344 311.407 257.269 311.416 257.266Z" fill="#263238"/>
<path d="M307.498 256.807L308.172 255.459L324.906 264.781C324.906 264.781 330.409 264.444 330.521 260.738C330.521 260.738 357.924 249.283 358.598 249.62C359.272 249.957 403.184 286.457 403.184 286.457L363.539 294.909L345.12 286.794L307.498 256.807Z" fill="#D34733"/>
<path d="M358.468 292.674C358.376 292.785 350.788 286.63 341.521 278.928C332.251 271.224 324.813 264.891 324.905 264.78C324.997 264.669 332.584 270.823 341.854 278.527C351.121 286.229 358.56 292.564 358.468 292.674Z" fill="#263238"/>
<path d="M369.126 293.532C369.033 293.641 360.393 286.432 349.831 277.432C339.265 268.428 330.779 261.043 330.872 260.934C330.965 260.825 339.603 268.032 350.169 277.036C360.731 286.035 369.22 293.422 369.126 293.532Z" fill="#263238"/>
<path d="M330.752 272.26C330.636 272.256 326.902 271.902 326.005 273.529C325.109 275.155 325.009 276.052 325.374 277.014C325.739 277.977 327.532 280.034 327.532 280.034L328.13 281.163C328.13 281.163 326.935 283.586 327.532 285.578C328.13 287.57 329.955 288.765 329.955 288.765C329.955 288.765 330.254 293.644 333.208 293.677C333.208 293.677 333.971 296.432 336.693 296.366C339.415 296.3 340.776 296.997 343.796 295.437C346.817 293.877 350.316 292.317 351.089 290.757C351.862 289.197 349.171 289.031 349.171 289.031C349.171 289.031 350.635 285.015 345.921 285.546C345.921 285.546 346.452 281.397 343.431 280.899C340.41 280.401 334.27 280.766 334.27 280.766L331.847 277.845C331.847 277.845 333.606 277.347 333.706 275.787C333.805 274.226 332.151 272.31 330.752 272.26Z" fill="#FFBF9D"/>
<path d="M392.361 288.111C392.059 288.212 388.428 289.825 386.008 289.523C383.588 289.221 364.831 278.934 362.108 278.128C359.385 277.321 354.746 278.128 358.074 281.658C361.402 285.188 371.688 290.936 371.89 291.238C372.092 291.541 372.495 293.19 372.495 293.19L362.007 289.221C362.007 289.221 354.343 285.389 353.133 287.708C351.923 290.027 353.738 291.338 355.654 291.944C357.57 292.549 359.688 293.19 359.688 293.19C359.688 293.19 361.907 297.289 364.125 298.902C366.344 300.516 376.428 306.97 378.143 307.676C379.857 308.382 400.531 309.995 400.934 309.693C401.337 309.39 400.934 294.264 400.934 294.264L393.673 287.709L392.361 288.111Z" fill="#FFBF9D"/>
</svg>
