<svg width="1262" height="1744" viewBox="0 0 1262 1744" fill="none" xmlns="http://www.w3.org/2000/svg">
<path d="M1032.99 741.213C1032.99 741.213 937.758 931.724 841.023 1063.23C802.534 1115.57 763.803 1158.56 730.749 1176.49C698.393 1194.03 671.002 1221.29 648.336 1251.49C589.634 1329.7 562.543 1427.61 562.543 1427.61L315.182 1053.39C315.182 1053.39 323.623 687.573 353.323 626.382C396.61 537.211 417.52 357.041 434.15 321.172C446.487 294.563 481.717 157.114 485.096 147.014C486.563 142.661 498.286 135.988 513.509 136C525.726 136 546.467 147.808 551.698 172.073C578.151 294.72 546.311 375.618 546.672 379.213C556.003 473.471 527.95 543.439 547.622 561.968C548.356 562.654 549.714 562.329 551.639 561.102C585.739 539.206 797.389 230.642 823.457 223.98C850.99 216.959 1032.99 741.213 1032.99 741.213Z" fill="#EFA26F"/>
<path d="M636.96 1353.55C636.96 1353.55 633.592 1519.85 623.947 1743.83H0C142.623 1439.69 266.616 1183.71 266.616 1183.71C266.616 1183.71 621.884 1194.56 636.96 1353.55Z" fill="#F99746"/>
<path d="M1249.26 96.4562L1172.66 208.752L1097.49 318.955C1092.91 324.485 1087.6 326.407 1081.86 325.854C1063.82 324.142 1041.51 298.125 1024.11 283.722L1022.35 282.273C999.411 263.3 996.172 229.015 1015.15 206.092L1130.04 67.2132V67.2002L1164.11 26.0152C1183.08 3.07921 1217.37 -0.159784 1240.29 18.8132L1242.06 20.2612C1264.99 39.2352 1268.23 73.5202 1249.26 96.4562Z" fill="#FFB27D"/>
<path d="M1172.66 208.752L1097.49 318.955C1092.91 324.485 1087.6 326.407 1081.86 325.854L1130.04 67.2129C1130.14 68.6619 1138.33 184.71 1172.66 208.752Z" fill="#EFA26F"/>
<path d="M841.023 1063.23C802.534 1115.57 763.803 1158.56 730.749 1176.49C698.393 1194.03 671.002 1221.29 648.336 1251.49C622.265 1239.34 592.547 1225.08 563.499 1210.96C528.127 1193.77 526.77 1143.55 561.416 1124.93C561.754 1124.75 562.086 1124.57 562.411 1124.38C594.876 1105.81 628.143 1040.21 628.143 1040.21L841.023 1063.23Z" fill="#D38254"/>
<path d="M483.372 152.705L463.33 233.62C463.33 233.62 480.851 240.788 492.103 235.223C503.355 229.657 512.536 157.061 483.372 152.705Z" fill="#FFC197"/>
<path d="M1059.75 1101.47H628.775C586.383 1101.47 551.699 1066.78 551.699 1024.39V77.077C551.699 34.685 586.384 0 628.775 0H1059.75C1102.15 0 1136.83 34.685 1136.83 77.077V1024.39C1136.83 1066.78 1102.15 1101.47 1059.75 1101.47Z" fill="#2B478B"/>
<path d="M1107.83 84.3728V1009.73C1107.83 1041.12 1082.33 1066.8 1051.18 1066.8H637.35C606.197 1066.8 580.705 1041.12 580.705 1009.73V84.3728C580.705 52.9798 606.197 27.3018 637.35 27.3018H1051.18C1082.33 27.3008 1107.83 52.9788 1107.83 84.3728Z" fill="white"/>
<path d="M930.746 61.7141H757.789C743.701 61.7141 732.174 50.1871 732.174 36.0981V32.0711C732.174 17.9821 743.701 6.45508 757.789 6.45508H930.746C944.834 6.45508 956.361 17.9821 956.361 32.0711V36.0981C956.362 50.1861 944.834 61.7141 930.746 61.7141Z" fill="#2B478B"/>
<path d="M1211.13 520.526L1199.7 524.867L1122.89 554.058C1121.09 554.742 1119.26 555.326 1117.44 555.783C1092.01 562.394 1064.94 548.835 1055.41 523.736L1054.28 520.786C1044.06 493.887 1057.7 463.514 1084.6 453.293L1156.21 426.083L1161.42 424.102L1172.84 419.761C1199.74 409.54 1230.1 423.183 1240.32 450.083L1241.45 453.033C1251.67 479.932 1238.03 510.306 1211.13 520.526Z" fill="#FFB27D"/>
<path d="M1148.75 522.288C1135.93 527.146 1112.72 535.767 1100.3 537.55C1096.79 538.056 1090.32 536.146 1084.28 529.533C1080.66 525.573 1077.19 519.929 1074.62 512.108C1073.42 508.429 1072.42 504.765 1072 500.987C1071.52 496.564 1071.65 492.141 1072.42 487.76C1073.12 483.815 1075.82 480.22 1079.75 478.325C1079.76 478.311 1079.79 478.311 1079.8 478.297C1093 471.992 1110.79 464.312 1126.39 460.029C1137.18 457.052 1148.09 461.812 1151.5 471.248L1153.11 475.657L1161.35 498.235C1164.77 507.616 1159.22 518.343 1148.75 522.288Z" fill="#FFD3B6"/>
<path d="M1148.75 522.288C1135.93 527.146 1112.72 535.767 1100.3 537.55C1096.79 538.056 1090.32 536.146 1084.28 529.533C1083.64 528.031 1083.05 526.444 1082.49 524.745C1081.28 521.066 1080.28 517.402 1079.86 513.624C1079.38 509.201 1079.51 504.778 1080.28 500.397C1080.98 496.452 1083.68 492.857 1087.61 490.961C1087.63 490.947 1087.65 490.947 1087.67 490.933C1100.87 484.629 1118.66 476.948 1134.26 472.666C1141.16 470.756 1148.11 472.02 1153.11 475.656L1161.35 498.234C1164.77 507.616 1159.22 518.343 1148.75 522.288Z" fill="#FFC197"/>
<path d="M1176.27 628.522L1117.03 644.649C1099.03 649.549 1080.3 638.832 1075.4 620.832L1073.57 614.127C1068.67 596.127 1079.39 577.391 1097.39 572.49L1156.63 556.363C1174.63 551.463 1193.36 562.18 1198.26 580.18L1200.09 586.885C1204.99 604.885 1194.27 623.622 1176.27 628.522Z" fill="#FFB27D"/>
<path d="M1144.24 625.616C1133.36 628.523 1113.69 633.648 1103.38 634.209C1099.63 634.42 1092.12 631.246 1087.22 621.39C1086.01 619.003 1084.99 616.237 1084.19 613.036C1083.47 610.13 1082.92 607.251 1082.87 604.33C1082.8 600.89 1083.23 597.506 1084.19 594.193C1085.04 591.202 1087.53 588.618 1090.88 587.425C1090.91 587.411 1090.93 587.411 1090.94 587.397C1102.23 583.409 1117.39 578.649 1130.51 576.361C1139.56 574.774 1148.16 579.127 1150.28 586.596L1151.81 591.932L1156.37 607.952C1158.48 615.366 1153.13 623.257 1144.24 625.616Z" fill="#FFD3B6"/>
<path d="M1144.24 625.616C1133.36 628.523 1113.68 633.648 1103.38 634.209C1099.63 634.42 1092.12 631.246 1087.22 621.39C1086.56 618.68 1086.08 615.97 1086.03 613.218C1085.96 609.792 1086.39 606.394 1087.34 603.08C1088.2 600.103 1090.69 597.506 1094.04 596.312C1094.07 596.298 1094.08 596.298 1094.1 596.284C1105.39 592.297 1120.55 587.536 1133.67 585.262C1141.16 583.942 1148.35 586.708 1151.81 591.931L1156.37 607.951C1158.48 615.366 1153.13 623.257 1144.24 625.616Z" fill="#FFC197"/>
<path d="M205.873 1309.88C205.873 1309.88 327.801 1426.66 409.996 1471.75L472.229 1427.61V1492.72C472.229 1492.72 594.62 1514.37 633.225 1492.72V1315.15L289.462 1142.82L205.873 1309.88Z" fill="#ED7D2B"/>
<path d="M315.187 1040.21C315.187 1040.21 237.757 1156.05 160.803 1279.9C160.803 1279.9 322.98 1391.46 410.905 1424.19L526.234 1292.1L509.771 1451.1C509.771 1451.1 611.835 1488.3 659.189 1478.59C659.189 1478.59 656.198 1334.35 656.231 1239.84C656.231 1239.84 375.656 1161.2 315.187 1040.21Z" fill="#F3F8FF"/>
<path d="M334.231 1334.17C334.329 1323.57 343.003 1315.05 353.605 1315.15C364.207 1315.25 372.722 1323.92 372.624 1334.53C372.526 1345.13 363.852 1353.64 353.25 1353.54C342.648 1353.45 334.133 1344.77 334.231 1334.17Z" fill="#F99746"/>
<path d="M1209.26 406.998C1208.84 407.153 1208.42 407.293 1207.98 407.433L1130.32 427.371C1096.17 436.147 1060.86 417.669 1051.84 386.315L1047.23 370.252C1038.56 340.148 1057.18 308.669 1088.91 298.461L1114.55 291.876L1166.57 278.523C1200.72 269.748 1236.03 288.226 1245.05 319.579L1249.67 335.642C1258.2 365.339 1240.2 396.355 1209.26 406.998Z" fill="#FFB27D"/>
<path d="M1173.67 385.319L1135.94 402.322C1135.88 402.336 1135.81 402.35 1135.7 402.378C1134.19 402.785 1132.66 403.094 1131.14 403.318C1130.51 403.417 1129.86 403.487 1129.23 403.557C1128.96 403.585 1128.7 403.585 1128.43 403.571C1124.27 403.43 1121.42 399.022 1123.22 395.09C1126.79 387.325 1127.76 378.339 1125.35 369.507L1124.46 366.222C1124.46 366.194 1124.44 366.152 1124.43 366.123L1121.51 355.41C1119.19 346.873 1114.26 339.726 1107.83 334.559C1107.06 333.927 1106.26 333.337 1105.44 332.776C1097.99 327.609 1099.88 315.913 1108.62 313.483C1108.7 313.455 1108.77 313.441 1108.86 313.413L1150.26 307.151C1160.5 304.371 1170.36 312.248 1173.15 322.484L1176.48 334.686L1183.55 360.704C1186.33 370.955 1183.91 382.539 1173.67 385.319Z" fill="#FFD3B6"/>
<path d="M1173.67 385.319L1135.94 402.322C1135.88 402.336 1135.81 402.35 1135.7 402.378C1134.82 402.546 1132.05 403.01 1128.43 403.571C1124.27 403.43 1121.42 399.022 1123.22 395.09C1126.79 387.325 1127.76 378.339 1125.35 369.507L1124.46 366.222C1124.46 366.194 1124.44 366.152 1124.43 366.123L1121.51 355.41C1119.19 346.873 1114.26 339.726 1107.83 334.559C1109.17 332.607 1111.16 331.063 1113.77 330.332C1113.84 330.304 1113.93 330.29 1114.01 330.262L1155.42 323.999C1164.04 321.654 1172.38 326.878 1176.48 334.685L1183.55 360.703C1186.33 370.955 1183.91 382.539 1173.67 385.319Z" fill="#FFC197"/>
<path d="M551.697 810.953C551.697 810.953 534.755 663.056 519.123 634.222C503.492 605.376 490.265 547.624 514.313 504.71C538.361 461.784 546.67 379.213 546.67 379.213C556.001 473.471 527.948 543.439 547.62 561.968C548.354 562.654 549.712 562.329 551.637 561.102L551.697 810.953Z" fill="#D38254"/>
</svg>
