<svg width="346" height="701" viewBox="0 0 346 701" fill="none" xmlns="http://www.w3.org/2000/svg">
<path d="M301.691 700H40.308C18.599 700 1 682.401 1 660.692V40.308C1 18.599 18.599 1 40.308 1H301.692C323.401 1 341 18.599 341 40.308V660.692C340.999 682.401 323.401 700 301.691 700Z" fill="white" stroke="#333333" stroke-width="2" stroke-miterlimit="10"/>
<path d="M300.033 695.574H41.965C21.549 695.574 4.99902 679.024 4.99902 658.608V42.3918C4.99902 21.9758 21.549 5.42578 41.965 5.42578H300.033C320.449 5.42578 336.999 21.9758 336.999 42.3918V658.609C336.999 679.024 320.449 695.574 300.033 695.574Z" fill="white" stroke="#333333" stroke-width="2" stroke-miterlimit="10"/>
<path d="M293.429 684H48.57C30.858 684 16.499 669.641 16.499 651.929V49.071C16.499 31.359 30.857 17 48.57 17H293.429C311.141 17 325.5 31.358 325.5 49.071V651.93C325.499 669.641 311.141 684 293.429 684Z" fill="white" stroke="#333333" stroke-width="2" stroke-miterlimit="10"/>
<path d="M341.124 168.492V216.894H341.671C343.775 216.894 345.48 215.189 345.48 213.085V172.301C345.48 170.197 343.775 168.492 341.671 168.492H341.124Z" fill="white" stroke="#333333" stroke-miterlimit="10"/>
<path d="M341.124 264.492V363.894H341.188C343.558 363.894 345.48 361.972 345.48 359.602V268.784C345.48 266.414 343.558 264.492 341.188 264.492H341.124Z" fill="white" stroke="#333333" stroke-miterlimit="10"/>
<path d="M38.124 48.894C44.1992 48.894 49.124 43.9692 49.124 37.894C49.124 31.8189 44.1992 26.894 38.124 26.894C32.0489 26.894 27.124 31.8189 27.124 37.894C27.124 43.9692 32.0489 48.894 38.124 48.894Z" fill="white" stroke="#333333" stroke-width="2" stroke-miterlimit="10"/>
<path d="M38.124 43.394C41.1616 43.394 43.624 40.9316 43.624 37.894C43.624 34.8565 41.1616 32.394 38.124 32.394C35.0865 32.394 32.624 34.8565 32.624 37.894C32.624 40.9316 35.0865 43.394 38.124 43.394Z" fill="white" stroke="#333333" stroke-miterlimit="10"/>
<path d="M38.124 46.394C42.8184 46.394 46.624 42.5885 46.624 37.894C46.624 33.1996 42.8184 29.394 38.124 29.394C33.4296 29.394 29.624 33.1996 29.624 37.894C29.624 42.5885 33.4296 46.394 38.124 46.394Z" fill="white" stroke="#333333" stroke-miterlimit="10"/>
<path d="M38.1242 41.1942C39.9467 41.1942 41.4242 39.7168 41.4242 37.8943C41.4242 36.0717 39.9467 34.5942 38.1242 34.5942C36.3017 34.5942 34.8242 36.0717 34.8242 37.8943C34.8242 39.7168 36.3017 41.1942 38.1242 41.1942Z" fill="white" stroke="#333333" stroke-miterlimit="10"/>
</svg>
