<svg width="1064" height="2147" viewBox="0 0 1064 2147" fill="none" xmlns="http://www.w3.org/2000/svg">
<path d="M1047.37 339.5H1045.35V127.36C1045.35 57.021 988.329 0 917.99 0H146.009C75.67 0 18.649 57.021 18.649 127.36V339.5H16.627C7.44398 339.5 0 346.944 0 356.127V502.872C0 512.055 7.44398 519.5 16.627 519.5H18.649V554.5H16.627C7.44398 554.5 0 561.944 0 571.127V717.872C0 727.055 7.44398 734.499 16.627 734.499H18.649V2019.64C18.649 2089.98 75.67 2147 146.009 2147H917.99C988.329 2147 1045.35 2089.98 1045.35 2019.64V609.5H1047.37C1056.55 609.5 1064 602.056 1064 592.872V356.127C1064 346.944 1056.56 339.5 1047.37 339.5Z" fill="#333343"/>
<path d="M904.845 2115.5H159.153C102.023 2115.5 55.709 2069.19 55.709 2012.06V134.944C55.709 77.814 102.023 31.5 159.153 31.5H904.844C961.975 31.5 1008.29 77.814 1008.29 134.944V2012.05C1008.29 2069.19 961.975 2115.5 904.845 2115.5Z" fill="white"/>
</svg>
