<svg width="567" height="635" viewBox="0 0 567 635" fill="none" xmlns="http://www.w3.org/2000/svg">
<g clip-path="url(#clip0_43_1791)">
<path opacity="0.2" d="M147.978 123.437L22 634.832H483L313.367 135.843L147.978 123.437Z" fill="#D34733"/>
<path d="M310.974 12.553C310.974 5.61947 274.903 0 230.407 0C186.187 0 150.303 5.55208 149.861 12.4255H149.84L139.568 158.148H321.198L310.974 12.553Z" fill="#D34733"/>
<path d="M321.198 158.148C321.198 161.614 280.538 164.425 230.382 164.425C180.227 164.425 139.568 161.615 139.568 158.148C139.568 154.68 180.227 151.871 230.382 151.871C280.538 151.871 321.198 154.682 321.198 158.148Z" fill="#D34733"/>
<path d="M186.99 630.11L225.987 620.947H228.187H230.387L272.396 630.476C272.396 630.476 272.066 632.341 274.441 633.119V634.831H183.979V632.964C183.979 632.964 186.334 632.496 186.889 630.888L186.99 630.11Z" fill="#263238"/>
<path d="M209.994 275.241C209.783 275.241 209.613 247.634 209.613 213.587C209.613 179.528 209.785 151.926 209.994 151.926C210.205 151.926 210.375 179.527 210.375 213.587C210.375 247.634 210.205 275.241 209.994 275.241Z" fill="#263238"/>
<path d="M213.198 277.343C213.198 279.161 211.763 280.635 209.992 280.635C208.223 280.635 206.787 279.161 206.787 277.343C206.787 275.525 208.221 274.052 209.992 274.052C211.763 274.052 213.198 275.525 213.198 277.343Z" fill="#D34733"/>
<path opacity="0.4" d="M321.198 158.148C321.198 161.614 280.538 164.425 230.382 164.425C180.227 164.425 139.568 161.615 139.568 158.148C139.568 154.68 180.227 151.871 230.382 151.871C280.538 151.871 321.198 154.682 321.198 158.148Z" fill="white"/>
<path d="M230.386 151.871H225.986V621.663H230.386V151.871Z" fill="#263238"/>
<path d="M321.198 158.148C321.175 158.154 321.189 157.973 320.967 157.76C320.751 157.548 320.34 157.327 319.774 157.119C318.636 156.702 316.878 156.314 314.596 155.947C310.028 155.213 303.351 154.562 295.089 154.016C278.559 152.924 255.669 152.255 230.389 152.253C205.1 152.253 182.207 152.924 165.677 154.016C157.413 154.562 150.738 155.213 146.17 155.947C143.888 156.314 142.13 156.702 140.991 157.119C140.425 157.327 140.014 157.548 139.799 157.76C139.576 157.973 139.592 158.154 139.568 158.148C139.566 158.159 139.519 157.958 139.742 157.707C139.954 157.461 140.369 157.211 140.936 156.975C142.076 156.505 143.836 156.068 146.119 155.654C150.689 154.826 157.369 154.093 165.637 153.477C182.176 152.246 205.082 151.49 230.386 151.49C255.681 151.49 278.585 152.248 295.124 153.477C303.392 154.092 310.072 154.826 314.644 155.654C316.928 156.068 318.689 156.505 319.829 156.975C320.395 157.209 320.81 157.46 321.022 157.707C321.245 157.958 321.2 158.159 321.198 158.148Z" fill="#263238"/>
<path opacity="0.4" d="M230.386 189.133L225.986 178.724V151.871H230.386V189.133Z" fill="white"/>
<path opacity="0.1" d="M234.243 627.53H204.132C203.922 627.53 203.887 627.222 204.091 627.173L224.707 622.144C224.72 622.141 224.733 622.139 224.748 622.139H229.956C230.005 622.139 230.052 622.16 230.086 622.198L234.447 627.055C234.61 627.237 234.484 627.53 234.243 627.53Z" fill="white"/>
<path d="M274.502 633.012C274.502 633.223 254.363 633.393 229.526 633.393C204.68 633.393 184.545 633.223 184.545 633.012C184.545 632.801 204.679 632.631 229.526 632.631C254.363 632.631 274.502 632.801 274.502 633.012Z" fill="#455A64"/>
<path d="M230.383 620.884C230.383 621.095 229.393 621.265 228.171 621.265C226.949 621.265 225.959 621.093 225.959 620.884C225.959 620.673 226.949 620.503 228.171 620.503C229.393 620.503 230.383 620.673 230.383 620.884Z" fill="#455A64"/>
<path d="M27.8574 515.01C27.8574 515.018 27.9354 515.029 28.0874 515.042C28.2674 515.055 28.4884 515.071 28.7624 515.09C29.3544 515.141 30.2324 515.134 31.3494 515.295C33.5854 515.522 36.8274 516.061 40.6174 517.425C44.4014 518.777 48.7424 520.909 53.0394 524.052C55.1854 525.621 57.3344 527.411 59.4084 529.429C61.4704 531.46 63.4564 533.711 65.2954 536.168C67.1474 538.618 68.7954 541.132 70.3034 543.609C71.8294 546.075 73.1864 548.525 74.4604 550.866C76.9754 555.569 79.0424 559.909 80.6924 563.59C82.3364 567.274 83.5834 570.294 84.3994 572.397C84.7974 573.422 85.1124 574.231 85.3414 574.82C85.4434 575.075 85.5264 575.281 85.5934 575.448C85.6524 575.589 85.6864 575.659 85.6944 575.657C85.7024 575.654 85.6834 575.578 85.6384 575.432C85.5834 575.261 85.5144 575.049 85.4294 574.788C85.2364 574.226 84.9684 573.39 84.5694 572.333C83.8044 570.207 82.6024 567.164 80.9944 563.456C79.3804 559.752 77.3404 555.388 74.8404 550.662C73.5734 548.308 72.2204 545.848 70.6944 543.369C69.1864 540.88 67.5334 538.353 65.6694 535.886C63.8164 533.411 61.8114 531.141 59.7294 529.1C57.6344 527.07 55.4624 525.273 53.2924 523.701C48.9474 520.553 44.5534 518.433 40.7264 517.111C36.8934 515.776 33.6194 515.284 31.3674 515.112C30.2424 514.978 29.3604 515.015 28.7654 514.994C28.4904 514.993 28.2684 514.993 28.0884 514.992C27.9354 514.997 27.8574 515.002 27.8574 515.01Z" fill="#263238"/>
<path d="M101.412 474.857C101.404 474.854 101.362 474.935 101.287 475.095C101.205 475.277 101.098 475.513 100.963 475.811C100.677 476.47 100.274 477.399 99.7599 478.583C99.1879 479.773 98.7469 481.304 98.1509 483.059C97.8769 483.942 97.5109 484.87 97.2579 485.885C96.9979 486.899 96.7239 487.97 96.4359 489.094C95.7969 491.333 95.4039 493.838 94.8579 496.506C94.5699 497.839 94.4319 499.237 94.2029 500.667C94.0139 502.102 93.7339 503.571 93.6049 505.091C92.8829 511.156 92.4869 517.854 92.3039 524.887C92.1909 531.924 92.3499 538.628 92.6629 544.717C93.0169 550.805 93.4619 556.281 93.9959 560.867C94.2499 563.161 94.4929 565.234 94.7629 567.05C95.0189 568.867 95.2219 570.433 95.4529 571.706C95.6689 572.959 95.8379 573.942 95.9579 574.64C96.0169 574.957 96.0649 575.208 96.1009 575.401C96.1359 575.572 96.1579 575.659 96.1659 575.658C96.1739 575.657 96.1679 575.568 96.1489 575.395C96.1239 575.2 96.0919 574.947 96.0519 574.628C95.9529 573.928 95.8129 572.942 95.6339 571.685C95.4309 570.41 95.2549 568.841 95.0239 567.024C94.7789 565.208 94.5589 563.134 94.3269 560.84C93.8359 556.255 93.4249 550.783 93.0949 544.701C92.8069 538.617 92.6609 531.922 92.7739 524.896C92.9569 517.874 93.3389 511.187 94.0359 505.132C94.1589 503.613 94.4319 502.148 94.6139 500.716C94.8359 499.288 94.9659 497.891 95.2439 496.56C95.7719 493.896 96.1449 491.393 96.7619 489.157C97.0379 488.034 97.3009 486.963 97.5499 485.95C97.7899 484.935 98.1439 484.008 98.4049 483.124C98.9749 481.368 99.3889 479.833 99.9339 478.638C100.412 477.445 100.787 476.508 101.053 475.844C101.17 475.54 101.262 475.298 101.333 475.113C101.392 474.946 101.419 474.86 101.412 474.857Z" fill="#263238"/>
<path d="M89.4598 575.658C89.4668 575.661 89.5188 575.539 89.6118 575.296C89.7108 575.031 89.8458 574.671 90.0178 574.21C90.1168 573.712 90.2678 573.097 90.3798 572.362C90.4338 571.621 90.5618 570.765 90.5308 569.798C90.6168 565.918 89.6258 560.379 88.0508 553.676C87.2838 550.316 86.3148 546.667 85.6888 542.672C85.5108 541.673 85.3288 540.657 85.1448 539.624C84.9368 538.597 84.7258 537.555 84.5118 536.496C84.0958 534.376 83.6018 532.211 83.1278 529.982C81.1798 521.08 78.9168 511.322 76.5248 501.084C71.7198 480.617 67.3698 462.092 64.2148 448.656C62.6808 441.939 61.4408 436.503 60.6648 432.73C60.2508 430.848 59.9778 429.379 59.7888 428.382C59.6928 427.901 59.6188 427.526 59.5638 427.25C59.5108 426.995 59.4788 426.865 59.4708 426.867C59.4628 426.868 59.4778 427.001 59.5158 427.258C59.5598 427.536 59.6188 427.914 59.6948 428.398C59.8538 429.4 60.0978 430.878 60.4858 432.766C61.2078 436.553 62.3988 442.002 63.8918 448.729C66.8998 462.18 71.2688 480.712 76.0688 501.19C78.4608 511.427 80.7358 521.181 82.7058 530.074C83.1848 532.3 83.6858 534.464 84.1078 536.579C84.3258 537.635 84.5398 538.676 84.7518 539.7C84.9398 540.727 85.1248 541.739 85.3058 542.733C85.9518 546.746 86.9418 550.401 87.7288 553.75C89.3438 560.437 90.3798 565.943 90.3488 569.796C90.3938 570.758 90.2798 571.605 90.2418 572.343C90.1448 573.073 90.0098 573.685 89.9268 574.184C89.7738 574.648 89.6548 575.01 89.5678 575.276C89.4898 575.526 89.4528 575.655 89.4598 575.658Z" fill="#263238"/>
<path d="M87.867 575.658C87.883 575.658 87.888 575.457 87.881 575.076C87.873 574.695 87.849 574.133 87.797 573.411C87.696 571.966 87.471 569.88 87.12 567.31C86.447 562.168 85.164 555.102 84.341 547.252C83.948 543.328 83.749 539.57 84.011 536.172C84.147 534.476 84.405 532.869 84.871 531.415C85.336 529.967 86.035 528.663 87.05 527.729C88.071 526.803 89.396 526.336 90.586 526.271C91.78 526.181 92.819 526.353 93.642 526.525C95.289 526.901 96.145 527.267 96.166 527.224C96.173 527.212 95.961 527.121 95.55 526.96C95.346 526.875 95.088 526.783 94.776 526.687C94.469 526.58 94.106 526.476 93.69 526.377C92.863 526.181 91.809 525.98 90.564 526.052C89.326 526.096 87.899 526.572 86.808 527.539C85.724 528.51 84.988 529.855 84.496 531.328C84.004 532.808 83.729 534.435 83.579 536.146C83.291 539.574 83.478 543.349 83.873 547.285C84.698 555.156 86.034 562.215 86.79 567.343C87.182 569.906 87.457 571.984 87.614 573.422C87.685 574.112 87.742 574.663 87.786 575.08C87.823 575.46 87.851 575.659 87.867 575.658Z" fill="#263238"/>
<path d="M118.199 477.099C115.695 478.221 113.441 479.914 110.812 480.699C110.25 480.867 109.461 480.882 109.274 480.326C109.133 479.907 109.471 479.49 109.788 479.183C114.17 474.933 119.903 472.113 125.928 471.16C122.417 467.504 118.427 464.236 113.883 463.235C112.461 464.001 111.147 465.007 109.959 466.103C107.732 468.158 105.844 470.551 103.676 472.667C103.367 472.969 103.042 473.271 102.64 473.43C102.238 473.588 101.739 473.572 101.421 473.28C101.11 472.994 101.047 472.513 101.157 472.105C101.268 471.697 101.523 471.346 101.777 471.01C104.011 468.053 106.601 465.365 109.47 463.019C106.713 463.356 103.773 464.595 100.636 467.079C100.636 467.079 95.8917 471.605 96.2427 480.233C96.2427 480.233 82.1717 481.576 82.2997 495.245C82.3587 501.529 86.0367 506.338 91.3647 509.848C90.9767 503.739 92.3007 497.527 95.1637 492.116C95.5187 491.444 96.1677 490.676 96.8787 490.945C97.2807 491.097 97.4987 491.554 97.5057 491.984C97.5117 492.414 97.3497 492.826 97.1927 493.226C95.8707 496.602 94.7547 500.089 94.3517 503.692C94.0457 506.424 94.1677 509.235 94.8927 511.876C99.6007 514.239 105.091 515.805 110.378 516.664C107.557 513.087 105.169 509.095 104.051 504.685C102.884 500.082 103.215 494.97 105.665 490.902C106.261 489.913 107.251 488.883 108.376 489.143C109.164 489.325 109.688 490.119 109.822 490.916C109.956 491.714 109.784 492.527 109.641 493.324C108.174 501.518 109.973 510.232 114.467 517.228C117.261 517.582 119.628 517.838 121.695 517.909C120.278 515.429 118.921 512.912 117.877 510.257C116.561 506.909 115.751 503.304 116.036 499.719C116.087 499.079 116.18 498.419 116.52 497.875C116.86 497.331 117.508 496.932 118.136 497.066C118.891 497.228 119.299 498.033 119.566 498.757C120.893 502.359 121.346 506.222 122.446 509.9C123.292 512.728 124.63 515.555 126.721 517.572C130.626 516.753 133.722 514.589 137.269 509.512C138.473 507.789 139.498 506.276 139.65 504.129C139.446 501.456 136.232 499.597 133.664 498.828C131.096 498.059 128.338 498.042 125.807 497.159C124.954 496.862 123.985 496.203 124.149 495.315C124.279 494.609 125.058 494.247 125.748 494.05C128.874 493.162 132.302 493.378 135.291 494.653C137.096 495.423 138.732 496.578 140.081 498.003C139.996 495.407 139.495 492.75 138.669 490.159C132.318 487.113 124.865 486.389 118.059 488.226C117.085 488.489 116.077 488.804 115.086 488.616C114.095 488.428 113.153 487.523 113.329 486.53C113.525 485.426 114.832 484.97 115.927 484.727C120.06 483.812 124.076 483.978 128.301 484.225C132.092 484.446 134.789 485.064 137.039 485.996C135.632 482.971 133.815 480.148 131.755 477.759C131.31 477.242 130.854 476.709 130.389 476.165C126.382 475.069 121.994 475.398 118.199 477.099ZM95.8497 483.464C96.0827 483.33 96.7277 483.093 96.9947 483.12C97.3637 483.158 97.6177 483.55 97.6177 483.921C97.6177 484.292 97.4257 484.635 97.2087 484.936C96.7377 485.588 96.1197 486.135 95.4137 486.522C95.1387 486.673 94.8237 486.803 94.5177 486.735C93.9917 486.618 93.7527 485.949 93.9017 485.43C94.0507 484.912 94.4637 484.519 94.8597 484.153C94.8597 484.153 95.0607 483.919 95.8497 483.464Z" fill="#455A64"/>
<path d="M135.907 511.534C135.918 511.526 135.819 511.378 135.622 511.103C135.428 510.826 135.125 510.429 134.728 509.924C133.93 508.916 132.712 507.508 131.115 505.855C129.518 504.202 127.535 502.318 125.31 500.256C123.094 498.185 120.604 495.952 117.881 493.745C112.431 489.327 107.132 485.807 103.202 483.435C101.241 482.241 99.6199 481.333 98.4949 480.714C97.9549 480.428 97.5219 480.198 97.1889 480.021C96.8889 479.867 96.7279 479.79 96.7209 479.802C96.7149 479.813 96.8629 479.913 97.1509 480.089C97.4739 480.281 97.8959 480.532 98.4209 480.844C99.5219 481.502 101.12 482.444 103.06 483.666C106.947 486.093 112.206 489.637 117.64 494.043C120.356 496.245 122.842 498.459 125.071 500.516C127.309 502.563 129.306 504.422 130.922 506.045C132.539 507.668 133.782 509.043 134.613 510.019C135.005 510.487 135.32 510.862 135.561 511.15C135.778 511.41 135.897 511.542 135.907 511.534Z" fill="#263238"/>
<path d="M113.559 490.623C113.533 490.62 113.465 491.014 113.366 491.73C113.266 492.445 113.131 493.481 112.99 494.765C112.731 497.327 112.349 500.914 112.822 504.864C113.102 506.83 113.466 508.667 113.907 510.331C114.352 511.991 114.959 513.433 115.605 514.563C116.259 515.689 116.912 516.52 117.394 517.06C117.628 517.337 117.834 517.53 117.966 517.667C118.101 517.801 118.177 517.867 118.187 517.858C118.26 517.801 117.081 516.679 115.841 514.432C115.236 513.304 114.668 511.883 114.248 510.241C113.832 508.602 113.477 506.75 113.202 504.817C112.735 500.928 113.07 497.355 113.26 494.792C113.363 493.559 113.449 492.535 113.515 491.747C113.567 491.025 113.585 490.625 113.559 490.623Z" fill="#263238"/>
<path d="M124.39 490.256C124.387 490.155 122.208 490.163 119.557 490.555C116.907 490.947 114.806 491.486 114.826 491.581C114.848 491.693 116.98 491.321 119.612 490.933C122.243 490.544 124.395 490.366 124.39 490.256Z" fill="#263238"/>
<path d="M116.813 480.036C116.793 479.99 116.183 480.205 115.232 480.635C114.281 481.065 112.994 481.723 111.636 482.559C110.278 483.396 109.112 484.25 108.3 484.906C107.488 485.562 107.022 486.011 107.054 486.049C107.127 486.14 109.142 484.54 111.837 482.884C114.526 481.223 116.862 480.142 116.813 480.036Z" fill="#263238"/>
<path d="M105.22 484.856C105.203 484.84 104.947 485.08 104.525 485.55C104.102 486.02 103.527 486.736 102.903 487.682C101.646 489.561 100.305 492.47 99.7205 495.892C99.1105 499.316 99.4155 502.501 99.9355 504.698C100.191 505.802 100.476 506.674 100.703 507.264C100.931 507.854 101.084 508.168 101.105 508.16C101.173 508.136 100.639 506.84 100.199 504.642C99.7525 502.456 99.4965 499.323 100.096 495.959C100.672 492.588 101.947 489.72 103.13 487.826C104.309 485.921 105.277 484.904 105.22 484.856Z" fill="#263238"/>
<path d="M114.796 470.564C114.782 470.542 114.562 470.658 114.177 470.889C113.79 471.116 113.246 471.473 112.59 471.936C111.278 472.861 109.542 474.26 107.824 476.015C106.109 477.773 104.75 479.542 103.856 480.875C103.408 481.542 103.064 482.093 102.846 482.485C102.625 482.876 102.513 483.098 102.536 483.112C102.587 483.144 103.13 482.315 104.077 481.031C105.023 479.747 106.4 478.023 108.098 476.282C109.799 474.545 111.49 473.128 112.752 472.153C114.013 471.177 114.829 470.615 114.796 470.564Z" fill="#263238"/>
<path d="M85.2283 496.494C85.2933 496.505 85.4613 495.313 86.0453 493.48C86.6283 491.655 87.7413 489.199 89.5963 486.926C91.4353 484.635 93.6253 483.072 95.2903 482.111C96.0663 481.648 96.7243 481.257 97.2583 480.938C97.7203 480.656 97.9713 480.49 97.9573 480.466C97.9453 480.444 97.6713 480.566 97.1863 480.808C96.7023 481.051 96.0063 481.411 95.1553 481.877C93.4463 482.783 91.1733 484.349 89.2993 486.686C87.4073 489.004 86.3103 491.531 85.7863 493.401C85.5173 494.338 85.3663 495.113 85.2973 495.652C85.2233 496.191 85.2003 496.49 85.2283 496.494Z" fill="#263238"/>
<path d="M101.264 471.183C101.194 471.112 99.7298 472.897 98.8458 475.551C98.3958 476.866 98.1448 478.102 98.0278 479.001C97.9098 479.901 97.9098 480.463 97.9578 480.468C98.0788 480.484 98.3168 478.258 99.2068 475.675C100.07 473.08 101.357 471.246 101.264 471.183Z" fill="#263238"/>
<path d="M7.488 533.327C10.911 530.447 14.957 528.414 19.038 526.582C21.034 525.686 23.048 524.831 25.08 524.018C25.977 523.659 25.925 522.361 24.998 522.087C22.025 521.208 18.503 522.081 15.504 523.282C9.86 525.541 4.607 528.757 0 532.723C0.307 530.219 1.111 527.815 2.294 525.157C4.229 520.811 7.465 515.749 11.878 512.013C12.051 512.023 12.224 512.032 12.396 512.045C16.159 512.327 19.889 513.221 23.658 513.054C24.126 513.033 24.614 512.99 25.015 512.747C25.416 512.505 25.699 512.004 25.547 511.561C25.389 511.102 24.868 510.897 24.403 510.756C21.616 509.912 18.726 509.412 15.818 509.252C19.261 507.318 23.234 506.259 27.702 506.726C40.56 508.068 39.516 515.023 39.516 515.023C39.909 514.634 47.306 508.572 58.109 515.614C65.587 520.489 68.383 526.071 68.258 531.648C67.344 530.846 66.405 530.072 65.476 529.318C62.252 526.698 59.007 524.064 55.367 522.063C51.727 520.062 47.632 518.709 43.481 518.86C42.812 518.884 42.05 519.001 41.683 519.561C41.299 520.147 41.558 520.975 42.066 521.456C42.574 521.937 43.267 522.16 43.93 522.386C53.118 525.526 61.027 532.214 65.729 540.701C64.233 543.727 61.659 548.155 58.098 552.767C56.521 548.21 54.853 543.658 52.33 539.556C49.564 535.058 45.645 531.083 40.702 529.225C40.015 528.967 39.268 528.749 38.556 528.925C37.086 529.289 36.498 531.216 36.997 532.645C37.496 534.075 38.719 535.108 39.871 536.091C43.583 539.263 47.11 542.706 49.881 546.725C52.031 549.844 53.711 553.338 54.551 557.019C52.478 559.318 50.166 561.569 47.625 563.624C44.538 556.764 40.24 550.449 34.978 545.072C34.407 544.488 33.698 543.87 32.888 543.978C31.99 544.099 31.442 545.122 31.518 546.025C31.594 546.928 32.119 547.724 32.635 548.469C35.227 552.21 38.06 555.871 39.656 560.134C40.625 562.722 41.062 565.616 40.68 568.329C35.762 571.043 30.224 572.835 24.115 572.981C24.115 572.981 20.764 571.756 16.406 567.744C17.978 562.219 20.36 556.924 23.458 552.087C23.87 551.444 24.313 550.678 24.048 549.962C23.723 549.083 22.466 548.893 21.653 549.359C20.839 549.825 20.371 550.705 19.945 551.541C17.73 555.879 15.516 560.217 13.301 564.555C11.679 562.702 10.001 560.465 8.361 557.796C10.622 549.452 16.123 542.022 23.463 537.45C24.202 536.99 24.985 536.533 25.47 535.81C25.955 535.087 26.033 534.002 25.391 533.414C24.704 532.785 23.616 533.009 22.745 533.338C17.646 535.271 13.665 539.506 11.092 544.314C9.198 547.854 7.996 551.703 7.093 555.626C6.887 555.255 6.681 554.881 6.478 554.496C3.836 549.49 2.074 545.502 1.036 542.087C2.31 538.677 4.684 535.686 7.488 533.327Z" fill="#455A64"/>
<path d="M24.1144 572.983C24.1304 572.984 24.1554 572.768 24.1864 572.355C24.2144 571.895 24.2514 571.296 24.2964 570.55C24.3804 568.929 24.4964 566.677 24.6384 563.916C24.8224 561.122 25.0974 557.792 25.7844 554.159C26.1274 552.349 26.6164 550.456 26.9934 548.468C27.3864 546.485 27.7414 544.424 28.1134 542.316C28.8504 538.101 29.6114 534.096 30.6664 530.552C31.7154 527.009 33.0394 523.935 34.4424 521.522C35.8434 519.106 37.2764 517.338 38.3514 516.205C39.4274 515.07 40.1024 514.521 40.0694 514.482C40.0594 514.47 39.8864 514.601 39.5664 514.864C39.2384 515.118 38.7884 515.531 38.2214 516.078C37.0984 517.18 35.6104 518.934 34.1584 521.354C32.7044 523.771 31.3354 526.863 30.2554 530.428C29.1684 533.994 28.3914 538.017 27.6544 542.235C27.2824 544.343 26.9314 546.402 26.5454 548.38C26.1764 550.36 25.6994 552.243 25.3634 554.08C24.6944 557.745 24.4534 561.094 24.3114 563.898C24.1814 566.704 24.1464 568.975 24.1174 570.544C24.1084 571.291 24.1004 571.891 24.0944 572.351C24.0914 572.765 24.0984 572.983 24.1144 572.983Z" fill="#263238"/>
<path d="M29.6792 532.702C29.6562 532.72 29.8972 533.079 30.3782 533.694C30.8572 534.311 31.5892 535.172 32.5332 536.199C34.4122 538.264 37.2022 540.925 40.2682 543.857C43.3472 546.774 45.8682 549.675 47.3752 552.001C48.9022 554.315 49.5122 555.939 49.5952 555.902C49.6202 555.892 49.4952 555.478 49.1912 554.757C48.8932 554.034 48.3872 553.017 47.6542 551.823C46.2022 549.423 43.6832 546.447 40.5932 543.52C37.5202 540.581 34.7052 537.969 32.7732 535.971C31.8032 534.977 31.0372 534.154 30.5172 533.576C29.9962 533 29.7072 532.68 29.6792 532.702Z" fill="#263238"/>
<path d="M9.8634 536.004C9.9344 536.061 10.8004 534.936 12.4744 533.401C13.3054 532.627 14.3664 531.787 15.6024 530.94C16.8524 530.115 18.2854 529.295 19.8644 528.591C21.4524 527.904 23.0254 527.403 24.4784 527.041C25.9384 526.704 27.2754 526.491 28.4074 526.402C30.6704 526.208 32.0854 526.331 32.0904 526.24C32.0934 526.208 31.7424 526.16 31.1024 526.102C30.7824 526.068 30.3904 526.039 29.9334 526.045C29.4774 526.045 28.9564 526.021 28.3824 526.072C27.2324 526.119 25.8694 526.301 24.3794 526.621C22.8964 526.966 21.2894 527.463 19.6744 528.163C18.0664 528.88 16.6144 529.726 15.3574 530.585C14.1144 531.466 13.0584 532.347 12.2464 533.162C11.8214 533.55 11.4864 533.95 11.1774 534.286C10.8644 534.619 10.6204 534.927 10.4294 535.186C10.0404 535.693 9.8384 535.984 9.8634 536.004Z" fill="#263238"/>
<path d="M53.7109 533.204C53.7319 533.18 53.5089 532.945 53.0869 532.541C52.6649 532.137 52.0439 531.565 51.2609 530.873C49.6929 529.498 47.4799 527.62 44.7599 525.922C42.0399 524.221 39.2989 523.147 37.2469 522.69C36.2219 522.454 35.3779 522.34 34.7929 522.3C34.2079 522.259 33.8829 522.27 33.8809 522.299C33.8729 522.382 35.1669 522.463 37.1659 523.011C39.1649 523.543 41.8309 524.643 44.5139 526.32C47.1979 527.996 49.4289 529.818 51.0489 531.126C52.6619 532.443 53.6669 533.256 53.7109 533.204Z" fill="#263238"/>
<path d="M20.6504 515.725C20.6474 515.893 24.1844 515.616 28.3614 516.633C32.5404 517.643 35.5574 519.511 35.6314 519.36C35.6604 519.313 34.9424 518.799 33.6814 518.135C32.4214 517.474 30.5944 516.695 28.4724 516.178C26.3504 515.666 24.3684 515.52 22.9464 515.53C21.5194 515.542 20.6464 515.67 20.6504 515.725Z" fill="#263238"/>
<path d="M16.9033 462.328C17.0143 463.494 17.1243 464.636 17.2253 465.748C17.6923 470.888 18.9473 476.235 20.9043 481.329C22.3643 477.623 24.7053 473.748 28.7563 469.038C33.2713 463.788 37.6423 458.875 43.4183 455.055C44.9483 454.043 46.9713 453.024 48.4923 454.049C49.8613 454.971 49.8543 457.107 48.9483 458.487C48.0433 459.867 46.5263 460.693 45.1093 461.54C35.2103 467.456 27.5873 477.045 23.9483 487.978C26.0553 491.896 28.6123 495.506 31.5683 498.558C31.4263 495.351 31.9283 492.114 33.0753 489.115C34.9743 484.149 38.6183 479.871 43.2173 477.205C44.2333 476.616 45.5453 476.112 46.5233 476.762C47.7543 477.58 47.4273 479.468 46.8063 480.81C44.9653 484.79 41.8493 488.053 39.8343 491.949C37.8193 495.844 36.3513 501.739 39.2633 505.017C41.9603 507.28 44.9053 507.794 48.3003 508.338C58.3043 509.939 64.3693 508.759 69.7733 505.097C69.7783 500.344 67.9743 495.554 65.6103 491.345C62.5353 485.869 58.5063 480.944 55.7793 475.287C55.2303 474.149 54.7483 472.754 55.4163 471.682C55.9723 470.791 57.1783 470.482 58.2053 470.701C59.2323 470.92 60.1143 471.561 60.9253 472.229C65.4663 475.972 68.7853 481.024 71.2263 486.378C73.1633 490.626 74.5803 495.083 75.8853 499.57C78.1523 497.058 80.5433 493.984 83.3043 490.295C80.1863 477.053 71.9833 465.029 60.6773 457.437C59.5783 456.699 58.4263 455.977 57.6403 454.912C56.8543 453.847 56.5163 452.328 57.1993 451.194C58.1733 449.576 60.5103 449.582 62.3513 450.006C69.9213 451.75 76.3103 457.173 80.3973 463.78C84.3133 470.11 86.2923 477.458 87.2923 484.844C92.2953 477.649 96.6943 469.411 99.2693 461.187C96.9873 457.331 93.8193 453.99 90.2583 451.244C85.5623 447.622 80.1913 444.969 74.7173 442.685C74.0683 442.414 73.3993 442.136 72.9013 441.64C72.4033 441.144 72.1143 440.367 72.3923 439.722C72.8833 438.58 74.5243 438.691 75.7193 439.037C85.3403 441.823 94.1513 447.329 100.895 454.732C102.825 444.475 101.352 434.681 94.0273 427.466C78.0963 411.772 60.5173 426.794 60.5173 426.794C50.7683 416.569 40.0513 417.003 40.0513 417.003C33.5623 417.868 28.7623 419.917 25.2323 422.777C31.2543 422.071 37.3593 422.081 43.3783 422.816C44.0643 422.899 44.7663 422.998 45.3723 423.332C45.9773 423.665 46.4713 424.288 46.4543 424.979C46.4363 425.685 45.8873 426.291 45.2443 426.584C44.6013 426.876 43.8753 426.914 43.1693 426.935C38.2153 427.078 33.2523 426.578 28.3043 426.861C25.6633 427.012 22.9873 427.414 20.4693 428.215C16.4793 434.697 15.7863 443.106 16.0933 451.393C24.0663 445.39 33.9013 441.854 43.8823 441.533C44.6053 441.51 45.4783 441.587 45.8113 442.228C46.2533 443.079 45.3373 443.991 44.5023 444.461C40.5903 446.661 36.0363 447.387 31.8693 449.056C25.5543 451.581 20.1773 456.368 16.9033 462.328ZM66.7043 429.623C67.5853 429.574 68.5163 429.535 69.2953 429.949C70.0743 430.363 70.5903 431.405 70.1293 432.157C69.8603 432.595 69.3503 432.816 68.8593 432.968C67.6013 433.358 66.2563 433.464 64.9533 433.276C64.3533 433.189 63.7313 433.025 63.2953 432.603C62.8593 432.181 62.6873 431.436 63.0623 430.959C63.3343 430.613 64.3453 430.124 64.7683 430.003C66.2013 429.593 66.7043 429.623 66.7043 429.623Z" fill="#455A64"/>
<path d="M52.2325 509.037C52.2405 509.036 52.2385 508.963 52.2255 508.821C52.2075 508.653 52.1855 508.447 52.1585 508.196C52.0875 507.648 52.0005 506.838 51.8915 505.796C51.6785 503.71 51.4665 500.682 51.3895 496.934C51.3105 493.186 51.3895 488.721 51.5225 483.761C51.6335 478.801 51.8555 473.357 52.3535 467.657C53.3515 456.253 55.1715 446.033 56.7505 438.704C57.5265 435.035 58.2435 432.084 58.7305 430.044C58.9715 429.054 59.1615 428.271 59.3015 427.696C59.3565 427.449 59.4015 427.248 59.4385 427.082C59.4665 426.943 59.4775 426.871 59.4695 426.869C59.4615 426.867 59.4355 426.935 59.3925 427.07C59.3435 427.232 59.2835 427.43 59.2105 427.672C59.0495 428.242 58.8305 429.018 58.5545 429.999C58.0125 432.027 57.2455 434.968 56.4275 438.634C54.7635 445.955 52.8875 456.188 51.8875 467.618C51.3885 473.328 51.1785 478.792 51.0915 483.753C50.9825 488.714 50.9375 493.188 51.0585 496.944C51.1785 500.7 51.4415 503.733 51.7105 505.817C51.8475 506.859 51.9645 507.666 52.0655 508.21C52.1105 508.459 52.1485 508.662 52.1785 508.829C52.2055 508.967 52.2245 509.038 52.2325 509.037Z" fill="#263238"/>
<path d="M53.0514 458.971C53.0414 458.984 53.1604 459.097 53.3964 459.3C53.6764 459.533 54.0214 459.82 54.4424 460.17C55.4134 460.956 56.7284 462.019 58.3294 463.314C61.5704 465.994 66.1614 469.659 70.2134 474.64C72.1784 477.166 73.9484 479.69 75.4034 482.05C76.8554 484.419 77.8794 486.712 78.5124 488.711C79.1314 490.716 79.4224 492.399 79.5724 493.566C79.7234 494.733 79.7814 495.384 79.8204 495.382C79.8364 495.381 79.8394 495.217 79.8304 494.906C79.8144 494.595 79.8174 494.134 79.7524 493.545C79.6574 492.366 79.4144 490.658 78.8284 488.614C78.2284 486.576 77.2194 484.232 75.7724 481.827C74.3174 479.424 72.5664 476.905 70.5774 474.346C66.4784 469.308 61.8334 465.673 58.5344 463.054C56.8684 461.755 55.5014 460.729 54.5534 460.025C54.1114 459.703 53.7484 459.439 53.4534 459.224C53.1994 459.046 53.0614 458.958 53.0514 458.971Z" fill="#263238"/>
<path d="M40.3048 471.296C40.3508 471.346 41.0348 470.782 42.1348 469.872C43.2358 468.962 44.7628 467.715 46.4858 466.383C48.1558 465.12 49.6668 463.978 50.9388 463.017C52.0808 462.157 52.7768 461.607 52.7388 461.553C52.7028 461.501 51.9408 461.955 50.7468 462.747C49.5548 463.54 47.9318 464.675 46.1988 466.013C44.4678 467.351 42.9648 468.645 41.9158 469.623C40.8678 470.601 40.2628 471.251 40.3048 471.296Z" fill="#263238"/>
<path d="M36.9008 450.763C36.9268 450.828 37.9218 450.481 39.5338 449.948C41.1458 449.415 43.3838 448.714 45.8908 448.073C48.3998 447.434 50.6988 446.975 52.3698 446.67C54.0408 446.364 55.0788 446.191 55.0708 446.122C55.0638 446.063 54.0098 446.12 52.3178 446.343C50.6268 446.566 48.3008 446.975 45.7748 447.619C43.2508 448.265 41.0128 449.021 39.4218 449.636C37.8308 450.252 36.8778 450.707 36.9008 450.763Z" fill="#263238"/>
<path d="M55.7539 442.606C55.7529 442.643 56.3219 442.687 57.3439 442.79C58.3659 442.892 59.8419 443.087 61.6339 443.474C65.2149 444.224 70.0529 445.981 74.6809 449.143C79.3289 452.271 82.7229 456.148 84.7779 459.172C85.8159 460.684 86.5639 461.971 87.0539 462.874C87.5439 463.777 87.8059 464.284 87.8389 464.269C87.8539 464.262 87.8059 464.127 87.7019 463.876C87.5939 463.627 87.4469 463.253 87.2159 462.791C86.7729 461.858 86.0639 460.537 85.0519 458.988C83.0499 455.891 79.6519 451.925 74.9419 448.756C70.2619 445.558 65.3309 443.823 61.6999 443.151C59.8819 442.802 58.3889 442.657 57.3569 442.61C56.8419 442.574 56.4399 442.585 56.1679 442.581C55.8979 442.582 55.7549 442.59 55.7539 442.606Z" fill="#263238"/>
<path d="M28.0548 437.617C28.0618 437.648 28.4648 437.593 29.1848 437.466C29.9038 437.333 30.9478 437.158 32.2388 436.964C34.8208 436.573 38.4128 436.186 42.3958 436.161C46.3798 436.143 49.9758 436.492 52.5618 436.855C53.8548 437.036 54.9008 437.2 55.6208 437.325C56.3428 437.445 56.7458 437.496 56.7528 437.464C56.7598 437.432 56.3698 437.321 55.6568 437.146C54.9458 436.966 53.9048 436.751 52.6118 436.528C50.0268 436.079 46.4058 435.675 42.3928 435.693C38.3808 435.718 34.7648 436.161 32.1848 436.637C30.8938 436.874 29.8558 437.1 29.1468 437.288C28.4358 437.47 28.0468 437.586 28.0548 437.617Z" fill="#263238"/>
<path d="M92.1737 432.329C92.1947 432.299 91.8107 431.995 91.0877 431.479C90.7327 431.211 90.2777 430.913 89.7377 430.585C89.2087 430.238 88.5787 429.892 87.8757 429.518C85.0787 428.023 80.8677 426.452 76.0027 426.042C71.1357 425.59 66.7207 426.471 63.7107 427.437C62.1947 427.901 60.9777 428.301 60.1377 428.586C59.2987 428.872 58.8407 429.046 58.8497 429.075C58.8597 429.108 59.3367 428.993 60.1917 428.761C61.1267 428.501 62.3407 428.163 63.8037 427.756C66.8247 426.876 71.1647 426.066 75.9627 426.51C80.7557 426.913 84.9187 428.41 87.7267 429.815C88.4317 430.166 89.0677 430.489 89.6047 430.812C90.1537 431.116 90.6187 431.389 90.9877 431.632C91.7367 432.098 92.1577 432.352 92.1737 432.329Z" fill="#263238"/>
<path d="M44.17 422.406C44.159 422.48 45.056 422.646 46.469 423.036C47.882 423.423 49.801 424.078 51.826 425.024C53.85 425.974 55.593 427.014 56.827 427.809C58.062 428.603 58.806 429.132 58.85 429.075C58.886 429.03 58.212 428.407 57.013 427.535C55.816 426.663 54.077 425.563 52.024 424.6C49.97 423.64 48 423.023 46.549 422.714C45.096 422.402 44.176 422.352 44.17 422.406Z" fill="#263238"/>
<path d="M116.183 567.994C116.183 568.545 120.656 606.221 107.489 621.607C104.755 625.334 101.231 629.343 97.2554 633.512V634.882H84.9434V567.993H116.183V567.994Z" fill="#D34733"/>
<path d="M56.6872 567.994C56.6872 568.545 52.2142 606.221 65.3812 621.607C68.1152 625.334 71.6392 629.343 75.6152 633.512V634.882H87.9272V567.993H56.6872V567.994Z" fill="#D34733"/>
<path d="M75.9102 633.879C75.9102 633.69 80.7312 633.536 86.6782 633.536C92.6262 633.536 97.4472 633.69 97.4472 633.879C97.4472 634.069 92.6272 634.222 86.6782 634.222C80.7322 634.222 75.9102 634.069 75.9102 633.879Z" fill="#263238"/>
<path d="M56.0742 576.962C56.0742 576.772 69.6952 576.619 86.4932 576.619C103.297 576.619 116.915 576.773 116.915 576.962C116.915 577.151 103.297 577.305 86.4932 577.305C69.6952 577.304 56.0742 577.151 56.0742 576.962Z" fill="#263238"/>
<path d="M56.0742 580.258C56.0742 580.069 69.6952 579.915 86.4932 579.915C103.297 579.915 116.915 580.069 116.915 580.258C116.915 580.447 103.297 580.601 86.4932 580.601C69.6952 580.601 56.0742 580.447 56.0742 580.258Z" fill="#263238"/>
<path d="M56.0742 583.493C56.0742 583.303 69.6952 583.15 86.4932 583.15C103.297 583.15 116.915 583.304 116.915 583.493C116.915 583.682 103.297 583.836 86.4932 583.836C69.6952 583.836 56.0742 583.682 56.0742 583.493Z" fill="#263238"/>
<path d="M113.452 549.198C111.123 546.2 108.179 543.818 105.181 541.6C103.714 540.515 102.227 539.462 100.721 538.441C100.056 537.99 100.277 536.901 101.053 536.82C103.544 536.562 106.229 537.876 108.453 539.383C112.638 542.218 116.38 545.799 119.502 549.91C119.603 547.74 119.294 545.573 118.719 543.129C117.778 539.133 115.898 534.319 112.897 530.434C112.758 530.414 112.619 530.394 112.48 530.377C109.443 530.001 106.348 530.148 103.367 529.391C102.997 529.297 102.614 529.181 102.328 528.91C102.042 528.639 101.885 528.169 102.068 527.819C102.257 527.457 102.701 527.367 103.09 527.324C105.427 527.065 107.799 527.113 110.138 527.454C107.662 525.254 104.643 523.708 101.018 523.373C90.5877 522.408 90.4597 528.467 90.4597 528.467C90.2007 528.073 85.1427 521.732 75.5637 525.929C68.9327 528.834 65.9337 533.104 65.2637 537.846C66.1027 537.316 66.9577 536.815 67.8017 536.328C70.7317 534.637 73.6817 532.937 76.8587 531.837C80.0357 530.738 83.4847 530.261 86.7717 531.068C87.3017 531.198 87.8927 531.421 88.1077 531.955C88.3327 532.514 88.0127 533.173 87.5407 533.497C87.0687 533.821 86.4867 533.897 85.9267 533.98C78.1727 535.137 70.9467 539.507 66.0297 545.925C66.8037 548.731 68.2437 552.901 70.4437 557.388C72.3297 553.787 74.2867 550.206 76.8637 547.145C79.6887 543.788 83.3597 541.063 87.5547 540.299C88.1377 540.193 88.7627 540.13 89.3057 540.396C90.4267 540.944 90.6297 542.672 90.0337 543.801C89.4387 544.93 88.3217 545.604 87.2687 546.249C83.8737 548.328 80.5877 550.666 77.8247 553.617C75.6807 555.906 73.8597 558.59 72.6827 561.569C74.0167 563.854 75.5487 566.138 77.2897 568.293C80.6967 562.989 84.9937 558.345 89.9287 554.652C90.4647 554.251 91.1147 553.843 91.7447 554.067C92.4437 554.316 92.7387 555.272 92.5537 556.024C92.3687 556.776 91.8407 557.364 91.3267 557.911C88.7447 560.655 85.9817 563.292 84.1217 566.64C82.9927 568.673 82.2447 571.052 82.1747 573.412C85.7187 576.513 89.8837 578.936 94.7307 580.058C94.7307 580.058 97.5697 579.568 101.596 576.884C101.106 571.949 99.9397 567.077 98.1377 562.475C97.8977 561.863 97.6517 561.143 97.9617 560.579C98.3417 559.888 99.3697 559.932 99.9537 560.46C100.538 560.987 100.79 561.81 101.014 562.586C102.18 566.621 103.345 570.656 104.511 574.69C106.06 573.386 107.706 571.767 109.38 569.774C108.731 562.34 105.373 555.15 100.156 550.08C99.6307 549.569 99.0697 549.055 98.7827 548.363C98.4957 547.671 98.5837 546.741 99.1767 546.347C99.8107 545.927 100.648 546.294 101.295 546.715C105.091 549.185 107.679 553.422 109.064 557.913C110.084 561.219 110.511 564.675 110.689 568.144C110.904 567.864 111.12 567.581 111.335 567.288C114.131 563.481 116.086 560.392 117.385 557.671C116.839 554.574 115.361 551.654 113.452 549.198Z" fill="#455A64"/>
<path d="M94.728 580.057C94.744 580.059 94.783 579.876 94.842 579.525C94.905 579.124 94.984 578.615 95.082 577.988C95.281 576.652 95.572 574.718 95.86 572.317C96.138 569.916 96.411 567.039 96.385 563.83C96.371 562.221 96.253 560.554 96.232 558.821C96.198 557.087 96.203 555.289 96.198 553.446C96.193 549.76 96.128 546.233 95.755 543.045C95.386 539.859 94.726 537.024 93.899 534.74C93.076 532.453 92.127 530.715 91.374 529.588C90.991 529.028 90.685 528.6 90.453 528.328C90.229 528.051 90.105 527.91 90.092 527.92C90.054 527.949 90.518 528.536 91.22 529.685C91.92 530.832 92.812 532.574 93.586 534.849C94.365 537.121 94.984 539.932 95.326 543.093C95.672 546.256 95.725 549.764 95.729 553.448C95.734 555.29 95.733 557.09 95.773 558.831C95.8 560.573 95.927 562.252 95.953 563.836C96.002 567.017 95.766 569.882 95.53 572.281C95.269 574.634 95.056 576.561 94.9 577.965C94.838 578.596 94.787 579.109 94.747 579.514C94.72 579.868 94.712 580.055 94.728 580.057Z" fill="#263238"/>
<path d="M95.8567 545.042C95.8337 545.017 95.5547 545.237 95.0567 545.637C94.5597 546.039 93.8317 546.609 92.9157 547.292C91.0907 548.668 88.4677 550.426 85.5967 552.425C82.7107 554.413 80.2967 556.536 78.8337 558.325C78.0967 559.212 77.5657 559.983 77.2397 560.538C76.9097 561.091 76.7617 561.416 76.7857 561.43C76.8587 561.476 77.5607 560.235 79.0837 558.542C80.5907 556.834 82.9947 554.787 85.8657 552.808C88.7297 550.814 91.3357 549.004 93.1187 547.553C94.0137 546.833 94.7137 546.22 95.1767 545.774C95.6407 545.33 95.8777 545.064 95.8567 545.042Z" fill="#263238"/>
<path d="M111.188 551.076C111.217 551.062 111.105 550.788 110.877 550.303C110.658 549.814 110.275 549.137 109.755 548.331C108.711 546.726 106.983 544.654 104.612 542.907C103.426 542.039 102.209 541.337 101.062 540.786C99.8983 540.272 98.8243 539.863 97.8883 539.639C97.4283 539.501 96.9993 539.427 96.6243 539.355C96.2513 539.276 95.9263 539.231 95.6583 539.211C95.1243 539.158 94.8293 539.143 94.8263 539.176C94.8143 539.262 95.9903 539.4 97.7963 539.957C98.7053 540.217 99.7453 540.651 100.875 541.175C101.989 541.736 103.172 542.433 104.333 543.283C106.654 544.993 108.383 546.984 109.482 548.518C110.581 550.059 111.112 551.115 111.188 551.076Z" fill="#263238"/>
<path d="M76.6395 541.541C76.6745 541.598 77.5895 541.084 79.0545 540.242C80.5215 539.408 82.5435 538.237 84.9095 537.255C87.2745 536.27 89.5545 535.768 91.2235 535.638C92.8945 535.494 93.9385 535.63 93.9465 535.549C93.9505 535.52 93.6945 535.453 93.2215 535.388C92.7495 535.322 92.0575 535.277 91.2025 535.307C89.4935 535.354 87.1385 535.818 84.7305 536.822C82.3225 537.821 80.3105 539.049 78.8825 539.958C77.4575 540.876 76.6075 541.488 76.6395 541.541Z" fill="#263238"/>
<path d="M105.395 532.144C105.41 532.089 104.742 531.832 103.612 531.584C102.485 531.338 100.884 531.131 99.1125 531.217C97.3405 531.307 95.7685 531.673 94.6715 532.034C93.5735 532.396 92.9355 532.721 92.9555 532.774C93.0035 532.93 95.6675 531.854 99.1355 531.685C102.602 531.51 105.363 532.304 105.395 532.144Z" fill="#263238"/>
<path d="M100.214 447.857C100.101 447.858 100.307 445.779 99.7098 442.519C99.1368 439.286 97.5468 434.845 94.2678 430.999C90.9848 427.155 86.8488 424.886 83.7458 423.811C80.6208 422.708 78.5358 422.585 78.5548 422.474C78.5578 422.445 79.0748 422.455 80.0038 422.572C80.9318 422.686 82.2678 422.949 83.8658 423.463C87.0448 424.463 91.3058 426.728 94.6648 430.662C98.0198 434.597 99.5858 439.16 100.073 442.457C100.329 444.116 100.378 445.476 100.345 446.411C100.314 447.346 100.243 447.86 100.214 447.857Z" fill="white"/>
<path d="M120.494 470.501C120.382 470.61 119.03 469.275 117.05 468.079C115.079 466.866 113.274 466.277 113.319 466.127C113.343 465.998 115.276 466.378 117.321 467.634C119.374 468.876 120.598 470.42 120.494 470.501Z" fill="white"/>
<path d="M131.97 482.177C131.823 482.222 131.436 481.069 130.406 480.06C129.395 479.031 128.241 478.648 128.286 478.5C128.293 478.364 129.643 478.551 130.774 479.691C131.917 480.82 132.107 482.17 131.97 482.177Z" fill="white"/>
<path d="M138.286 493.435C138.153 493.497 137.871 493.166 137.508 492.808C137.151 492.445 136.819 492.164 136.881 492.03C136.935 491.901 137.444 492.005 137.876 492.439C138.31 492.873 138.415 493.381 138.286 493.435Z" fill="white"/>
<path d="M89.0704 476.063C88.9334 475.963 91.1864 473.27 92.8114 469.324C94.4724 465.392 94.8004 461.897 94.9674 461.923C95.0294 461.928 95.0294 462.807 94.8124 464.207C94.5974 465.606 94.1244 467.521 93.2924 469.524C92.4554 471.524 91.4274 473.208 90.5844 474.345C89.7424 475.485 89.1184 476.104 89.0704 476.063Z" fill="white"/>
<g opacity="0.3">
<path d="M99.4917 441.967C99.2047 436.969 96.3347 432.217 92.7177 428.756C89.1007 425.295 84.5867 422.563 79.5817 422.496C77.7387 422.259 75.9387 423.666 75.3627 425.433C74.7867 427.2 75.2617 429.182 76.2417 430.761C77.2217 432.34 78.6587 433.579 80.1287 434.715C85.2997 438.713 91.1847 441.786 97.4207 443.744C97.8897 443.891 98.4197 444.028 98.8537 443.796C99.4577 443.475 99.5307 442.65 99.4917 441.967Z" fill="white"/>
</g>
<path d="M532.161 530.941L558.346 620.095H550.986L514.877 530.317L532.161 530.941Z" fill="#6F4439"/>
<path d="M467.904 530.941L494.089 619.245H486.728L450.619 530.317L467.904 530.941Z" fill="#6F4439"/>
<path d="M388.123 530.941L364.383 619.245H371.744L405.407 530.317L388.123 530.941Z" fill="#AE7461"/>
<path d="M465.016 530.941L442.512 619.245H449.872L482.301 530.317L465.016 530.941Z" fill="#AE7461"/>
<path d="M373.93 492.274C373.93 492.274 371.88 465.395 375.98 457.723C380.079 450.051 419.432 434.474 419.432 434.474C419.432 434.474 446.45 391.842 464.505 382.823C482.56 373.804 553.068 375.034 563.316 388.972C573.564 402.91 562.086 439.393 556.757 461.529L537.49 515.639L532.161 530.94H385.408L373.93 492.274Z" fill="#D34733"/>
<path d="M556.715 388.536C556.723 388.533 556.763 388.627 556.828 388.814C556.893 389.001 556.987 389.281 557.093 389.654C557.31 390.397 557.601 391.505 557.891 392.955C558.46 395.848 559.06 400.137 558.804 405.484C558.677 408.158 558.265 411.063 557.795 414.18C557.319 417.297 556.75 420.627 556.114 424.137C554.843 431.157 553.327 438.902 551.627 447.093L551.602 447.215L551.491 447.271C549.291 448.379 546.967 449.555 544.59 450.705C527.934 458.839 512.312 465.019 500.872 469.07C495.152 471.099 490.479 472.616 487.242 473.634C485.642 474.12 484.389 474.5 483.503 474.769C483.095 474.886 482.773 474.979 482.526 475.05C482.305 475.11 482.191 475.137 482.188 475.129C482.185 475.12 482.295 475.077 482.51 474.999C482.752 474.916 483.07 474.807 483.471 474.669C484.35 474.378 485.593 473.966 487.179 473.441C490.396 472.364 495.047 470.796 500.747 468.724C512.146 464.588 527.726 458.362 544.361 450.237C546.735 449.088 549.057 447.915 551.255 446.81L551.119 446.987C552.825 438.803 554.359 431.064 555.658 424.054C556.308 420.549 556.893 417.225 557.387 414.117C557.875 411.008 558.305 408.115 558.455 405.466C558.756 400.158 558.213 395.884 557.703 392.99C557.442 391.541 557.183 390.429 556.997 389.68C556.906 389.327 556.834 389.046 556.779 388.829C556.731 388.637 556.707 388.539 556.715 388.536Z" fill="#263238"/>
<path d="M392.873 514.248C393.015 514.224 393.754 517.942 394.523 522.551C395.292 527.162 395.801 530.917 395.659 530.941C395.517 530.965 394.779 527.248 394.009 522.637C393.24 518.028 392.732 514.272 392.873 514.248Z" fill="#263238"/>
<path d="M468.845 530.317C468.703 530.293 470.341 520.022 472.503 507.38C474.665 494.734 476.532 484.505 476.674 484.529C476.816 484.553 475.178 494.821 473.016 507.468C470.855 520.111 468.987 530.342 468.845 530.317Z" fill="#263238"/>
<path d="M292.082 537.672L271.91 563.201C271.91 563.201 239.187 551.271 235 555.626L283.093 596.516L316.156 558.029L292.082 537.672Z" fill="#263238"/>
<path d="M288.553 573.761C289.268 574.807 289.021 576.4 288.005 577.157C286.99 577.914 285.367 577.677 284.635 576.643C283.902 575.61 284.139 573.689 285.234 573.05C286.328 572.412 288.218 572.794 288.681 573.973" fill="#E0E0E0"/>
<path d="M283.094 596.515L286.275 592.505L238.975 554.8C238.975 554.8 236.042 553.911 235.002 555.625L283.094 596.515Z" fill="#455A64"/>
<path d="M271.339 562.293C271.147 562.535 272.231 563.64 272.744 565.377C273.303 567.101 273.034 568.625 273.329 568.716C273.584 568.854 274.428 567.153 273.769 565.06C273.13 562.961 271.472 562.035 271.339 562.293Z" fill="white"/>
<path d="M264.52 560.091C264.273 560.273 264.951 561.537 264.904 563.208C264.906 564.881 264.194 566.126 264.437 566.314C264.626 566.539 265.958 565.302 265.976 563.222C266.014 561.144 264.716 559.871 264.52 560.091Z" fill="white"/>
<path d="M256.521 563.692C256.692 563.923 258.016 563.028 258.507 561.229C259.011 559.433 258.335 557.984 258.069 558.096C257.772 558.176 257.898 559.472 257.473 560.943C257.083 562.423 256.307 563.47 256.521 563.692Z" fill="white"/>
<path d="M276.582 556.985C276.499 557.283 277.851 557.875 279.102 559.094C280.378 560.287 281.032 561.611 281.326 561.514C281.607 561.46 281.337 559.733 279.843 558.318C278.361 556.892 276.624 556.703 276.582 556.985Z" fill="white"/>
<path d="M335.922 494.293C335.922 496.605 325.584 602.916 325.584 602.916L360.506 606.965C360.506 606.965 369.199 553.35 370.547 543.467C371.895 533.584 376.422 515.876 376.422 515.876L450.926 508.507C450.926 508.507 414.384 457.385 410.831 457.17C407.276 456.956 335.922 494.293 335.922 494.293Z" fill="#263238"/>
<path d="M275.555 553.034C275.555 553.034 338.092 468.263 341.699 463.823C345.306 459.383 349.469 454.666 362.511 454.666C375.553 454.666 410.83 457.17 410.83 457.17L429.469 448.679L497.131 459.112C497.131 459.112 499.628 491.301 495.189 498.794C490.749 506.286 464.387 508.229 458.837 508.506C453.287 508.783 367.334 497.115 367.334 497.115C367.334 497.115 350.489 520.495 342.402 529.482C336.636 535.89 305.867 575.375 305.867 575.375L275.555 553.034Z" fill="#263238"/>
<path d="M305.961 576.067L274.855 553.139L275.152 552.737C275.777 551.889 337.737 467.905 341.311 463.508C344.693 459.346 348.901 454.165 362.511 454.165C375.03 454.165 408.399 456.498 410.738 456.662L429.398 448.162L429.545 448.184L497.598 458.678L497.628 459.073C497.731 460.394 500.087 491.508 495.617 499.049C490.799 507.182 462.115 508.843 458.861 509.005C453.453 509.322 373.992 498.523 367.563 497.652C365.742 500.169 350.342 521.405 342.773 529.817C337.085 536.139 306.568 575.29 306.261 575.684L305.961 576.067ZM276.253 552.929L305.771 574.685C308.97 570.583 336.623 535.158 342.03 529.149C350.006 520.284 366.759 497.057 366.927 496.824L367.103 496.58L367.4 496.621C368.259 496.738 453.358 508.282 458.811 508.008C460.087 507.944 490.126 506.356 494.758 498.54C498.805 491.711 496.925 463.247 496.66 459.547L429.539 449.196L410.92 457.678L410.793 457.669C410.44 457.644 375.386 455.165 362.51 455.165C349.376 455.165 345.334 460.141 342.086 464.139C338.655 468.361 280.938 546.579 276.253 552.929Z" fill="#455A64"/>
<path d="M360.422 485.88C360.543 485.802 362.351 488.385 364.46 491.648C366.57 494.912 368.182 497.621 368.061 497.699C367.94 497.777 366.132 495.195 364.022 491.93C361.914 488.668 360.301 485.958 360.422 485.88Z" fill="#455A64"/>
<path d="M328.405 581.902L330.185 614.39C330.185 614.39 297.761 627.11 297.506 633.146L360.621 631.957L359.924 581.224L328.405 581.902Z" fill="#263238"/>
<path d="M349.648 611.287C350.876 611.598 351.746 612.955 351.486 614.195C351.226 615.434 349.853 616.331 348.62 616.041C347.387 615.752 346.293 614.155 346.69 612.952C347.087 611.75 348.757 610.785 349.884 611.362" fill="#E0E0E0"/>
<path d="M360.62 631.957L360.349 626.846L299.936 629.898C299.936 629.898 297.149 631.174 297.504 633.147L360.62 631.957Z" fill="#455A64"/>
<path d="M329.156 614.088C329.172 614.396 330.716 614.507 332.251 615.469C333.811 616.392 334.618 617.712 334.899 617.584C335.182 617.519 334.687 615.685 332.808 614.552C330.94 613.403 329.084 613.806 329.156 614.088Z" fill="white"/>
<path d="M322.586 616.951C322.521 617.251 323.866 617.75 324.937 619.034C326.046 620.286 326.337 621.691 326.643 621.671C326.933 621.715 327.113 619.905 325.75 618.335C324.403 616.751 322.587 616.656 322.586 616.951Z" fill="white"/>
<path d="M318.977 624.944C319.258 625.004 319.658 623.457 318.835 621.784C318.023 620.105 316.558 619.466 316.432 619.726C316.262 619.983 317.215 620.87 317.87 622.254C318.558 623.622 318.67 624.92 318.977 624.944Z" fill="white"/>
<path d="M329.57 606.639C329.705 606.918 331.11 606.466 332.855 606.551C334.601 606.601 335.968 607.16 336.123 606.892C336.297 606.666 334.952 605.55 332.896 605.478C330.842 605.391 329.415 606.4 329.57 606.639Z" fill="white"/>
<path d="M455.944 375.358L458.137 395.63L432.691 446.679C432.691 446.679 417.64 451.687 412.314 457.17L424.504 457.701C441.983 458.462 458.909 464.544 472.876 475.441C478.898 480.139 483.752 485.219 484.652 489.835C487.304 503.44 491.358 501.342 491.358 501.342L506.786 481.488L517.594 460.006L539.284 375.867L518.352 364.373L513.652 357.534L482.684 361.847L476.513 367.941L455.944 375.358Z" fill="#455A64"/>
<path d="M404.544 429.738L417.545 424.295L437.975 395.638C437.975 395.638 447.449 376.693 455.945 375.359C464.441 374.025 458.138 395.631 458.138 395.631L445.039 432.829L423.913 447.617L409.342 446.351L399.91 438.318L404.544 429.738Z" fill="#455A64"/>
<path d="M457.977 382.411C457.993 382.418 457.916 382.648 457.754 383.079C457.568 383.556 457.324 384.179 457.022 384.954C456.356 386.635 455.431 388.971 454.297 391.833C452.005 397.645 448.943 405.714 445.579 414.636C442.214 423.561 439.094 431.615 436.714 437.396C435.526 440.287 434.543 442.618 433.834 444.216C433.494 444.975 433.221 445.585 433.011 446.053C432.818 446.471 432.708 446.687 432.692 446.68C432.675 446.673 432.753 446.443 432.915 446.012C433.101 445.535 433.345 444.912 433.647 444.138C434.313 442.458 435.238 440.122 436.372 437.259C438.663 431.447 441.727 423.377 445.092 414.452C448.456 405.53 451.575 397.477 453.956 391.696C455.144 388.805 456.127 386.474 456.836 384.876C457.176 384.116 457.449 383.506 457.659 383.038C457.851 382.62 457.961 382.404 457.977 382.411Z" fill="#263238"/>
<path d="M483.49 381.57C483.456 381.586 483.18 381.095 482.709 380.193C482.205 379.198 481.55 377.905 480.762 376.35L481.104 376.348C480.423 377.85 479.628 379.632 478.574 381.523C477.519 383.406 476.176 385.411 474.33 387.118L473.844 387.568L473.894 386.908C473.897 386.875 473.899 386.84 473.902 386.804C474.278 381.642 474.886 376.993 475.435 373.648C475.708 371.975 475.959 370.627 476.151 369.699C476.343 368.771 476.47 368.262 476.505 368.268C476.541 368.275 476.481 368.796 476.351 369.733C476.208 370.766 476.022 372.1 475.8 373.702C475.345 377.054 474.797 381.695 474.422 386.841C474.419 386.876 474.417 386.912 474.414 386.945L473.978 386.735C475.765 385.082 477.092 383.132 478.154 381.285C479.215 379.43 480.04 377.67 480.76 376.188L480.937 375.825L481.102 376.186C481.829 377.771 482.433 379.089 482.897 380.103C483.311 381.032 483.523 381.554 483.49 381.57Z" fill="#263238"/>
<path d="M516.34 365.953C516.354 365.965 516.254 366.105 516.052 366.361C515.807 366.66 515.51 367.024 515.15 367.464C514.35 368.408 513.178 369.763 511.675 371.388C508.682 374.648 504.366 378.995 499.267 383.431C496.953 385.448 494.68 387.311 492.561 388.963L492.175 389.264L492.167 388.777C492.102 384.949 491.379 381.653 490.612 379.205L490.86 379.298C489.288 380.201 488.011 380.933 487.056 381.482C486.164 381.982 485.673 382.239 485.657 382.211C485.64 382.183 486.1 381.873 486.962 381.324C487.897 380.743 489.147 379.965 490.686 379.007L490.865 378.896L490.935 379.1C491.773 381.552 492.558 384.882 492.655 388.767L492.261 388.581C494.361 386.916 496.619 385.05 498.926 383.039C504.009 378.616 508.352 374.325 511.407 371.136C512.941 369.546 514.153 368.232 514.998 367.33C515.387 366.916 515.709 366.573 515.973 366.292C516.201 366.058 516.327 365.941 516.34 365.953Z" fill="#263238"/>
<path d="M514.464 360.188L516.57 317.181C517.908 303.716 511.187 291.713 497.689 290.749L496.437 290.732C483.832 290.568 473.21 300.107 472.034 312.658C470.939 324.336 469.879 337.252 469.875 343.525C469.867 356.51 482.826 358.698 482.826 358.698C482.855 358.7 482.478 366.583 482.264 370.388L484.981 380.292L514.464 360.188Z" fill="#FFBF9D"/>
<path d="M482.85 358.732C482.85 358.732 491.027 359.319 499.82 353.954C499.82 353.954 495.626 363.662 482.686 362.324L482.85 358.732Z" fill="#FF9A6C"/>
<path d="M475.902 324.524C475.854 325.503 476.644 326.35 477.665 326.418C478.684 326.486 479.551 325.75 479.598 324.771C479.646 323.792 478.856 322.944 477.837 322.876C476.816 322.808 475.949 323.545 475.902 324.524Z" fill="#263238"/>
<path d="M474.744 317.983C474.971 318.228 476.389 317.206 478.384 317.238C480.377 317.24 481.828 318.286 482.048 318.044C482.156 317.938 481.927 317.498 481.296 317.025C480.674 316.555 479.61 316.091 478.367 316.08C477.124 316.071 476.073 316.514 475.466 316.975C474.845 317.439 474.631 317.874 474.744 317.983Z" fill="#263238"/>
<path d="M493.305 324.908C493.258 325.887 494.047 326.734 495.068 326.802C496.087 326.87 496.954 326.134 497.001 325.155C497.048 324.176 496.258 323.329 495.239 323.26C494.218 323.191 493.352 323.929 493.305 324.908Z" fill="#263238"/>
<path d="M494.296 318.7C494.523 318.945 495.943 317.924 497.937 317.955C499.93 317.958 501.381 319.003 501.601 318.761C501.708 318.654 501.482 318.215 500.848 317.743C500.227 317.272 499.162 316.809 497.919 316.798C496.676 316.789 495.625 317.233 495.017 317.693C494.399 318.156 494.185 318.591 494.296 318.7Z" fill="#263238"/>
<path d="M486.937 333.938C486.948 333.824 485.71 333.594 483.704 333.311C483.195 333.252 482.714 333.145 482.633 332.796C482.518 332.427 482.738 331.88 482.993 331.29C483.488 330.063 484.006 328.778 484.55 327.43C486.714 321.934 488.288 317.412 488.066 317.326C487.843 317.241 485.909 321.627 483.745 327.123C483.224 328.479 482.725 329.771 482.251 331.007C482.051 331.584 481.711 332.236 481.961 333.003C482.093 333.386 482.464 333.667 482.789 333.759C483.115 333.863 483.401 333.872 483.653 333.891C485.674 334.026 486.928 334.051 486.937 333.938Z" fill="#263238"/>
<path d="M493.73 312.451C493.994 312.964 495.937 312.454 498.295 312.433C500.653 312.366 502.613 312.803 502.858 312.281C502.965 312.032 502.574 311.568 501.749 311.145C500.932 310.722 499.671 310.382 498.257 310.407C496.844 310.435 495.596 310.821 494.795 311.274C493.987 311.728 493.613 312.207 493.73 312.451Z" fill="#263238"/>
<path d="M474.727 312.116C475.129 312.581 476.766 312.156 478.72 312.188C480.674 312.163 482.318 312.593 482.712 312.13C482.885 311.905 482.638 311.443 481.927 310.994C481.227 310.547 480.045 310.164 478.703 310.161C477.36 310.159 476.186 310.537 475.494 310.982C474.79 311.429 474.551 311.89 474.727 312.116Z" fill="#263238"/>
<path d="M515.408 326.336C515.63 326.243 524.363 323.813 523.964 332.686C523.565 341.558 514.74 339.328 514.736 339.073C514.732 338.817 515.408 326.336 515.408 326.336Z" fill="#FFBF9D"/>
<path d="M517.599 335.833C517.639 335.806 517.749 335.948 518.005 336.08C518.254 336.208 518.689 336.308 519.159 336.155C520.112 335.853 520.968 334.401 521.083 332.803C521.142 331.997 521.007 331.22 520.75 330.571C520.508 329.91 520.109 329.437 519.641 329.332C519.176 329.202 518.83 329.47 518.71 329.715C518.58 329.958 518.629 330.137 518.581 330.151C518.555 330.172 518.397 329.994 518.485 329.63C518.53 329.455 518.643 329.251 518.859 329.09C519.079 328.926 519.397 328.852 519.724 328.902C520.406 328.98 520.994 329.637 521.277 330.35C521.598 331.068 521.768 331.941 521.701 332.847C521.564 334.632 520.574 336.264 519.274 336.577C518.642 336.712 518.13 336.5 517.871 336.279C517.606 336.048 517.568 335.848 517.599 335.833Z" fill="#FF9A6C"/>
<path d="M454.793 299.574C454.956 299.058 455.355 298.644 455.833 298.389C456.875 297.832 458.043 297.962 459.175 297.993C461.993 298.069 464.816 297.468 467.381 296.303C466.525 295.822 465.731 295.248 465.066 294.525C463.693 293.032 462.963 290.806 463.702 288.918C463.841 288.564 464.066 288.196 464.435 288.099C465.019 287.947 465.499 288.534 465.882 289.001C467.14 290.534 468.334 291.221 470.313 291.106C471.543 291.035 472.74 290.811 473.729 290.253C473.769 290.215 473.805 290.172 473.846 290.134C474.328 289.678 474.798 289.242 475.261 288.821C475.262 288.819 475.264 288.817 475.264 288.817L475.263 288.819C478.743 285.652 481.713 283.481 484.719 282.418C489.126 280.86 496.401 280.465 500.868 281.843C505.334 283.222 509.233 287.061 509.662 291.716C512.287 289.683 516.09 289.864 519.122 291.237L519.201 291.206C522.584 292.578 524.38 296.292 525.244 299.84C525.291 300.034 525.331 300.23 525.375 300.425C526.457 302.316 527.969 303.962 529.805 305.139C530.129 305.347 530.499 305.6 530.523 305.984C530.547 306.364 530.213 306.665 529.894 306.873C529.045 307.428 528.069 307.774 527.064 307.909C527.342 308.755 527.676 309.58 528.099 310.372C528.459 311.045 528.886 311.852 528.518 312.521C528.233 313.038 527.553 313.227 526.973 313.117C526.393 313.006 525.89 312.661 525.405 312.324C525.749 313.258 526.093 314.192 526.436 315.126C525.184 315.289 523.901 315.134 522.709 314.716C521.838 317.961 521.029 324.006 520.09 326.191C517.733 326.131 517.172 325.85 515.967 326.194C514.409 326.638 514.878 329.383 512.912 328.524C511.911 328.087 510.514 324.161 510.218 323.11C508.253 316.132 507.82 308.73 508.945 301.569C507.587 299.991 505.922 298.677 504.072 297.723L504.22 297.868C500.646 296.452 496.596 295.036 493.08 296.592C490.353 297.799 488.664 300.502 486.573 302.627C482.609 306.655 478.231 308.708 472.58 308.708C471.903 312.604 471.478 319.003 471.129 322.651L468.322 315.2L468.318 315.23C468.084 314.791 467.895 314.349 467.712 313.908L467.648 313.774L467.649 313.757C467.359 313.048 467.085 312.339 466.71 311.633C466.698 311.643 466.686 311.653 466.674 311.663C464.618 313.325 461.815 310.529 463.468 308.466C463.796 308.057 464.183 307.696 464.62 307.404C463.678 308.215 462.311 308.564 461.14 308.148C459.969 307.732 459.099 306.492 459.256 305.259C459.363 304.417 459.999 303.688 460.776 303.387C459.171 303.442 457.55 303.023 456.189 302.167C455.294 301.608 454.434 300.711 454.793 299.574Z" fill="#263238"/>
<path d="M505.509 293.032C505.482 293.064 506.038 293.399 506.761 294.279C507.476 295.155 508.256 296.66 508.569 298.676C508.73 299.678 508.811 300.795 508.759 301.99C508.713 303.186 508.562 304.463 508.412 305.808C508.267 307.154 508.109 308.576 508.132 310.063C508.144 310.805 508.2 311.562 508.329 312.322C508.461 313.069 508.62 313.88 509.152 314.54C509.575 315.078 510.309 315.339 510.958 315.235C511.612 315.148 512.204 314.827 512.647 314.374C513.525 313.435 513.786 312.207 514.04 311.126L513.766 311.147C514.169 312.146 514.585 313.133 515.229 313.935C515.862 314.741 516.762 315.295 517.697 315.419C518.162 315.481 518.636 315.427 519.046 315.242C519.464 315.061 519.776 314.734 519.995 314.385C520.205 314.029 520.323 313.633 520.32 313.246C520.315 312.86 520.18 312.488 519.946 312.218L519.803 312.335C520.756 313.519 521.786 314.177 522.503 314.548C522.865 314.734 523.156 314.848 523.353 314.921C523.552 314.989 523.656 315.019 523.66 315.011C523.663 315.002 523.564 314.957 523.373 314.873C523.183 314.785 522.901 314.657 522.551 314.46C521.857 314.067 520.861 313.394 519.95 312.221L519.807 312.338C520.224 312.82 520.214 313.634 519.811 314.271C519.608 314.585 519.322 314.876 518.954 315.029C518.589 315.189 518.157 315.236 517.732 315.175C516.875 315.053 516.035 314.533 515.443 313.767C514.836 313.001 514.434 312.04 514.036 311.04L513.867 310.616L513.762 311.062C513.508 312.142 513.235 313.319 512.435 314.165C512.039 314.571 511.496 314.86 510.924 314.935C510.35 315.021 509.758 314.807 509.388 314.346C508.923 313.775 508.757 313.006 508.629 312.271C508.503 311.53 508.446 310.788 508.432 310.058C508.406 308.596 508.556 307.183 508.693 305.838C508.835 304.493 508.977 303.21 509.013 301.998C509.054 300.787 508.96 299.654 508.783 298.638C508.438 296.595 507.611 295.07 506.854 294.202C506.088 293.331 505.509 293.032 505.509 293.032Z" fill="#455A64"/>
<path d="M464.793 303.942C464.79 303.946 464.824 303.977 464.894 304.035C464.979 304.103 465.082 304.185 465.208 304.285C465.345 304.397 465.52 304.529 465.743 304.661C465.962 304.799 466.21 304.967 466.515 305.111C467.696 305.736 469.606 306.388 472.031 306.35C474.432 306.318 477.344 305.593 479.993 303.793C482.668 302.039 485.063 299.388 487.06 296.321C488.072 294.789 488.911 293.21 489.823 291.758C490.73 290.304 491.72 288.967 492.895 287.929C494.056 286.884 495.385 286.132 496.734 285.818C497.407 285.649 498.079 285.633 498.717 285.675C499.356 285.736 499.957 285.892 500.509 286.099C501.612 286.523 502.489 287.18 503.147 287.846C503.807 288.517 504.239 289.215 504.531 289.81C505.07 291.029 505.07 291.797 505.117 291.786C505.123 291.786 505.121 291.739 505.113 291.649C505.101 291.54 505.086 291.409 505.069 291.249C505.02 290.898 504.892 290.388 504.639 289.761C504.359 289.148 503.933 288.426 503.27 287.728C502.609 287.036 501.721 286.349 500.589 285.9C500.023 285.679 499.403 285.512 498.741 285.442C498.081 285.391 497.375 285.403 496.679 285.573C495.277 285.887 493.903 286.656 492.71 287.72C491.502 288.778 490.489 290.137 489.572 291.6C488.649 293.062 487.809 294.638 486.806 296.155C484.824 299.199 482.464 301.82 479.839 303.559C477.238 305.345 474.394 306.074 472.028 306.135C469.643 306.2 467.754 305.591 466.57 305.005C465.375 304.412 464.818 303.907 464.793 303.942Z" fill="#455A64"/>
<path d="M463.856 298.185C463.844 298.203 464.005 298.324 464.307 298.529C464.606 298.74 465.067 299.004 465.657 299.289C466.244 299.579 466.976 299.858 467.81 300.1C468.647 300.327 469.587 300.51 470.586 300.59C471.586 300.659 472.543 300.619 473.405 300.52C474.265 300.404 475.03 300.239 475.655 300.04C476.28 299.846 476.775 299.654 477.102 299.49C477.432 299.332 477.609 299.236 477.6 299.217C477.577 299.164 476.844 299.503 475.596 299.833C474.974 300.003 474.218 300.144 473.373 300.242C472.526 300.324 471.589 300.355 470.609 300.287C469.63 300.208 468.708 300.038 467.883 299.83C467.062 299.607 466.335 299.354 465.746 299.094C464.561 298.581 463.887 298.137 463.856 298.185Z" fill="#455A64"/>
<path d="M486.794 340.008C486.915 339.693 488.964 340.615 491.21 339.519C493.459 338.428 494.217 336.141 494.51 336.255C494.651 336.285 494.688 336.921 494.297 337.854C493.919 338.772 493.032 339.961 491.658 340.631C490.283 341.297 488.886 341.219 488.014 340.909C487.123 340.601 486.719 340.143 486.794 340.008Z" fill="#263238"/>
<path d="M468.844 530.317C468.844 529.687 475.798 484.53 478.484 478.771C480.613 474.207 497.674 470.646 515.95 463.271C535.626 455.332 558.439 454.78 558.439 454.78L529.561 521.441L468.844 530.317Z" fill="#D34733"/>
<path d="M479.067 434.548L462.402 435.785V451.729L481.235 453.977L479.067 434.548Z" fill="#FFBF9D"/>
<path d="M531.918 372.075C540.144 375.462 547.779 382.76 547.281 392.218C546.542 406.24 543.253 436.327 542.49 444.081C541.495 454.197 538.068 462.724 523.181 463.283C508.294 463.842 486.378 460.225 486.378 460.225C486.378 460.225 478.487 464.218 476.312 459.827C475.735 458.662 471.82 435.088 471.82 435.088C471.82 434.774 473.751 432.532 476.512 431.149C479.64 429.583 483.452 430.781 485.181 433.823L514.212 432.875L519.963 405.569" fill="#455A64"/>
<path d="M519.963 405.567C519.963 405.567 519.945 405.728 519.887 406.04C519.823 406.368 519.734 406.827 519.618 407.425C519.367 408.662 519.003 410.461 518.531 412.791C517.559 417.49 516.147 424.317 514.371 432.906L514.345 433.03L514.218 433.034C508.264 433.241 501.411 433.478 493.822 433.742C491.924 433.807 489.98 433.873 487.992 433.941C487.495 433.958 486.995 433.975 486.493 433.992L485.737 434.018L485.358 434.031L485.263 434.034L485.215 434.036L485.191 434.037C485.229 434.063 484.816 433.826 484.988 433.921L484.982 433.911L484.883 433.756C484.366 432.923 483.665 432.182 482.807 431.661C481.114 430.594 478.847 430.353 476.94 431.208C475.984 431.63 475.073 432.223 474.227 432.885C473.803 433.218 473.394 433.576 473.009 433.957C472.819 434.149 472.63 434.345 472.456 434.55C472.367 434.652 472.286 434.756 472.206 434.861C472.14 434.939 472.044 435.134 472.054 435.086L472.051 435.048C472.973 440.526 473.952 446.285 475.028 452.25C475.307 453.739 475.587 455.241 475.871 456.756C476.023 457.509 476.169 458.272 476.348 459.018C476.439 459.41 476.502 459.713 476.738 460.018C476.846 460.163 476.915 460.341 477.052 460.46L477.448 460.831C478.623 461.722 480.284 461.743 481.792 461.474C483.324 461.213 484.839 460.666 486.262 459.995L486.34 459.958L486.42 459.971C492.32 460.903 498.551 461.692 504.904 462.291C509.302 462.695 513.658 462.984 517.955 463.059C522.24 463.11 526.521 463.083 530.478 461.873C532.441 461.251 534.281 460.319 535.849 459.063C537.415 457.806 538.687 456.218 539.582 454.456C541.378 450.91 541.988 446.979 542.339 443.188C543.928 427.947 545.371 414.227 546.35 402.683C546.597 399.798 546.81 397.048 546.983 394.446C547.073 393.143 547.151 391.879 547.126 390.665C547.103 390.058 547.013 389.463 546.961 388.876C546.856 388.297 546.726 387.731 546.612 387.172C546.026 384.963 545.037 383.042 543.912 381.441C542.786 379.835 541.543 378.53 540.36 377.435C537.942 375.29 535.752 374.015 534.251 373.222C533.503 372.814 532.908 372.552 532.512 372.368C532.116 372.183 531.918 372.076 531.918 372.076C531.918 372.076 532.13 372.15 532.533 372.32C532.937 372.488 533.54 372.735 534.298 373.13C535.819 373.896 538.036 375.148 540.494 377.285C541.697 378.377 542.963 379.683 544.114 381.3C545.265 382.911 546.282 384.854 546.892 387.098C547.012 387.666 547.147 388.241 547.257 388.831C547.313 389.429 547.408 390.034 547.435 390.653C547.468 391.899 547.395 393.165 547.311 394.467C547.151 397.073 546.95 399.826 546.715 402.714C545.782 414.266 544.376 427.996 542.814 443.236C542.466 447.038 541.862 451.036 540.021 454.685C539.103 456.5 537.786 458.151 536.165 459.455C534.541 460.758 532.64 461.721 530.629 462.36C526.573 463.602 522.238 463.626 517.945 463.577C513.63 463.503 509.262 463.214 504.855 462.809C498.487 462.209 492.253 461.417 486.335 460.479L486.493 460.455C485.008 461.153 483.48 461.704 481.876 461.978C480.313 462.249 478.514 462.268 477.132 461.23L476.672 460.797C476.516 460.655 476.431 460.457 476.309 460.289C476.054 459.975 475.933 459.499 475.855 459.136C475.672 458.37 475.528 457.61 475.376 456.852C475.094 455.334 474.814 453.829 474.537 452.338C473.468 446.368 472.498 440.607 471.587 435.125L471.582 435.095L471.584 435.086C471.65 434.761 471.744 434.737 471.828 434.584C471.917 434.468 472.006 434.353 472.1 434.246C472.285 434.028 472.482 433.825 472.68 433.626C473.08 433.231 473.502 432.864 473.94 432.521C474.819 431.838 475.744 431.236 476.759 430.789C478.809 429.877 481.236 430.141 483.041 431.286C483.955 431.847 484.703 432.64 485.252 433.53L485.357 433.696L485.364 433.706C485.541 433.806 485.13 433.582 485.177 433.604L485.201 433.603L485.248 433.602L485.343 433.599L485.722 433.587L486.477 433.563C486.979 433.547 487.479 433.532 487.976 433.516C489.964 433.454 491.908 433.394 493.806 433.335C501.396 433.103 508.25 432.893 514.205 432.711L514.052 432.839C515.891 424.263 517.352 417.446 518.358 412.755C518.866 410.432 519.258 408.639 519.528 407.406C519.663 406.812 519.766 406.356 519.841 406.03C519.914 405.722 519.963 405.567 519.963 405.567Z" fill="#263238"/>
<path d="M530.164 374.36C530.227 374.425 529.138 375.456 527.665 377.36C526.943 378.322 526.114 379.489 525.304 380.855C524.502 382.225 523.706 383.781 522.994 385.469C521.588 388.859 520.82 392.111 520.436 394.486C520.041 396.862 519.961 398.359 519.86 398.353C519.824 398.351 519.819 397.976 519.841 397.298C519.846 396.618 519.93 395.64 520.072 394.433C520.366 392.024 521.087 388.709 522.513 385.269C523.236 383.556 524.057 381.983 524.893 380.607C525.738 379.235 526.61 378.073 527.377 377.13C528.164 376.201 528.848 375.493 529.345 375.029C529.85 374.572 530.14 374.334 530.164 374.36Z" fill="#263238"/>
<path d="M526.722 445.08C526.629 445.101 526.411 444.082 525.739 442.57C525.075 441.059 523.86 439.088 522.035 437.347C520.201 435.614 518.169 434.504 516.625 433.92C515.079 433.328 514.051 433.164 514.067 433.07C514.072 433.035 514.332 433.051 514.801 433.112C515.271 433.162 515.942 433.316 516.748 433.574C517.559 433.825 518.488 434.236 519.467 434.787C520.434 435.358 521.444 436.082 522.393 436.971C523.329 437.871 524.105 438.842 524.726 439.778C525.327 440.728 525.786 441.634 526.079 442.43C526.379 443.222 526.567 443.884 526.642 444.351C526.728 444.814 526.758 445.073 526.722 445.08Z" fill="#263238"/>
<path d="M486.608 459.388C486.525 459.363 486.927 457.957 487.255 455.623C487.6 453.295 487.855 450.04 487.771 446.451C487.726 444.655 487.567 442.953 487.367 441.412C487.125 439.88 486.864 438.502 486.516 437.383C485.87 435.124 485.091 433.872 485.181 433.821C485.212 433.802 485.413 434.107 485.754 434.682C485.939 434.963 486.1 435.337 486.291 435.771C486.498 436.2 486.688 436.704 486.867 437.273C487.266 438.399 487.569 439.79 487.841 441.341C488.069 442.898 488.245 444.622 488.291 446.437C488.376 450.065 488.06 453.348 487.618 455.683C487.405 456.852 487.166 457.786 486.975 458.422C486.771 459.055 486.643 459.399 486.608 459.388Z" fill="#263238"/>
<path d="M373.416 399.267C373.416 399.267 374.552 396.561 376.798 396C376.798 396 387.957 398.967 391.214 402.561C391.214 402.561 391.864 400.019 397.86 394.918C405.36 388.537 413.728 388.537 413.728 388.537L419.662 392.265L395.886 408.915L388.816 411.386L373.416 399.267Z" fill="#FAFAFA"/>
<path d="M373.416 399.266C373.426 399.263 373.528 399.334 373.718 399.473C373.93 399.632 374.203 399.837 374.546 400.095C375.291 400.666 376.337 401.467 377.667 402.486C380.369 404.582 384.218 407.568 388.938 411.229L388.75 411.199C390.911 410.435 393.293 409.594 395.812 408.704L395.758 408.732C402.558 403.957 410.621 398.295 419.242 392.241L419.513 392.052L419.524 392.486C417.509 391.219 415.525 389.971 413.592 388.756L413.729 388.796C408.595 389.054 403.803 390.947 400.045 393.553C398.169 394.872 396.501 396.367 394.997 397.862C394.244 398.61 393.55 399.382 392.923 400.168C392.311 400.948 391.719 401.787 391.411 402.612L391.291 402.933L391.064 402.698C389.897 401.49 388.445 400.682 387.094 399.98C385.728 399.285 384.397 398.726 383.149 398.244C380.653 397.278 378.488 396.599 376.771 396.103H376.824C375.324 396.517 374.539 397.584 374.071 398.213C373.836 398.546 373.679 398.814 373.577 398.996C373.474 399.178 373.426 399.266 373.416 399.266C373.406 399.266 373.441 399.157 373.527 398.968C373.614 398.777 373.756 398.497 373.98 398.149C374.429 397.494 375.187 396.373 376.772 395.896L376.796 395.889L376.825 395.897C378.561 396.359 380.74 397.005 383.261 397.945C384.522 398.414 385.867 398.962 387.256 399.652C388.633 400.354 390.109 401.147 391.363 402.423L391.017 402.509C391.375 401.522 391.96 400.725 392.586 399.903C393.221 399.095 393.921 398.308 394.678 397.547C396.193 396.026 397.858 394.516 399.77 393.159C403.601 390.49 408.425 388.552 413.727 388.278L413.796 388.274L413.865 388.317C415.799 389.531 417.784 390.777 419.8 392.043L420.132 392.252L419.81 392.477L419.539 392.667C410.902 398.699 402.824 404.34 396.012 409.097L395.986 409.115L395.957 409.125C393.432 409.998 391.045 410.823 388.879 411.572L388.775 411.608L388.691 411.541C383.989 407.788 380.155 404.727 377.463 402.578C376.173 401.535 375.157 400.714 374.434 400.129C374.113 399.864 373.857 399.653 373.659 399.489C373.49 399.344 373.407 399.269 373.416 399.266Z" fill="#263238"/>
<path d="M369.498 398.807L370.172 397.459L386.906 406.781C386.906 406.781 392.409 406.444 392.521 402.738C392.521 402.738 419.924 391.283 420.598 391.62C421.272 391.957 465.184 428.457 465.184 428.457L425.539 436.909L407.12 428.794L369.498 398.807Z" fill="#D34733"/>
<path d="M420.468 434.674C420.376 434.785 412.788 428.63 403.521 420.928C394.251 413.224 386.813 406.891 386.905 406.78C386.997 406.669 394.584 412.823 403.854 420.527C413.121 428.229 420.56 434.564 420.468 434.674Z" fill="#263238"/>
<path d="M431.126 435.532C431.033 435.641 422.393 428.432 411.831 419.432C401.265 410.428 392.779 403.043 392.872 402.934C392.965 402.825 401.603 410.032 412.169 419.036C422.731 428.035 431.22 435.422 431.126 435.532Z" fill="#263238"/>
<path d="M392.752 414.26C392.636 414.256 388.902 413.902 388.005 415.529C387.109 417.155 387.009 418.052 387.374 419.014C387.739 419.977 389.532 422.034 389.532 422.034L390.13 423.163C390.13 423.163 388.935 425.586 389.532 427.578C390.13 429.57 391.955 430.765 391.955 430.765C391.955 430.765 392.254 435.644 395.208 435.677C395.208 435.677 395.971 438.432 398.693 438.366C401.415 438.3 402.776 438.997 405.796 437.437C408.817 435.877 412.316 434.317 413.089 432.757C413.862 431.197 411.171 431.031 411.171 431.031C411.171 431.031 412.635 427.015 407.921 427.546C407.921 427.546 408.452 423.397 405.431 422.899C402.41 422.401 396.27 422.766 396.27 422.766L393.847 419.845C393.847 419.845 395.606 419.347 395.706 417.787C395.805 416.226 394.151 414.31 392.752 414.26Z" fill="#FFBF9D"/>
<path d="M454.361 430.111C454.059 430.212 450.428 431.825 448.008 431.523C445.588 431.221 426.831 420.934 424.108 420.128C421.385 419.321 416.746 420.128 420.074 423.658C423.402 427.188 433.688 432.936 433.89 433.238C434.092 433.541 434.495 435.19 434.495 435.19L424.007 431.221C424.007 431.221 416.343 427.389 415.133 429.708C413.923 432.027 415.738 433.338 417.654 433.944C419.57 434.549 421.688 435.19 421.688 435.19C421.688 435.19 423.907 439.289 426.125 440.902C428.344 442.516 438.428 448.97 440.143 449.676C441.857 450.382 462.531 451.995 462.934 451.693C463.337 451.39 462.934 436.264 462.934 436.264L455.673 429.709L454.361 430.111Z" fill="#FFBF9D"/>
</g>
<defs>
<clipPath id="clip0_43_1791">
<rect width="567" height="635" fill="white"/>
</clipPath>
</defs>
</svg>
