<?xml version="1.0" encoding="utf-8"?>
<!-- Generator: Adobe Illustrator 27.5.0, SVG Export Plug-In . SVG Version: 6.00 Build 0)  -->
<svg version="1.1" xmlns="http://www.w3.org/2000/svg" xmlns:xlink="http://www.w3.org/1999/xlink" x="0px" y="0px"
	 viewBox="0 0 750 500" style="enable-background:new 0 0 750 500;" xml:space="preserve">
<g id="BACKGROUND">
	<rect style="fill:#A3AFFB;" width="750" height="500"/>
</g>
<g id="OBJECTS">
	<g>
		<defs>
			<rect id="SVGID_1_" width="750" height="500"/>
		</defs>
		<clipPath id="SVGID_00000029735103226280426990000011369137186859343290_">
			<use xlink:href="#SVGID_1_"  style="overflow:visible;"/>
		</clipPath>
		<g style="clip-path:url(#SVGID_00000029735103226280426990000011369137186859343290_);">
			<g>
				<g>
					<path style="opacity:0.2;fill:#8089C4;" d="M377.853,379.841c-7.771-12.747-16.8-25.454-29.868-32.673
						c-13.068-7.218-31.148-7.339-41.496,3.421c-9.157,9.522-9.814,24.815-5.257,37.215c4.557,12.4,13.4,22.657,21.798,32.855
						c43.121,52.366,91.382,123.428,118.518,185.599c-5.114-11.717,1.584-50.555-7.461-79.322
						c-4.169-13.26-7.776-23.077-11.159-36.544C413.179,451.569,398.724,414.077,377.853,379.841z"/>
					<path style="fill:#7584E7;" d="M363.8,376.327c-7.77-12.747-16.8-25.454-29.868-32.673
						c-13.068-7.218-31.148-7.339-41.496,3.421c-9.157,9.522-9.814,24.815-5.257,37.215c4.557,12.4,13.4,22.657,21.798,32.855
						c43.121,52.366,91.382,123.428,118.518,185.599c-5.114-11.716,1.584-50.555-7.461-79.322
						c-4.169-13.26-7.776-23.077-11.159-36.545C399.126,448.055,384.671,410.564,363.8,376.327z"/>
					
						<path style="fill:none;stroke:#E8E8E8;stroke-width:2.8347;stroke-linecap:round;stroke-linejoin:round;stroke-miterlimit:10;" d="
						M311.192,360.711c48.521,61.369,98.037,149.447,116.098,236.906"/>
					<g>
						<path style="fill:#8895ED;" d="M297.112,363.66c0.25-0.121,0.464-0.306,0.644-0.517c0.655-0.767,0.819-1.958,0.286-2.815
							c-0.928-1.491-3.109-1.034-3.668,0.541C293.852,362.341,295.538,364.423,297.112,363.66z"/>
						<path style="fill:#8895ED;" d="M317.256,393.629c0.25-0.121,0.464-0.306,0.644-0.517c0.655-0.767,0.819-1.958,0.286-2.814
							c-0.928-1.491-3.109-1.034-3.668,0.541C313.995,392.311,315.682,394.393,317.256,393.629z"/>
						<path style="fill:#8895ED;" d="M308.412,349.084c0.25-0.121,0.464-0.306,0.644-0.517c0.655-0.767,0.819-1.958,0.286-2.815
							c-0.928-1.491-3.109-1.034-3.668,0.541C305.152,347.766,306.838,349.848,308.412,349.084z"/>
						<path style="fill:#8895ED;" d="M299.493,354.2c0.174-0.085,0.324-0.214,0.449-0.361c0.457-0.535,0.572-1.366,0.2-1.964
							c-0.648-1.04-2.169-0.721-2.559,0.378C297.218,353.28,298.395,354.732,299.493,354.2z"/>
						<path style="fill:#8895ED;" d="M305.959,392.105c0.159-0.077,0.296-0.195,0.411-0.33c0.418-0.489,0.522-1.249,0.182-1.794
							c-0.592-0.95-1.982-0.659-2.339,0.345C303.88,391.264,304.956,392.591,305.959,392.105z"/>
						<path style="fill:#8895ED;" d="M306.557,377.249c0.249-0.121,0.464-0.306,0.644-0.517c0.655-0.767,0.819-1.958,0.286-2.815
							c-0.928-1.491-3.109-1.033-3.668,0.541C303.297,375.931,304.983,378.013,306.557,377.249z"/>
						<path style="fill:#8895ED;" d="M310.979,406.237c0.25-0.121,0.464-0.306,0.644-0.517c0.655-0.767,0.819-1.958,0.286-2.815
							c-0.928-1.491-3.109-1.034-3.668,0.541C307.718,404.918,309.405,407,310.979,406.237z"/>
						<path style="fill:#8895ED;" d="M288.576,371.92c0.126,0.117,0.28,0.199,0.442,0.256c0.589,0.206,1.313,0.035,1.687-0.464
							c0.652-0.869-0.099-2.024-1.133-1.995C288.607,369.745,287.784,371.183,288.576,371.92z"/>
						<path style="fill:#8895ED;" d="M298.235,371.67c0.126,0.117,0.28,0.199,0.442,0.256c0.589,0.206,1.313,0.035,1.687-0.464
							c0.652-0.869-0.099-2.024-1.133-1.995C298.266,369.494,297.443,370.933,298.235,371.67z"/>
						<path style="fill:#8895ED;" d="M313.762,379.428c0.126,0.117,0.28,0.199,0.442,0.256c0.589,0.206,1.313,0.035,1.687-0.465
							c0.652-0.869-0.099-2.024-1.133-1.995C313.794,377.253,312.97,378.691,313.762,379.428z"/>
						<path style="fill:#8895ED;" d="M295.799,385.036c0.126,0.117,0.28,0.199,0.442,0.256c0.589,0.206,1.313,0.035,1.687-0.464
							c0.652-0.869-0.099-2.024-1.133-1.995C295.831,382.861,295.007,384.299,295.799,385.036z"/>
						<path style="fill:#8895ED;" d="M305.556,355.184c0.084-0.041,0.157-0.103,0.218-0.175c0.222-0.26,0.277-0.663,0.097-0.953
							c-0.314-0.504-1.052-0.35-1.242,0.183C304.453,354.738,305.023,355.443,305.556,355.184z"/>
						<path style="fill:#8895ED;" d="M299.325,395.05c0.084-0.041,0.157-0.104,0.218-0.175c0.222-0.26,0.277-0.663,0.097-0.953
							c-0.314-0.504-1.052-0.35-1.242,0.183C298.222,394.604,298.793,395.309,299.325,395.05z"/>
						<path style="fill:#8895ED;" d="M289.665,360.217c0.085-0.041,0.157-0.103,0.218-0.175c0.222-0.26,0.277-0.663,0.097-0.953
							c-0.314-0.504-1.052-0.35-1.242,0.183C288.561,359.771,289.132,360.475,289.665,360.217z"/>
						<path style="fill:#8895ED;" d="M310.518,383.952c0.047-0.023,0.088-0.058,0.122-0.098c0.124-0.145,0.155-0.371,0.054-0.533
							c-0.176-0.282-0.589-0.196-0.694,0.103C309.9,383.703,310.22,384.097,310.518,383.952z"/>
						<path style="fill:#8895ED;" d="M290.865,380.022c0.047-0.023,0.088-0.058,0.122-0.098c0.124-0.145,0.155-0.371,0.054-0.533
							c-0.176-0.282-0.589-0.196-0.695,0.103C290.248,379.772,290.567,380.166,290.865,380.022z"/>
					</g>
				</g>
				<g>
					<path style="opacity:0.2;fill:#8089C4;" d="M747.734,355.459c4.357-14.279,7.847-29.472,4.552-44.033
						c-3.295-14.561-15.224-28.148-30.142-28.725c-13.201-0.511-25.062,9.166-31.295,20.813
						c-6.233,11.648-8.017,25.073-10.052,38.126c-10.452,67.025-31.455,150.318-59.86,211.921
						c5.353-11.609,38.819-32.425,54.296-58.306c7.134-11.93,12.069-21.15,19.882-32.63
						C717.635,429.533,736.032,393.81,747.734,355.459z"/>
					<path style="fill:#A8C7FB;" d="M739.067,354.793c4.357-14.279,7.847-29.472,4.552-44.033
						c-3.295-14.561-15.224-28.148-30.142-28.725c-13.201-0.511-25.062,9.166-31.295,20.813
						c-6.234,11.648-8.017,25.073-10.053,38.125c-10.452,67.025-31.455,150.318-59.86,211.921
						c5.353-11.609,38.819-32.425,54.296-58.306c7.134-11.93,12.069-21.15,19.882-32.63
						C708.968,428.866,727.365,393.144,739.067,354.793z"/>
					<g>
						<path style="fill:#D9E7FF;" d="M698.684,302.556c0.276,0.031,0.556-0.01,0.821-0.092c0.964-0.298,1.74-1.216,1.747-2.225
							c0.013-1.756-2.074-2.536-3.389-1.505C696.635,299.698,696.946,302.359,698.684,302.556z"/>
						<path style="fill:#D9E7FF;" d="M699.671,338.652c0.276,0.031,0.556-0.01,0.821-0.092c0.964-0.298,1.74-1.216,1.747-2.225
							c0.013-1.756-2.074-2.536-3.389-1.505C697.621,335.795,697.933,338.456,699.671,338.652z"/>
						<path style="fill:#D9E7FF;" d="M716.028,296.286c0.276,0.031,0.556-0.01,0.821-0.092c0.964-0.298,1.74-1.216,1.747-2.225
							c0.013-1.756-2.074-2.536-3.389-1.505C713.979,293.428,714.29,296.089,716.028,296.286z"/>
						<path style="fill:#D9E7FF;" d="M705.756,295.837c0.192,0.022,0.388-0.007,0.573-0.064c0.672-0.208,1.214-0.848,1.219-1.552
							c0.009-1.225-1.447-1.77-2.364-1.05C704.326,293.843,704.543,295.699,705.756,295.837z"/>
						<path style="fill:#D9E7FF;" d="M690.942,331.321c0.176,0.02,0.354-0.006,0.523-0.059c0.615-0.19,1.109-0.775,1.114-1.419
							c0.008-1.12-1.322-1.617-2.161-0.96C689.635,329.499,689.834,331.196,690.942,331.321z"/>
						<path style="fill:#D9E7FF;" d="M699.394,319.09c0.276,0.031,0.556-0.01,0.821-0.092c0.964-0.298,1.74-1.216,1.747-2.225
							c0.013-1.756-2.074-2.536-3.389-1.505C697.345,316.232,697.656,318.893,699.394,319.09z"/>
						<path style="fill:#D9E7FF;" d="M687.623,345.946c0.276,0.031,0.556-0.01,0.821-0.092c0.964-0.298,1.74-1.216,1.747-2.225
							c0.013-1.756-2.074-2.536-3.389-1.505C685.574,343.088,685.885,345.749,687.623,345.946z"/>
						<path style="fill:#D9E7FF;" d="M687.053,304.969c0.044,0.166,0.13,0.318,0.237,0.453c0.388,0.489,1.091,0.731,1.674,0.51
							c1.016-0.385,0.999-1.763,0.11-2.291C688.243,303.147,686.778,303.922,687.053,304.969z"/>
						<path style="fill:#D9E7FF;" d="M695.348,309.924c0.044,0.166,0.13,0.318,0.237,0.453c0.388,0.489,1.091,0.731,1.674,0.51
							c1.016-0.385,0.999-1.763,0.11-2.291C696.538,308.103,695.073,308.877,695.348,309.924z"/>
						<path style="fill:#D9E7FF;" d="M704.316,324.786c0.044,0.166,0.13,0.318,0.237,0.453c0.388,0.489,1.091,0.731,1.674,0.51
							c1.016-0.385,0.999-1.763,0.11-2.291C705.506,322.964,704.041,323.739,704.316,324.786z"/>
						<path style="fill:#D9E7FF;" d="M686.14,319.914c0.044,0.166,0.13,0.318,0.237,0.453c0.388,0.489,1.091,0.731,1.674,0.51
							c1.016-0.385,0.999-1.763,0.11-2.291C687.329,318.093,685.864,318.867,686.14,319.914z"/>
						<path style="fill:#D9E7FF;" d="M710.352,299.912c0.093,0.01,0.188-0.004,0.278-0.031c0.326-0.101,0.589-0.412,0.591-0.753
							c0.005-0.594-0.702-0.858-1.147-0.509C709.658,298.945,709.764,299.845,710.352,299.912z"/>
						<path style="fill:#D9E7FF;" d="M683.761,330.261c0.093,0.011,0.188-0.003,0.278-0.031c0.326-0.101,0.589-0.412,0.591-0.753
							c0.005-0.594-0.702-0.858-1.147-0.509C683.068,329.294,683.173,330.195,683.761,330.261z"/>
						<path style="fill:#D9E7FF;" d="M694.233,295.663c0.093,0.011,0.188-0.003,0.278-0.031c0.326-0.101,0.589-0.412,0.591-0.753
							c0.005-0.594-0.702-0.858-1.147-0.509C693.54,294.696,693.645,295.596,694.233,295.663z"/>
						<path style="fill:#D9E7FF;" d="M699.155,326.872c0.052,0.006,0.105-0.002,0.155-0.017c0.182-0.056,0.329-0.23,0.331-0.421
							c0.003-0.332-0.393-0.48-0.642-0.285C698.767,326.331,698.826,326.835,699.155,326.872z"/>
						<path style="fill:#D9E7FF;" d="M684.653,313.038c0.052,0.006,0.105-0.002,0.156-0.018c0.182-0.056,0.329-0.23,0.331-0.421
							c0.002-0.332-0.393-0.48-0.642-0.285C684.265,312.497,684.324,313.001,684.653,313.038z"/>
					</g>
					
						<path style="fill:none;stroke:#E8E8E8;stroke-width:2.8347;stroke-linecap:round;stroke-linejoin:round;stroke-miterlimit:10;" d="
						M715.759,305.111c-13.588,77.044-46.468,172.588-99.796,244.221"/>
				</g>
				<g>
					<path style="opacity:0.2;fill:#8089C4;" d="M27.408,177.989c9.074-9.731,19.24-19.201,31.944-23.154
						c12.705-3.953,28.509-0.809,35.609,10.443c6.283,9.958,4.107,23.426-2.099,33.431c-6.206,10.005-15.769,17.37-24.933,24.763
						c-47.053,37.963-101.951,91.324-136.811,140.72c6.57-9.309,7.702-44.416,20.767-67.903
						c6.022-10.826,10.935-18.747,16.308-29.896C-16.319,234.256,3.037,204.126,27.408,177.989z"/>
					<path style="fill:#A8C7FB;" d="M20.188,173.558c9.074-9.731,19.24-19.201,31.944-23.154
						c12.705-3.953,28.509-0.809,35.609,10.443c6.283,9.958,4.108,23.426-2.099,33.431c-6.206,10.005-15.769,17.37-24.933,24.763
						c-47.053,37.963-101.951,91.324-136.811,140.72c6.57-9.309,7.702-44.416,20.767-67.903
						c6.022-10.826,10.935-18.747,16.308-29.896C-23.539,229.824-4.183,199.695,20.188,173.558z"/>
					<g>
						<path style="fill:#BFD5FB;" d="M69.687,163.4c0.127,0.247,0.317,0.457,0.532,0.632c0.782,0.637,1.976,0.774,2.82,0.222
							c1.469-0.962,0.962-3.132-0.625-3.655C70.93,160.111,68.888,161.844,69.687,163.4z"/>
						<path style="fill:#BFD5FB;" d="M40.185,184.223c0.127,0.247,0.317,0.457,0.532,0.632c0.782,0.637,1.976,0.774,2.82,0.222
							c1.469-0.962,0.962-3.132-0.625-3.655C41.428,180.933,39.386,182.667,40.185,184.223z"/>
						<path style="fill:#BFD5FB;" d="M84.517,174.365c0.127,0.247,0.316,0.457,0.532,0.632c0.782,0.637,1.976,0.774,2.82,0.222
							c1.469-0.962,0.962-3.132-0.625-3.655C85.76,171.075,83.717,172.809,84.517,174.365z"/>
						<path style="fill:#BFD5FB;" d="M79.199,165.564c0.088,0.172,0.221,0.319,0.371,0.441c0.546,0.445,1.379,0.54,1.968,0.155
							c1.025-0.671,0.671-2.185-0.436-2.55C80.066,163.269,78.641,164.479,79.199,165.564z"/>
						<path style="fill:#BFD5FB;" d="M41.451,172.894c0.081,0.157,0.202,0.292,0.339,0.403c0.499,0.406,1.26,0.494,1.798,0.141
							c0.937-0.613,0.614-1.997-0.398-2.33C42.244,170.797,40.942,171.902,41.451,172.894z"/>
						<path style="fill:#BFD5FB;" d="M56.317,173.153c0.127,0.247,0.316,0.457,0.531,0.632c0.782,0.637,1.976,0.774,2.82,0.222
							c1.469-0.962,0.962-3.132-0.625-3.655C57.56,169.863,55.517,171.597,56.317,173.153z"/>
						<path style="fill:#BFD5FB;" d="M27.438,178.235c0.127,0.247,0.316,0.457,0.531,0.632c0.782,0.637,1.976,0.774,2.82,0.222
							c1.469-0.962,0.962-3.132-0.625-3.655C28.681,174.945,26.639,176.679,27.438,178.235z"/>
						<path style="fill:#BFD5FB;" d="M61.234,155.055c-0.114,0.128-0.193,0.285-0.246,0.448c-0.193,0.594-0.005,1.313,0.503,1.676
							c0.883,0.632,2.021-0.145,1.968-1.178C63.409,155.036,61.952,154.246,61.234,155.055z"/>
						<path style="fill:#BFD5FB;" d="M61.705,164.706c-0.114,0.128-0.193,0.285-0.246,0.448c-0.193,0.594-0.005,1.313,0.503,1.676
							c0.883,0.632,2.021-0.145,1.968-1.178C63.88,164.687,62.423,163.896,61.705,164.706z"/>
						<path style="fill:#BFD5FB;" d="M54.302,180.406c-0.114,0.128-0.193,0.285-0.246,0.448c-0.193,0.594-0.005,1.313,0.503,1.676
							c0.883,0.632,2.021-0.145,1.968-1.178C56.478,180.387,55.021,179.597,54.302,180.406z"/>
						<path style="fill:#BFD5FB;" d="M48.286,162.576c-0.114,0.128-0.193,0.285-0.246,0.448c-0.192,0.594-0.005,1.313,0.503,1.676
							c0.883,0.632,2.021-0.145,1.968-1.178C50.461,162.557,49.005,161.767,48.286,162.576z"/>
						<path style="fill:#BFD5FB;" d="M78.353,171.648c0.043,0.083,0.107,0.155,0.18,0.214c0.265,0.216,0.669,0.262,0.955,0.075
							c0.497-0.326,0.326-1.06-0.212-1.237C78.774,170.535,78.082,171.122,78.353,171.648z"/>
						<path style="fill:#BFD5FB;" d="M38.355,166.329c0.043,0.083,0.107,0.155,0.18,0.214c0.265,0.216,0.669,0.262,0.955,0.075
							c0.497-0.326,0.326-1.06-0.212-1.237C38.776,165.216,38.084,165.803,38.355,166.329z"/>
						<path style="fill:#BFD5FB;" d="M72.959,155.876c0.043,0.083,0.107,0.155,0.18,0.214c0.265,0.216,0.669,0.262,0.955,0.075
							c0.497-0.326,0.326-1.06-0.212-1.237C73.38,154.762,72.688,155.349,72.959,155.876z"/>
						<path style="fill:#BFD5FB;" d="M49.706,177.265c0.024,0.047,0.06,0.087,0.101,0.12c0.148,0.121,0.374,0.147,0.534,0.042
							c0.278-0.182,0.182-0.593-0.118-0.692C49.941,176.643,49.554,176.971,49.706,177.265z"/>
						<path style="fill:#BFD5FB;" d="M53.186,157.528c0.024,0.047,0.06,0.087,0.101,0.12c0.148,0.121,0.374,0.147,0.534,0.042
							c0.278-0.182,0.182-0.593-0.118-0.692C53.422,156.906,53.035,157.234,53.186,157.528z"/>
					</g>
					
						<path style="fill:none;stroke:#E8E8E8;stroke-width:2.5264;stroke-linecap:round;stroke-linejoin:round;stroke-miterlimit:10;" d="
						M62.307,177.029C8.923,221.881-43.518,282.221-75.001,355.322"/>
				</g>
				<g>
					<path style="opacity:0.2;fill:#8089C4;" d="M24.684,69.81c7.451-11.024,16.021-21.959,27.957-27.838
						c11.936-5.88,28.037-5.231,36.8,4.781c7.754,8.86,7.699,22.502,3.124,33.351c-4.576,10.848-12.877,19.61-20.78,28.338
						C31.205,153.258-14.73,214.504-41.488,268.718c5.043-10.217,0.704-45.074,9.959-70.306
						c4.266-11.631,7.888-20.219,11.462-32.068C-9.764,132.189,4.672,99.417,24.684,69.81z"/>
					<path style="fill:#7584E7;" d="M17.194,59.74c6.934-11.356,14.989-22.675,26.641-29.1s27.765-6.521,36.981,3.076
						c8.155,8.492,8.731,22.123,4.661,33.171c-4.07,11.048-11.958,20.184-19.449,29.268
						C27.563,142.798-15.495,206.101-39.72,261.493c4.565-10.439-1.379-45.058,6.7-70.691c3.724-11.815,6.945-20.562,9.969-32.563
						C-14.336,123.645-1.429,90.24,17.194,59.74z"/>
					<g>
						<path style="fill:#92A1F7;" d="M53.049,38.563c0.228,0.158,0.495,0.253,0.767,0.306c0.99,0.192,2.108-0.251,2.59-1.137
							c0.84-1.542-0.632-3.215-2.278-2.926C52.59,35.077,51.609,37.57,53.049,38.563z"/>
						<path style="fill:#92A1F7;" d="M36.887,70.855c0.228,0.158,0.495,0.253,0.767,0.306c0.991,0.192,2.108-0.251,2.59-1.137
							c0.84-1.542-0.632-3.215-2.278-2.926C36.429,67.369,35.448,69.862,36.887,70.855z"/>
						<path style="fill:#92A1F7;" d="M71.299,41.219c0.228,0.158,0.495,0.254,0.767,0.306c0.99,0.192,2.108-0.251,2.59-1.137
							c0.84-1.542-0.632-3.215-2.278-2.926C70.84,37.732,69.859,40.225,71.299,41.219z"/>
						<path style="fill:#92A1F7;" d="M62.454,35.976c0.159,0.11,0.345,0.177,0.535,0.214c0.691,0.134,1.471-0.175,1.807-0.793
							c0.586-1.076-0.441-2.243-1.589-2.041C62.134,33.543,61.45,35.283,62.454,35.976z"/>
						<path style="fill:#92A1F7;" d="M32.65,60.273c0.146,0.1,0.316,0.161,0.489,0.195c0.631,0.122,1.344-0.16,1.652-0.725
							c0.536-0.983-0.403-2.05-1.452-1.865C32.358,58.05,31.732,59.639,32.65,60.273z"/>
						<path style="fill:#92A1F7;" d="M45.873,53.477c0.228,0.158,0.495,0.253,0.767,0.306c0.99,0.192,2.108-0.251,2.59-1.137
							c0.84-1.542-0.632-3.215-2.278-2.926C45.415,49.99,44.434,52.483,45.873,53.477z"/>
						<path style="fill:#92A1F7;" d="M22.824,71.602c0.228,0.158,0.495,0.253,0.767,0.306c0.99,0.192,2.108-0.251,2.59-1.137
							c0.84-1.542-0.632-3.215-2.278-2.926C22.365,68.115,21.384,70.608,22.824,71.602z"/>
						<path style="fill:#92A1F7;" d="M41.655,35.203c-0.04,0.167-0.035,0.342-0.005,0.511c0.111,0.614,0.616,1.159,1.235,1.24
							c1.077,0.14,1.713-1.083,1.178-1.968C43.563,34.159,41.906,34.151,41.655,35.203z"/>
						<path style="fill:#92A1F7;" d="M46.63,43.486c-0.04,0.167-0.036,0.342-0.005,0.511c0.111,0.614,0.616,1.159,1.235,1.24
							c1.077,0.14,1.713-1.083,1.178-1.968C48.539,42.442,46.882,42.433,46.63,43.486z"/>
						<path style="fill:#92A1F7;" d="M47.526,60.821c-0.04,0.167-0.035,0.342-0.005,0.511c0.111,0.614,0.616,1.159,1.235,1.24
							c1.077,0.14,1.713-1.083,1.178-1.968C49.434,59.777,47.777,59.768,47.526,60.821z"/>
						<path style="fill:#92A1F7;" d="M33.798,47.95c-0.04,0.167-0.035,0.342-0.005,0.511c0.111,0.614,0.616,1.159,1.235,1.24
							c1.077,0.14,1.713-1.083,1.178-1.968C35.707,46.905,34.049,46.897,33.798,47.95z"/>
						<path style="fill:#92A1F7;" d="M64.583,41.738c0.077,0.053,0.168,0.086,0.26,0.104c0.335,0.065,0.713-0.085,0.877-0.385
							c0.284-0.522-0.214-1.088-0.771-0.99C64.428,40.558,64.096,41.402,64.583,41.738z"/>
						<path style="fill:#92A1F7;" d="M26.819,55.951c0.077,0.053,0.167,0.086,0.26,0.104c0.335,0.065,0.713-0.085,0.877-0.385
							c0.284-0.522-0.214-1.088-0.771-0.99C26.664,54.77,26.332,55.614,26.819,55.951z"/>
						<path style="fill:#92A1F7;" d="M52.376,30.386c0.077,0.053,0.167,0.086,0.26,0.104c0.335,0.065,0.713-0.085,0.877-0.385
							c0.284-0.522-0.214-1.088-0.771-0.99C52.221,29.206,51.889,30.05,52.376,30.386z"/>
						<path style="fill:#92A1F7;" d="M41.99,60.225c0.043,0.03,0.094,0.048,0.145,0.058c0.188,0.036,0.399-0.048,0.49-0.215
							c0.159-0.292-0.12-0.609-0.431-0.554C41.904,59.565,41.718,60.037,41.99,60.225z"/>
						<path style="fill:#92A1F7;" d="M35.732,41.186c0.043,0.03,0.094,0.048,0.145,0.058c0.188,0.036,0.399-0.048,0.49-0.215
							c0.159-0.292-0.12-0.609-0.431-0.554C35.645,40.526,35.459,40.998,35.732,41.186z"/>
					</g>
					
						<path style="fill:none;stroke:#E8E8E8;stroke-width:2.5264;stroke-linecap:round;stroke-linejoin:round;stroke-miterlimit:10;" d="
						M64.091,45.856C20.807,100.52-23.38,178.987-39.533,256.922"/>
				</g>
			</g>
			<g>
				<g>
					<g>
						<path style="opacity:0.2;fill:#8089C4;" d="M182.402,706.763L64.264,567.217c-2.523-2.98-2.036-7.465,1.066-9.834
							l191.797-156.356l120.099,144.901c1.461,1.77,1.211,4.389-0.559,5.85L188.251,707.322
							C186.482,708.783,183.863,708.532,182.402,706.763z"/>
						<g>
							<path style="fill:#D3C496;" d="M177.576,688.376L59.438,548.83c-2.523-2.98-2.036-7.465,1.067-9.834L252.302,382.64
								l120.099,144.901c1.461,1.77,1.211,4.389-0.559,5.85L183.426,688.935C181.656,690.396,179.037,690.146,177.576,688.376z"/>
							<g>
								<path style="fill:#E8E8E8;" d="M177.576,688.376L66.552,552.317c-0.987-1.21-0.812-2.991,0.392-3.985L251.9,381.716
									l120.501,145.825L177.576,688.376z"/>
								
									<line style="fill:none;stroke:#D6DBDE;stroke-width:0.831;stroke-miterlimit:10;" x1="371.723" y1="526.531" x2="176.792" y2="687.454"/>
								
									<line style="fill:none;stroke:#D6DBDE;stroke-width:0.831;stroke-miterlimit:10;" x1="369.495" y1="525.137" x2="174.564" y2="686.06"/>
							</g>
							<path style="fill:#F3D364;" d="M177.091,676.665L62.285,537.596l189.49-156.174l114.807,139.069
								c1.461,1.77,1.211,4.389-0.559,5.85L182.941,677.224C181.171,678.685,178.552,678.435,177.091,676.665z"/>
							
								<rect x="161.415" y="345.063" transform="matrix(0.6366 0.7712 -0.7712 0.6366 420.3461 43.6003)" style="fill:#E0C45D;" width="4.986" height="245.554"/>
							
								<rect x="171.952" y="459.014" transform="matrix(0.6366 0.7712 -0.7712 0.6366 488.4454 29.3406)" style="fill:#E8E8E8;" width="82.273" height="147.925"/>
							<text transform="matrix(0.6366 0.7712 -0.7712 0.6366 200.6303 509.4273)"><tspan x="0" y="0" style="fill:#D85F53; font-family:'AbhayaLibre-Bold'; font-size:19.9449px;">Fairy</tspan><tspan x="-1.373" y="19.945" style="fill:#D85F53; font-family:'AbhayaLibre-Bold'; font-size:19.9449px;">tales</tspan></text>
						</g>
					</g>
					<g>
						<path style="opacity:0.2;fill:#8089C4;" d="M156.584,540.607L-7.736,460.431c-3.509-1.712-4.869-6.013-2.983-9.432
							L101.9,230.658l168.272,84.289c2.05,1.032,2.875,3.53,1.843,5.58L162.164,538.764
							C161.132,540.814,158.634,541.639,156.584,540.607z"/>
						<g>
							<path style="fill:#D34A4D;" d="M144.765,525.72l-164.321-80.176c-3.509-1.712-4.869-6.013-2.983-9.432L90.08,215.77
								l168.272,84.289c2.05,1.032,2.875,3.53,1.843,5.58L150.345,523.876C149.313,525.926,146.815,526.751,144.765,525.72z"/>
							<g>
								<path style="fill:#E8E8E8;" d="M144.765,525.72l-156.406-79.848c-1.391-0.71-1.947-2.411-1.245-3.806L89.341,215.086
									l169.012,84.973L144.765,525.72z"/>
								
									<line style="fill:none;stroke:#D6DBDE;stroke-width:0.831;stroke-miterlimit:10;" x1="257.326" y1="299.408" x2="143.676" y2="525.191"/>
								
									<line style="fill:none;stroke:#D6DBDE;stroke-width:0.831;stroke-miterlimit:10;" x1="254.725" y1="299.029" x2="141.075" y2="524.812"/>
							</g>
							<path style="fill:#D85F53;" d="M139.606,515.195l-161.08-81.081L89.108,214.868l161.08,81.081
								c2.05,1.032,2.875,3.53,1.843,5.58L145.186,513.351C144.154,515.401,141.656,516.226,139.606,515.195z"/>
							
								<rect x="40.974" y="206.571" transform="matrix(0.8932 0.4496 -0.4496 0.8932 152.7152 15.6215)" style="fill:#D34A4D;" width="4.986" height="245.554"/>
							
								<rect x="73.573" y="295.211" transform="matrix(0.8932 0.4496 -0.4496 0.8932 178.2331 -12.1558)" style="fill:#E8E8E8;" width="82.273" height="147.925"/>
							<text transform="matrix(0.8932 0.4496 -0.4496 0.8932 93.7812 352.5972)"><tspan x="0" y="0" style="fill:#D85F53; font-family:'AbhayaLibre-Bold'; font-size:19.9449px;">Fairy</tspan><tspan x="-1.373" y="19.945" style="fill:#D85F53; font-family:'AbhayaLibre-Bold'; font-size:19.9449px;">tales</tspan></text>
						</g>
					</g>
				</g>
				<g>
					<g>
						<path style="opacity:0.2;fill:#8089C4;" d="M863.763,80.984L776.291,241.54c-1.868,3.428-6.226,4.594-9.556,2.557
							L551.672,121.7l91.757-164.319c1.123-2.001,3.655-2.714,5.657-1.591L862.172,75.327
							C864.173,76.45,864.886,78.983,863.763,80.984z"/>
						<g>
							<path style="fill:#D3C496;" d="M848.359,92.123L760.888,252.68c-1.868,3.428-6.226,4.594-9.556,2.557L536.268,132.84
								L628.025-31.48c1.123-2.001,3.655-2.714,5.657-1.591L846.768,86.467C848.77,87.589,849.482,90.122,848.359,92.123z"/>
							<g>
								<path style="fill:#E8E8E8;" d="M848.359,92.123l-86.788,152.664c-0.772,1.358-2.496,1.837-3.858,1.073L535.552,133.548
									L628.025-31.48L848.359,92.123z"/>
								
									<line style="fill:none;stroke:#D6DBDE;stroke-width:0.831;stroke-miterlimit:10;" x1="627.328" y1="-30.483" x2="847.782" y2="93.188"/>
								
									<line style="fill:none;stroke:#D6DBDE;stroke-width:0.831;stroke-miterlimit:10;" x1="626.833" y1="-27.902" x2="847.287" y2="95.769"/>
							</g>
							<path style="fill:#F3D364;" d="M837.613,96.804l-88.23,157.278L535.323,133.771l88.23-157.278
								c1.123-2.001,3.655-2.714,5.657-1.591L836.022,91.148C838.024,92.27,838.736,94.803,837.613,96.804z"/>
							
								<rect x="645.146" y="61.727" transform="matrix(0.4893 -0.8721 0.8721 0.4893 169.8596 659.0622)" style="fill:#E0C45D;" width="4.986" height="245.554"/>
							
								<rect x="649.485" y="41.159" transform="matrix(0.4893 -0.8721 0.8721 0.4893 252.3299 661.1174)" style="fill:#E8E8E8;" width="82.273" height="147.925"/>
							
								<text transform="matrix(0.4755 -0.8797 0.8797 0.4755 683.566 144.2738)" style="fill:#755AF2; font-family:'AbhayaLibre-Bold'; font-size:19.9449px;">Story</text>
						</g>
					</g>
					<g>
						<path style="opacity:0.2;fill:#8089C4;" d="M626.145-42.002l-144.673,111.8c-3.089,2.387-7.548,1.701-9.777-1.504
							L324.044-130.283l150.111-113.52c1.833-1.381,4.438-1.014,5.819,0.819L626.965-47.821
							C628.345-45.988,627.978-43.383,626.145-42.002z"/>
						<g>
							<path style="fill:#D34A4D;" d="M607.562-38.001l-144.673,111.8c-3.089,2.387-7.548,1.702-9.777-1.504L305.46-126.282
								l150.111-113.52c1.833-1.381,4.438-1.014,5.819,0.819L608.381-43.82C609.762-41.987,609.395-39.382,607.562-38.001z"/>
							<g>
								<path style="fill:#E8E8E8;" d="M607.562-38.001L466.689,66.848c-1.253,0.933-3.024,0.678-3.964-0.57l-158.206-192.2
									l151.052-113.88L607.562-38.001z"/>
								
									<line style="fill:none;stroke:#D6DBDE;stroke-width:0.831;stroke-miterlimit:10;" x1="454.532" y1="-239.17" x2="606.605" y2="-37.259"/>
								
									<line style="fill:none;stroke:#D6DBDE;stroke-width:0.831;stroke-miterlimit:10;" x1="453.041" y1="-237.006" x2="605.114" y2="-35.095"/>
							</g>
							<path style="fill:#D85F53;" d="M595.841-38.039L451.792,70.454L304.221-125.809L448.27-234.303
								c1.833-1.381,4.438-1.014,5.819,0.819L596.66-43.858C598.041-42.025,597.674-39.419,595.841-38.039z"/>
							
								<rect x="384.143" y="-156.954" transform="matrix(0.7988 -0.6016 0.6016 0.7988 98.3594 225.7307)" style="fill:#D34A4D;" width="4.986" height="245.554"/>
							
								<rect x="412.763" y="-154.368" transform="matrix(0.7988 -0.6016 0.6016 0.7988 139.7058 256.8959)" style="fill:#E8E8E8;" width="82.273" height="147.925"/>
							<text transform="matrix(0.7988 -0.6016 0.6016 0.7988 429.788 -69.017)"><tspan x="0" y="0" style="fill:#D85F53; font-family:'AbhayaLibre-Bold'; font-size:19.9449px;">Fairy</tspan><tspan x="-1.373" y="19.945" style="fill:#D85F53; font-family:'AbhayaLibre-Bold'; font-size:19.9449px;">tales</tspan></text>
						</g>
					</g>
					<g>
						<path style="opacity:0.2;fill:#8089C4;" d="M752.884,232.512L618.817,28.255c-1.259-1.919-3.835-2.453-5.754-1.194
							L454.694,133.624l133.825,203.888c2.643,4.027,8.067,5.12,12.063,2.431l23.762-15.989l14.109,21.961l2.602-13.559
							l13.519,3.202l-14.329-22.303l111.444-74.988C753.609,237.006,754.143,234.43,752.884,232.512z"/>
						<g>
							<path style="fill:#674BEB;" d="M731.688,228.264L580.58,329.941c-3.997,2.689-9.42,1.596-12.064-2.431L434.692,123.623
								L593.061,17.06c1.918-1.259,4.495-0.725,5.754,1.194l134.067,204.257C734.141,224.429,733.607,227.005,731.688,228.264z"/>
							<g>
								<path style="fill:#E8E8E8;" d="M730.224,226.067l-150.982,99.767c-3.023,1.997-7.093,1.159-9.081-1.869L435.136,118.25
									l156.46-103.387L730.224,226.067z"/>
								
									<line style="fill:none;stroke:#D6DBDE;stroke-width:0.831;stroke-miterlimit:10;" x1="590.656" y1="15.624" x2="729.359" y2="226.943"/>
								
									<line style="fill:none;stroke:#D6DBDE;stroke-width:0.831;stroke-miterlimit:10;" x1="588.521" y1="16.962" x2="727.224" y2="228.282"/>
							</g>
							<polygon style="fill:#FBEB8F;" points="634.573,325.555 621.054,322.353 618.452,335.913 577.963,272.893 594.084,262.535 
															"/>
							<path style="fill:#755AF2;" d="M718.468,227.703l-150.761,98.954L429.08,115.453l150.761-98.954
								c1.919-1.259,4.495-0.725,5.754,1.194l134.067,204.257C720.921,223.867,720.387,226.443,718.468,227.703z"/>
							
								<rect x="504.932" y="88.809" transform="matrix(0.836 -0.5487 0.5487 0.836 -34.8286 313.7201)" style="fill:#674BEB;" width="4.986" height="252.636"/>
							<text transform="matrix(0.836 -0.5487 0.5487 0.836 543.0243 186.0266)"><tspan x="0" y="0" style="fill:#E8E8E8; font-family:'AbhayaLibre-Bold'; font-size:17.5866px;">holiday</tspan><tspan x="12.812" y="17.587" style="fill:#E8E8E8; font-family:'AbhayaLibre-Bold'; font-size:17.5866px;">book</tspan></text>
							<path style="fill:none;stroke:#E8E8E8;stroke-miterlimit:10;" d="M643.442,209.711c0-2.463,1.275-4.625,3.198-5.872
								l-73.473-111.94c-1.1,0.719-2.411,1.141-3.823,1.141c-2.455,0-4.611-1.266-5.86-3.178l-57.103,37.48
								c0.737,1.109,1.169,2.439,1.169,3.87c0,2.445-1.255,4.594-3.154,5.846l73.473,111.94c1.091-0.702,2.386-1.114,3.779-1.114
								c2.447,0,4.598,1.258,5.849,3.16l57.103-37.481C643.869,212.457,643.442,211.134,643.442,209.711z"/>
						</g>
					</g>
				</g>
				<g>
					
						<ellipse transform="matrix(0.7071 -0.7071 0.7071 0.7071 -50.9179 183.349)" style="opacity:0.2;fill:#8089C4;" cx="195.863" cy="153.138" rx="80.112" ry="80.112"/>
					<g>
						<g>
							<g>
								
									<ellipse transform="matrix(0.7071 -0.7071 0.7071 0.7071 -56.47 174.5931)" style="fill:#F6F6F6;" cx="182.517" cy="155.462" rx="78.608" ry="78.608"/>
								<g>
									<path style="fill:#F7F9FF;" d="M202.995,226.525c32.875-8.702,55.21-38.092,56.039-70.898l-21.506-2.806
										C241.501,182.513,227.417,211.135,202.995,226.525z"/>
									<path style="fill:#F7F9FF;" d="M217.397,110.742l11.4-17.451c-17.008-12.705-39.25-18.191-61.593-13.194
										c-8.665,1.938-16.643,5.299-23.748,9.777c0.954-0.253,1.915-0.493,2.887-0.711
										C173.117,83.177,199.746,92.24,217.397,110.742z"/>
									<path style="fill:#F7F9FF;" d="M228.797,93.291l-11.4,17.451c9.137,9.577,15.869,21.681,18.968,35.539
										c0.488,2.183,0.873,4.365,1.164,6.541l21.506,2.806c0.153-6.057-0.426-12.231-1.809-18.413
										C253.136,118.926,242.72,103.691,228.797,93.291z"/>
									<path style="fill:#EEF2FF;" d="M217.397,110.742c-17.651-18.502-44.28-27.566-71.053-21.578
										c-0.972,0.217-1.932,0.458-2.887,0.711c-26.211,16.519-40.518,48.278-33.37,80.244
										c9.086,40.631,49.39,66.204,90.022,57.117c0.972-0.217,1.932-0.458,2.887-0.711c24.422-15.391,38.505-44.012,34.533-73.704
										c-0.291-2.176-0.676-4.358-1.164-6.541C233.266,132.423,226.533,120.319,217.397,110.742z"/>
								</g>
							</g>
							<g>
								<g>
									<path style="fill:#F6F6F6;" d="M251.11,114.383l-15.492,6.805c2.427,3.401,4.545,7.099,6.292,11.077
										c0.202,0.46,0.397,0.922,0.587,1.384l14.313-6.287c2.313-1.016,3.365-3.715,2.349-6.028l-2.021-4.601
										C256.123,114.419,253.424,113.367,251.11,114.383z"/>
									<path style="fill:#F0ECE8;" d="M235.618,121.187l-8.243,3.62l5.7,12.979l9.421-4.138c-0.19-0.462-0.385-0.924-0.587-1.384
										C240.163,128.287,238.046,124.588,235.618,121.187z"/>
								</g>
								<g>
									
										<ellipse transform="matrix(0.9533 -0.302 0.302 0.9533 -37.8348 62.6461)" style="fill:#F6F6F6;" cx="183.657" cy="153.667" rx="52.62" ry="52.62"/>
									<path style="fill:#DEC8B2;" d="M139.564,158.245c5.41,24.194,29.409,39.42,53.603,34.01
										c24.194-5.41,39.421-29.409,34.01-53.603c-3.253-14.548-13.229-25.851-25.925-31.377
										c-8.77-3.335-18.581-4.227-28.422-2.027c-4.181,0.935-8.12,2.372-11.767,4.234
										C144.424,119.002,135.161,138.559,139.564,158.245z"/>
									<path style="fill:#EDE0D3;" d="M201.251,107.276c12.696,5.526,22.672,16.829,25.925,31.377
										c5.41,24.194-9.817,48.192-34.01,53.603c-24.194,5.41-48.192-9.816-53.603-34.01c-4.402-19.686,4.86-39.243,21.498-48.762
										c-19.678,10.046-30.868,32.452-25.823,55.011c5.98,26.74,32.505,43.57,59.245,37.59c26.74-5.98,43.57-32.505,37.59-59.245
										C228.295,125.94,216.309,113.003,201.251,107.276z"/>
									<g>
										<g>
											<path style="fill:#362628;" d="M148.757,159.27c-3.517-15.729,2.819-31.365,14.917-40.457
												c-15.533,8.135-24.326,25.938-20.317,43.865c4.789,21.415,26.032,34.894,47.447,30.105
												c5.687-1.272,10.814-3.704,15.187-6.991c-3.023,1.583-6.299,2.802-9.787,3.582
												C174.789,194.164,153.546,180.686,148.757,159.27z"/>
											<path style="fill:#422E32;" d="M220.909,145.336c-4.789-21.415-26.032-34.894-47.447-30.105
												c-3.489,0.78-6.765,1.999-9.787,3.582c-12.098,9.092-18.435,24.728-14.917,40.457
												c4.789,21.415,26.032,34.894,47.447,30.105c3.488-0.78,6.765-1.999,9.787-3.582
												C218.09,176.701,224.426,161.065,220.909,145.336z"/>
										</g>
										<path style="fill:#AD6E4E;" d="M173.462,115.231c-3.489,0.78-6.765,1.999-9.787,3.582
											c-15.533,8.135-24.326,25.938-20.317,43.865c4.789,21.415,26.032,34.894,47.447,30.105
											c5.687-1.272,10.814-3.704,15.187-6.991c12.098-9.092,18.435-24.728,14.917-40.457
											C216.12,123.921,194.877,110.442,173.462,115.231z M206.435,183.594c-3.917,2.944-8.509,5.122-13.602,6.261
											c-19.18,4.289-35.473-7.265-39.782-21.766c-4.687-15.771,20.355-16.283,18.411-34.512
											c-1.28-12.003,2.536-13.755,7.431-14.46c19.454-2.802,36.613,9.062,40.902,28.242
											C222.946,161.447,217.27,175.451,206.435,183.594z"/>
										<g>
											<path style="fill:#DEC8B2;" d="M167.738,130.038c0.546,2.44-0.99,4.861-3.43,5.406c-2.44,0.546-4.861-0.99-5.406-3.43
												s0.99-4.861,3.43-5.406C164.771,126.062,167.192,127.598,167.738,130.038z"/>
											<path style="fill:#422E32;" d="M167.026,129.717c0.527,2.356-0.956,4.693-3.312,5.22
												c-2.356,0.527-4.693-0.956-5.22-3.312c-0.527-2.356,0.956-4.693,3.312-5.22
												C164.162,125.878,166.499,127.361,167.026,129.717z"/>
											<path style="fill:#DEC8B2;" d="M160.625,129.709c0.057,0.253-0.102,0.503-0.355,0.559
												c-0.253,0.057-0.503-0.102-0.559-0.355c-0.057-0.253,0.102-0.503,0.355-0.559
												C160.318,129.297,160.569,129.456,160.625,129.709z"/>
											<path style="fill:#DEC8B2;" d="M161.287,127.804c0.268-0.179,0.576-0.288,0.884-0.38c0.333-0.1,0.673-0.184,1.02-0.209
												c0.459-0.033,0.924,0.04,1.351,0.211c0.166,0.066,0.472,0.208,0.367,0.352c-0.223,0.307-0.749-0.089-1.128-0.108
												c-0.244-0.012-0.487,0.036-0.724,0.097c-0.688,0.178-1.346,0.467-1.942,0.855c-0.331,0.215-0.407-0.014-0.322-0.288
												C160.859,128.123,161.111,127.922,161.287,127.804z"/>
										</g>
										<g>
											<path style="fill:#DEC8B2;" d="M151.221,150.974c1.117,0.972,1.235,2.665,0.263,3.783
												c-0.972,1.117-2.665,1.235-3.783,0.263c-1.117-0.972-1.235-2.665-0.263-3.783
												C148.411,150.12,150.104,150.002,151.221,150.974z"/>
											<path style="fill:#422E32;" d="M150.77,151.071c1.079,0.938,1.192,2.574,0.254,3.652
												c-0.938,1.079-2.574,1.192-3.652,0.254c-1.079-0.939-1.192-2.574-0.254-3.652
												C148.056,150.246,149.691,150.132,150.77,151.071z"/>
											<path style="fill:#DEC8B2;" d="M147.714,153.315c0.116,0.101,0.128,0.276,0.027,0.391
												c-0.1,0.115-0.276,0.128-0.391,0.027c-0.115-0.101-0.128-0.276-0.027-0.391
												C147.424,153.226,147.599,153.214,147.714,153.315z"/>
											<path style="fill:#DEC8B2;" d="M147.361,152.174c0.065-0.179,0.173-0.339,0.288-0.492
												c0.124-0.165,0.256-0.324,0.413-0.458c0.207-0.177,0.455-0.305,0.718-0.374c0.102-0.027,0.298-0.067,0.299,0.039
												c0.001,0.225-0.388,0.221-0.576,0.345c-0.121,0.08-0.22,0.188-0.311,0.301c-0.266,0.326-0.478,0.696-0.626,1.09
												c-0.082,0.219-0.199,0.136-0.255-0.024C147.269,152.476,147.319,152.292,147.361,152.174z"/>
										</g>
										<g>
											<path style="fill:#DEC8B2;" d="M149.332,164.216c-0.532,1.131-1.88,1.618-3.012,1.086
												c-1.132-0.532-1.618-1.88-1.086-3.012c0.532-1.132,1.88-1.618,3.012-1.086
												C149.378,161.736,149.864,163.084,149.332,164.216z"/>
											<path style="fill:#422E32;" d="M149.149,163.871c-0.513,1.092-1.815,1.562-2.908,1.049
												c-1.093-0.513-1.562-1.815-1.049-2.908c0.513-1.092,1.815-1.562,2.908-1.049
												C149.193,161.477,149.663,162.779,149.149,163.871z"/>
											<path style="fill:#DEC8B2;" d="M146.622,161.907c-0.055,0.117-0.195,0.167-0.312,0.112
												c-0.117-0.055-0.167-0.195-0.112-0.312c0.055-0.117,0.195-0.167,0.312-0.112
												C146.627,161.651,146.677,161.79,146.622,161.907z"/>
											<path style="fill:#DEC8B2;" d="M147.467,161.357c0.161,0.011,0.316,0.063,0.466,0.12c0.162,0.062,0.322,0.133,0.467,0.23
												c0.191,0.128,0.353,0.299,0.469,0.497c0.045,0.077,0.123,0.227,0.037,0.252c-0.182,0.053-0.269-0.265-0.413-0.388
												c-0.093-0.08-0.204-0.135-0.316-0.183c-0.326-0.14-0.675-0.228-1.029-0.257c-0.197-0.016-0.157-0.13-0.039-0.212
												C147.2,161.352,147.362,161.35,147.467,161.357z"/>
										</g>
										<g>
											<path style="fill:#DEC8B2;" d="M155.408,175.837c0.721,0.573,0.84,1.622,0.267,2.343
												c-0.573,0.721-1.622,0.84-2.343,0.267c-0.721-0.573-0.84-1.622-0.267-2.343
												C153.638,175.383,154.687,175.264,155.408,175.837z"/>
											<path style="fill:#422E32;" d="M155.13,175.909c0.696,0.553,0.811,1.566,0.258,2.262
												c-0.553,0.696-1.566,0.811-2.262,0.258c-0.696-0.553-0.811-1.566-0.258-2.262
												C153.421,175.471,154.434,175.356,155.13,175.909z"/>
											<path style="fill:#DEC8B2;" d="M153.293,177.387c0.075,0.059,0.087,0.168,0.028,0.242
												c-0.059,0.075-0.168,0.087-0.242,0.028c-0.075-0.059-0.087-0.168-0.028-0.242
												C153.11,177.34,153.219,177.328,153.293,177.387z"/>
											<path style="fill:#DEC8B2;" d="M153.043,176.688c0.035-0.113,0.098-0.216,0.165-0.314
												c0.072-0.106,0.15-0.208,0.244-0.296c0.124-0.116,0.274-0.202,0.436-0.252c0.063-0.019,0.183-0.049,0.187,0.016
												c0.007,0.14-0.235,0.148-0.348,0.23c-0.073,0.053-0.131,0.123-0.185,0.195c-0.156,0.21-0.278,0.445-0.359,0.694
												c-0.045,0.138-0.12,0.09-0.159-0.008C152.994,176.879,153.019,176.763,153.043,176.688z"/>
										</g>
										<g>
											<path style="fill:#DEC8B2;" d="M170.624,121.486c-0.186,0.902-1.067,1.482-1.969,1.297s-1.482-1.068-1.297-1.969
												c0.186-0.902,1.067-1.482,1.969-1.297C170.229,119.702,170.81,120.584,170.624,121.486z"/>
											<path style="fill:#422E32;" d="M170.434,121.27c-0.179,0.871-1.031,1.431-1.901,1.252
												c-0.871-0.179-1.431-1.031-1.252-1.901c0.179-0.871,1.031-1.431,1.902-1.252
												C170.053,119.548,170.613,120.4,170.434,121.27z"/>
											<path style="fill:#DEC8B2;" d="M168.286,120.3c-0.019,0.093-0.11,0.153-0.204,0.134c-0.093-0.019-0.153-0.11-0.134-0.204
												c0.019-0.093,0.11-0.153,0.204-0.134C168.245,120.115,168.305,120.206,168.286,120.3z"/>
											<path style="fill:#DEC8B2;" d="M168.796,119.76c0.117-0.02,0.237-0.01,0.354,0.006c0.127,0.017,0.254,0.04,0.374,0.084
												c0.159,0.058,0.304,0.153,0.422,0.275c0.046,0.047,0.127,0.141,0.07,0.174c-0.122,0.069-0.238-0.143-0.363-0.207
												c-0.08-0.041-0.169-0.062-0.258-0.077c-0.258-0.044-0.523-0.047-0.782-0.007c-0.144,0.022-0.135-0.066-0.065-0.145
												C168.604,119.802,168.719,119.773,168.796,119.76z"/>
										</g>
										<g>
											<path style="fill:#DEC8B2;" d="M163.786,142.721c0.991,1.718,0.401,3.914-1.316,4.905
												c-1.718,0.991-3.914,0.401-4.904-1.316c-0.991-1.718-0.402-3.914,1.316-4.905
												C160.6,140.413,162.795,141.003,163.786,142.721z"/>
											<path style="fill:#422E32;" d="M163.172,142.646c0.957,1.659,0.388,3.779-1.271,4.735
												c-1.659,0.957-3.779,0.388-4.735-1.271c-0.957-1.659-0.388-3.779,1.271-4.735
												C160.095,140.419,162.215,140.988,163.172,142.646z"/>
											<path style="fill:#DEC8B2;" d="M158.324,144.156c0.102,0.178,0.042,0.405-0.136,0.507
												c-0.178,0.103-0.405,0.042-0.507-0.136c-0.102-0.178-0.042-0.405,0.136-0.507
												C157.995,143.917,158.222,143.978,158.324,144.156z"/>
											<path style="fill:#DEC8B2;" d="M158.374,142.557c0.16-0.199,0.368-0.354,0.579-0.497c0.228-0.155,0.466-0.299,0.723-0.4
												c0.339-0.133,0.709-0.189,1.073-0.16c0.141,0.011,0.406,0.046,0.361,0.18c-0.096,0.285-0.588,0.11-0.88,0.186
												c-0.188,0.049-0.36,0.143-0.525,0.245c-0.479,0.298-0.909,0.673-1.268,1.107c-0.2,0.241-0.311,0.086-0.312-0.142
												C158.126,142.9,158.27,142.688,158.374,142.557z"/>
										</g>
										<g>
											<path style="fill:#DEC8B2;" d="M157.452,133.472c0.991,1.718,0.401,3.914-1.316,4.904
												c-1.718,0.991-3.914,0.401-4.904-1.316c-0.991-1.718-0.402-3.914,1.316-4.905
												C154.265,131.165,156.461,131.754,157.452,133.472z"/>
											<path style="fill:#422E32;" d="M156.837,133.398c0.957,1.659,0.388,3.779-1.271,4.736
												c-1.659,0.957-3.779,0.388-4.735-1.271c-0.957-1.659-0.388-3.779,1.271-4.735
												C153.761,131.17,155.881,131.739,156.837,133.398z"/>
											<path style="fill:#DEC8B2;" d="M151.99,134.907c0.102,0.178,0.042,0.405-0.136,0.507
												c-0.178,0.102-0.405,0.041-0.507-0.136c-0.102-0.178-0.042-0.405,0.136-0.507
												C151.661,134.669,151.888,134.729,151.99,134.907z"/>
											<path style="fill:#DEC8B2;" d="M152.04,133.309c0.16-0.199,0.367-0.354,0.579-0.497c0.228-0.155,0.466-0.299,0.723-0.4
												c0.339-0.133,0.709-0.189,1.073-0.16c0.141,0.011,0.406,0.046,0.361,0.18c-0.096,0.286-0.588,0.11-0.88,0.186
												c-0.188,0.049-0.36,0.143-0.525,0.245c-0.479,0.298-0.909,0.673-1.268,1.107c-0.2,0.241-0.312,0.086-0.312-0.142
												C151.792,133.651,151.935,133.439,152.04,133.309z"/>
										</g>
										<g>
											<path style="fill:#DEC8B2;" d="M151.74,147.17c-1.506,0.843-3.41,0.306-4.253-1.2c-0.843-1.506-0.306-3.41,1.2-4.253
												c1.506-0.843,3.41-0.306,4.253,1.199S153.245,146.327,151.74,147.17z"/>
											<path style="fill:#422E32;" d="M151.811,146.636c-1.454,0.814-3.292,0.296-4.106-1.158
												c-0.814-1.454-0.296-3.292,1.158-4.106c1.454-0.814,3.292-0.296,4.106,1.158
												C153.783,143.983,153.265,145.822,151.811,146.636z"/>
											<path style="fill:#DEC8B2;" d="M150.551,142.402c-0.156,0.087-0.353,0.032-0.44-0.124
												c-0.087-0.156-0.032-0.353,0.124-0.44c0.156-0.087,0.353-0.032,0.44,0.124
												C150.763,142.118,150.707,142.315,150.551,142.402z"/>
											<path style="fill:#DEC8B2;" d="M151.941,142.463c0.171,0.142,0.304,0.324,0.426,0.509
												c0.132,0.201,0.255,0.409,0.34,0.633c0.112,0.297,0.156,0.619,0.128,0.935c-0.011,0.123-0.044,0.353-0.16,0.312
												c-0.247-0.087-0.089-0.513-0.152-0.767c-0.04-0.164-0.12-0.315-0.207-0.459c-0.253-0.42-0.575-0.798-0.949-1.115
												c-0.208-0.176-0.071-0.272,0.127-0.27C151.646,142.243,151.829,142.37,151.941,142.463z"/>
										</g>
									</g>
								</g>
							</g>
						</g>
					</g>
				</g>
				<g>
					<path style="opacity:0.2;fill:#8089C4;" d="M396.371,72.128c-0.509-0.354-1.018-0.708-1.529-1.059
						c-3.716-2.552-7.532-4.954-11.567-6.958c-3.191-1.585-6.459-3.036-9.763-4.371c-4.626-1.868-9.4-3.266-14.388-3.789
						c-9.475-0.995-18.058,1.312-25.764,6.815c-0.64-0.095-1.282-0.172-1.927-0.214c-0.525-0.365-1.051-0.726-1.563-1.108
						c-3.746-2.796-7.909-4.534-12.586-4.893c-2.271-2.073-4.917-3.681-7.793-4.73c-0.466-1.029-0.975-2.039-1.532-3.028
						c-4.845-8.599-12.173-14.178-21.375-17.404c-2.818-0.988-5.694-1.85-8.598-2.541c-3.251-0.774-6.548-1.393-9.853-1.891
						c-4.536-0.684-9.118-0.926-13.706-0.997c-1.104-0.017-1.499,0.253-1.854,1.318c-0.636,1.905-1.259,3.813-1.909,5.713
						c-0.397,1.16-0.839,2.304-0.554,3.569c0.026,0.114,0.004,0.24-0.008,0.36c-0.513,4.999-1.029,9.998-1.542,14.997
						c-0.349,3.404-0.86,6.801-1.01,10.214c-0.617,14.029,8.587,27.401,23.839,30.322c4.884,0.935,9.701,0.59,14.418-0.969
						c6.264-2.07,11.285-5.82,15.044-11.251c0.111-0.16,0.244-0.412,0.386-0.426c1.141-0.114,1.788-0.947,2.46-1.694
						c1.891-2.102,3.363-4.491,4.491-7.072c0.556-1.272,1.075-2.56,1.585-3.851l4.264,0.992l-5.466,3.382l17.823,4.781
						c-0.205,0.985-0.372,1.979-0.472,2.988c-0.222,2.257-0.382,4.513-0.012,6.766c0.118,0.718,0.207,1.478,0.875,1.98
						c0.09,0.068,0.084,0.298,0.079,0.451c-0.162,5.613,1.12,10.869,3.993,15.699c4.627,7.779,11.437,12.522,20.323,14.109
						c6.929,1.237,13.49-0.075,19.574-3.612c4.729-2.75,8.404-6.554,11.111-11.314c2.791-4.908,5.596-9.809,8.461-14.674
						c1.297-2.202,2.387-4.54,4.078-6.5c0.176-0.204,0.271-0.491,0.359-0.754c0.408-1.219,0.799-2.443,1.197-3.665
						c-0.024-0.008-0.048-0.016-0.072-0.023c0.397-1.222,0.8-2.443,1.19-3.667C397.376,73.195,397.193,72.699,396.371,72.128z"/>
					<g>
						<g>
							<path style="fill:#5C4046;" d="M386.372,108.131c-1.042,0-1.952-0.767-2.103-1.828l-1.482-10.434
								c-1.141-8.038-6.628-14.647-14.32-17.248l-120.452-44.62c-1.101-0.408-1.663-1.631-1.255-2.732
								c0.408-1.101,1.632-1.663,2.732-1.255l120.395,44.599c9.164,3.097,15.742,11.021,17.111,20.658l1.481,10.434
								c0.165,1.163-0.643,2.239-1.806,2.404C386.573,108.124,386.472,108.131,386.372,108.131z"/>
						</g>
						
							<path style="fill:none;stroke:#422E32;stroke-width:4.252;stroke-linecap:round;stroke-linejoin:round;stroke-miterlimit:10;" d="
							M377.479,75.989L256.774,32.236c-8.253-3.263-17.639-1.6-24.269,4.3l-7.873,7.006"/>
						<g>
							<g>
								<path style="fill:#422E32;" d="M385.96,67.816c-0.397,1.222-0.789,2.446-1.197,3.665c-0.088,0.263-0.183,0.55-0.359,0.754
									c-1.69,1.96-2.781,4.298-4.078,6.5c-2.865,4.865-5.67,9.766-8.461,14.674c-2.706,4.76-6.381,8.564-11.111,11.314
									c-6.084,3.538-12.645,4.85-19.574,3.612c-8.886-1.586-15.696-6.33-20.323-14.109c-2.873-4.83-4.155-10.086-3.993-15.699
									c0.004-0.154,0.01-0.383-0.079-0.451c-0.668-0.502-0.757-1.262-0.875-1.98c-0.37-2.252-0.21-4.508,0.012-6.766
									c0.306-3.117,1.221-6.091,2.096-9.072c0.199-0.679,0.079-1.069-0.491-1.507c-4.672-3.586-9.939-5.246-15.818-5.017
									c-0.431,0.017-0.642,0.168-0.795,0.555c-0.894,2.256-1.755,4.527-2.727,6.749c-1.129,2.582-2.6,4.971-4.491,7.072
									c-0.672,0.747-1.319,1.58-2.46,1.694c-0.142,0.014-0.275,0.266-0.386,0.426c-3.759,5.43-8.78,9.181-15.044,11.251
									c-4.717,1.559-9.534,1.904-14.418,0.969c-15.252-2.921-24.456-16.293-23.839-30.322c0.15-3.413,0.661-6.81,1.01-10.213
									c0.512-4.999,1.029-9.998,1.542-14.997c0.012-0.119,0.034-0.246,0.008-0.36c-0.285-1.264,0.157-2.409,0.554-3.569
									c0.65-1.9,1.273-3.809,1.909-5.713c0.355-1.065,0.75-1.335,1.854-1.318c4.588,0.07,9.17,0.313,13.706,0.997
									c3.305,0.498,6.602,1.117,9.853,1.891c2.904,0.691,5.78,1.554,8.598,2.541c9.203,3.226,16.53,8.805,21.375,17.404
									c1.275,2.262,2.346,4.616,3.05,7.123c0.096,0.342,0.23,0.476,0.611,0.481c1.861,0.022,3.727,0.009,5.581,0.145
									c4.711,0.345,8.9,2.09,12.669,4.902c0.769,0.574,1.579,1.095,2.351,1.665c0.256,0.189,0.411,0.177,0.669-0.013
									c7.826-5.747,16.567-8.16,26.233-7.145c4.988,0.524,9.762,1.921,14.388,3.789c3.305,1.334,6.572,2.786,9.763,4.371
									c4.036,2.004,7.851,4.406,11.567,6.958c0.511,0.351,1.02,0.705,1.529,1.058c0.823,0.571,1.005,1.067,0.708,1.999
									c-0.39,1.224-0.793,2.445-1.19,3.667C385.912,67.8,385.936,67.808,385.96,67.816z M239.981,45.018
									c-4.699,14.676,3.002,30.47,17.938,35.353c15.65,5.117,30.997-3.943,35.493-18.026c4.734-14.829-3.375-30.625-18.112-35.355
									C260.762,22.323,244.894,30.109,239.981,45.018z M319.4,70.852c-4.785,14.753,3.297,30.579,18.071,35.39
									c14.745,4.802,31.464-3.339,35.828-19.593c3.637-13.544-3.626-28.955-18.54-33.811
									C340.038,48.045,324.174,56.135,319.4,70.852z"/>
								<path style="opacity:0.22;fill:#FFFFFF;" d="M239.981,45.018c4.914-14.908,20.781-22.695,35.318-18.028
									c14.737,4.731,22.847,20.526,18.112,35.355c-4.496,14.084-19.843,23.143-35.493,18.026
									C242.983,75.488,235.282,59.694,239.981,45.018z"/>
								<path style="opacity:0.07;fill:#FFFFFF;" d="M319.4,70.852c4.774-14.717,20.637-22.806,35.359-18.013
									c14.914,4.856,22.177,20.266,18.54,33.811c-4.364,16.254-21.083,24.394-35.828,19.593
									C322.697,101.43,314.615,85.604,319.4,70.852z"/>
							</g>
							<path style="opacity:0.07;fill:#FFFFFF;" d="M242.619,68.416c10.034-16.125,23.745-29.063,39.572-38.13
								c-2.14-1.442-4.512-2.615-7.091-3.443c-14.538-4.667-30.405,3.12-35.318,18.028C237.157,53.07,238.405,61.616,242.619,68.416
								z"/>
							<path style="opacity:0.07;fill:#FFFFFF;" d="M322.117,94.265c10.034-16.125,23.745-29.063,39.572-38.13
								c-2.14-1.442-4.511-2.615-7.091-3.443c-14.538-4.667-30.405,3.12-35.318,18.028
								C316.655,78.919,317.903,87.466,322.117,94.265z"/>
							<g>
								<path style="fill:#E6E6E6;" d="M246.345,24.424c4.674-2.564,10.033-3.983,15.455-4.194
									c5.431-0.238,10.913,0.759,15.986,2.76c0.649,0.215,1.26,0.519,1.872,0.823l1.839,0.898
									c0.625,0.277,1.201,0.644,1.782,1.001l1.74,1.074c0.591,0.341,1.116,0.781,1.657,1.195l1.615,1.251
									c1.073,0.836,2,1.849,2.987,2.777c3.771,3.902,6.659,8.688,8.033,13.847c-2.344-4.785-5.547-8.99-9.382-12.461
									c-3.843-3.455-8.277-6.218-13.06-8.105c-4.767-1.929-9.884-2.973-15.053-3.134
									C256.638,22.008,251.422,22.809,246.345,24.424z"/>
							</g>
							<path style="fill:#5C4046;" d="M377.637,59.545l5.677,3.099c0.953,0.52,1.421,1.628,1.131,2.674l-1.079,3.884L377.637,59.545
								z"/>
							<g>
								<path style="fill:#E6E6E6;" d="M302.033,49.104c1.437-0.53,2.984-0.744,4.526-0.734c1.546,0,3.09,0.259,4.578,0.691
									c1.48,0.46,2.909,1.097,4.199,1.951c1.291,0.843,2.461,1.877,3.365,3.115c-1.328-0.758-2.619-1.46-3.946-2.068
									c-1.329-0.597-2.675-1.127-4.061-1.531c-1.378-0.431-2.792-0.733-4.23-0.971C305.022,49.331,303.558,49.203,302.033,49.104z
									"/>
							</g>
						</g>
					</g>
				</g>
				<g>
					<path style="fill:#755AF2;" d="M572.18,651.32l-188.857-41.872c-4.516-1.108-7.278-5.667-6.169-10.183l57.266-233.329
						c1.108-4.516,5.667-7.278,10.183-6.169l192.209,48.961L572.18,651.32z"/>
					<path style="fill:#755AF2;" d="M569.562,650.129l185.552,54.687c4.488,1.214,9.111-1.441,10.324-5.929l62.721-231.922
						c1.214-4.488-1.441-9.111-5.929-10.324l-191.915-50.104L569.562,650.129z"/>
					<path style="fill:#EDECE1;" d="M571.944,645.214l-4.461-3.75c-21.944-18.447-48.604-30.398-76.976-34.506l-111.319-1.299
						l71.521-244.379l111.319,1.298c28.372,4.108,55.032,16.059,76.976,34.506l4.461,3.75L571.944,645.214z"/>
					<path style="fill:#F7F6EB;" d="M571.944,645.214l-4.461-3.75c-21.944-18.447-48.604-30.398-76.976-34.506l-100.337-4.522
						l71.521-244.379l100.337,4.522c28.372,4.108,55.032,16.059,76.976,34.506l4.461,3.75L571.944,645.214z"/>
					<path style="fill:#EDECE1;" d="M571.51,645.086l5.778-0.753c28.427-3.705,57.324,0.603,83.434,12.44l86.943,50.288
						l73.627-255.35l-84.784-40.258c-26.11-11.837-59.271-15.205-87.698-11.499l-5.778,0.753L571.51,645.086z"/>
					<g>
						<path style="fill:none;stroke:#A3AFFB;stroke-width:3.9776;stroke-miterlimit:10;" d="M477.472,385.231l75.63,9.979
							c21.602,4.269,42.519,12.421,60.393,23.535l3.633,2.259"/>
						<path style="fill:none;stroke:#A3AFFB;stroke-width:3.9776;stroke-miterlimit:10;" d="M472.329,399.301l75.63,9.979
							c21.602,4.269,42.518,12.421,60.393,23.535l3.633,2.259"/>
						<path style="fill:none;stroke:#A3AFFB;stroke-width:3.9776;stroke-miterlimit:10;" d="M467.187,413.371l75.63,9.979
							c21.602,4.269,42.518,12.421,60.393,23.535l3.633,2.259"/>
					</g>
					<g>
						<g>
							<path style="fill:none;stroke:#A3AFFB;stroke-width:3.9776;stroke-miterlimit:10;" d="M477.472,385.231l75.63,9.979
								c21.602,4.269,42.519,12.421,60.393,23.535l3.633,2.259"/>
							<path style="fill:none;stroke:#A3AFFB;stroke-width:3.9776;stroke-miterlimit:10;" d="M472.329,399.301l75.63,9.979
								c21.602,4.269,42.518,12.421,60.393,23.535l3.633,2.259"/>
							<path style="fill:none;stroke:#A3AFFB;stroke-width:3.9776;stroke-miterlimit:10;" d="M467.187,413.371l75.63,9.979
								c21.602,4.269,42.518,12.421,60.393,23.535l3.633,2.259"/>
						</g>
						<g>
							<path style="fill:none;stroke:#A3AFFB;stroke-width:3.9776;stroke-miterlimit:10;" d="M461.767,439.007l75.63,9.979
								c21.602,4.269,42.518,12.421,60.393,23.535l3.633,2.259"/>
							<path style="fill:none;stroke:#A3AFFB;stroke-width:3.9776;stroke-miterlimit:10;" d="M456.625,453.076l75.63,9.979
								c21.602,4.269,42.518,12.421,60.393,23.536l3.633,2.259"/>
							<path style="fill:none;stroke:#A3AFFB;stroke-width:3.9776;stroke-miterlimit:10;" d="M451.483,467.146l75.63,9.979
								c21.602,4.269,42.518,12.421,60.393,23.535l3.633,2.259"/>
						</g>
						<g>
							<path style="fill:none;stroke:#A3AFFB;stroke-width:3.9776;stroke-miterlimit:10;" d="M445.625,496.392l75.63,9.979
								c21.602,4.269,42.518,12.421,60.393,23.535l3.633,2.259"/>
							<path style="fill:none;stroke:#A3AFFB;stroke-width:3.9776;stroke-miterlimit:10;" d="M440.483,510.462l75.63,9.979
								c21.945,4.337,48.843,16.353,60.393,23.535l3.633,2.259"/>
							<path style="fill:none;stroke:#A3AFFB;stroke-width:3.9776;stroke-miterlimit:10;" d="M435.34,524.532l75.63,9.979
								c22.288,4.405,55.167,20.286,60.393,23.535l3.633,2.259"/>
						</g>
						<g>
							<path style="fill:none;stroke:#A3AFFB;stroke-width:3.9776;stroke-miterlimit:10;" d="M429.216,546.39l75.63,9.979
								c21.602,4.269,42.519,12.421,60.393,23.536l3.633,2.259"/>
							<path style="fill:none;stroke:#A3AFFB;stroke-width:3.9776;stroke-miterlimit:10;" d="M425.77,561.096l75.63,9.979
								c21.602,4.269,42.519,12.421,60.393,23.536l3.633,2.259"/>
							<path style="fill:none;stroke:#A3AFFB;stroke-width:3.9776;stroke-miterlimit:10;" d="M422.324,575.802l75.63,9.979
								c21.602,4.269,42.519,12.421,60.393,23.536l3.633,2.259"/>
						</g>
					</g>
					<g>
						<g>
							<path style="fill:none;stroke:#A3AFFB;stroke-width:3.9776;stroke-miterlimit:10;" d="M653.553,430.972
								c0,0,31.82-1.046,50.017,1.83c27.648,4.37,68.707,22.574,86.582,33.688l3.633,2.259"/>
							<path style="fill:none;stroke:#A3AFFB;stroke-width:3.9776;stroke-miterlimit:10;" d="M649.893,447.136
								c0,0,43.02,0.22,61.629,4.812c24.184,5.967,55.613,17.497,73.487,28.612l3.633,2.259"/>
							<path style="fill:none;stroke:#A3AFFB;stroke-width:3.9776;stroke-miterlimit:10;" d="M646.233,463.3
								c0,0,54.287,1.22,73.241,7.795c20.804,7.216,42.518,12.421,60.393,23.535l3.633,2.259"/>
						</g>
						<g>
							<path style="fill:none;stroke:#A3AFFB;stroke-width:3.9776;stroke-miterlimit:10;" d="M638.425,486.752l75.63,9.979
								c21.602,4.269,42.518,12.421,60.393,23.535l3.633,2.259"/>
							<path style="fill:none;stroke:#A3AFFB;stroke-width:3.9776;stroke-miterlimit:10;" d="M633.283,500.822l75.63,9.979
								c21.602,4.269,42.518,12.421,60.393,23.535l3.633,2.259"/>
							<path style="fill:none;stroke:#A3AFFB;stroke-width:3.9776;stroke-miterlimit:10;" d="M628.14,514.891l75.63,9.979
								c21.602,4.269,42.518,12.421,60.393,23.536l3.633,2.259"/>
						</g>
						<g>
							<path style="fill:none;stroke:#A3AFFB;stroke-width:3.9776;stroke-miterlimit:10;" d="M622.282,544.138l75.63,9.979
								c21.602,4.269,42.518,12.421,60.393,23.535l3.633,2.259"/>
							<path style="fill:none;stroke:#A3AFFB;stroke-width:3.9776;stroke-miterlimit:10;" d="M617.14,558.208l75.63,9.979
								c21.945,4.337,48.843,16.353,60.393,23.535l3.633,2.259"/>
							<path style="fill:none;stroke:#A3AFFB;stroke-width:3.9776;stroke-miterlimit:10;" d="M611.998,572.278l75.63,9.979
								c22.288,4.405,55.167,20.286,60.393,23.535l3.633,2.259"/>
						</g>
						<g>
							<path style="fill:none;stroke:#A3AFFB;stroke-width:3.9776;stroke-miterlimit:10;" d="M605.873,594.136l75.63,9.979
								c21.602,4.269,42.518,12.421,60.393,23.535l3.633,2.259"/>
							<path style="fill:none;stroke:#A3AFFB;stroke-width:3.9776;stroke-miterlimit:10;" d="M602.427,608.842l75.63,9.979
								c21.602,4.269,42.518,12.421,60.393,23.535l3.633,2.259"/>
							<path style="fill:none;stroke:#A3AFFB;stroke-width:3.9776;stroke-miterlimit:10;" d="M598.982,623.548l75.63,9.979
								c21.602,4.269,42.518,12.421,60.393,23.535l3.633,2.259"/>
						</g>
					</g>
				</g>
			</g>
		</g>
		<g style="clip-path:url(#SVGID_00000029735103226280426990000011369137186859343290_);">
			<g>
				<path style="fill:#F7F6EB;" d="M293.534,178.562l1.57-3.904l1.57,3.904c0.94,2.337,2.792,4.188,5.128,5.128l3.904,1.57
					l-3.904,1.57c-2.336,0.94-4.188,2.792-5.128,5.128l-1.57,3.904l-1.57-3.904c-0.94-2.337-2.792-4.189-5.128-5.128l-3.904-1.57
					l3.904-1.57C290.742,182.751,292.594,180.899,293.534,178.562z"/>
				<path style="fill:#F7F6EB;" d="M408.198,150.76l1.57-3.904l1.57,3.904c0.94,2.336,2.792,4.188,5.128,5.128l3.904,1.57
					l-3.904,1.57c-2.336,0.94-4.189,2.792-5.128,5.128l-1.57,3.904l-1.57-3.904c-0.94-2.336-2.792-4.188-5.128-5.128l-3.904-1.57
					l3.904-1.57C405.406,154.948,407.258,153.096,408.198,150.76z"/>
				<path style="fill:#F7F6EB;" d="M426.505,299.966l-0.793,1.971l-0.793-1.971c-0.474-1.179-1.409-2.114-2.588-2.588l-1.971-0.793
					l1.971-0.793c1.179-0.474,2.114-1.409,2.588-2.588l0.793-1.971l0.793,1.971c0.474,1.179,1.409,2.114,2.588,2.588l1.971,0.793
					l-1.971,0.793C427.914,297.852,426.979,298.787,426.505,299.966z"/>
				<path style="fill:#F7F6EB;" d="M320.114,295.509l-0.793,1.971l-0.793-1.971c-0.474-1.179-1.409-2.114-2.588-2.588l-1.971-0.793
					l1.971-0.793c1.179-0.474,2.114-1.409,2.588-2.588l0.793-1.971l0.793,1.971c0.474,1.179,1.409,2.114,2.588,2.588l1.971,0.793
					l-1.971,0.793C321.523,293.395,320.588,294.33,320.114,295.509z"/>
				<path style="fill:#F7F6EB;" d="M348.034,160.694l-0.793,1.971l-0.793-1.971c-0.474-1.179-1.409-2.114-2.588-2.588l-1.971-0.793
					l1.971-0.793c1.179-0.474,2.114-1.409,2.588-2.588l0.793-1.971l0.793,1.971c0.474,1.179,1.409,2.114,2.588,2.588l1.971,0.793
					l-1.971,0.793C349.443,158.58,348.509,159.514,348.034,160.694z"/>
				<path style="fill:#F7F6EB;" d="M464.862,212.732l-0.475,1.18l-0.475-1.18c-0.284-0.706-0.844-1.266-1.55-1.55l-1.18-0.475
					l1.18-0.475c0.706-0.284,1.266-0.844,1.55-1.55l0.475-1.18l0.475,1.18c0.284,0.706,0.844,1.266,1.55,1.55l1.18,0.475
					l-1.18,0.475C465.706,211.466,465.146,212.026,464.862,212.732z"/>
				<path style="fill:#F7F6EB;" d="M266.688,239.752l-0.475,1.18l-0.475-1.18c-0.284-0.706-0.844-1.266-1.55-1.55l-1.18-0.475
					l1.18-0.475c0.706-0.284,1.266-0.844,1.55-1.55l0.475-1.18l0.475,1.18c0.284,0.706,0.844,1.266,1.55,1.55l1.18,0.475
					l-1.18,0.475C267.531,238.486,266.972,239.046,266.688,239.752z"/>
				<path style="fill:#F7F6EB;" d="M376.054,145.765l-0.475,1.18l-0.475-1.18c-0.284-0.706-0.844-1.266-1.55-1.55l-1.18-0.475
					l1.18-0.475c0.706-0.284,1.266-0.844,1.55-1.55l0.475-1.18l0.475,1.18c0.284,0.706,0.844,1.266,1.55,1.55l1.18,0.475
					l-1.18,0.475C376.898,144.499,376.338,145.059,376.054,145.765z"/>
				<path style="fill:#F7F6EB;" d="M466.186,304.152l-0.475,1.18l-0.475-1.18c-0.284-0.706-0.844-1.266-1.55-1.55l-1.18-0.475
					l1.18-0.475c0.706-0.284,1.266-0.844,1.55-1.55l0.475-1.18l0.475,1.18c0.284,0.706,0.844,1.266,1.55,1.55l1.18,0.475
					l-1.18,0.475C467.03,302.886,466.47,303.446,466.186,304.152z"/>
				<path style="fill:#F7F6EB;" d="M373.442,283.368l-0.475,1.18l-0.475-1.18c-0.284-0.706-0.844-1.266-1.55-1.55l-1.18-0.475
					l1.18-0.475c0.706-0.284,1.266-0.844,1.55-1.55l0.475-1.18l0.475,1.18c0.284,0.706,0.844,1.266,1.55,1.55l1.18,0.475
					l-1.18,0.475C374.286,282.102,373.726,282.662,373.442,283.368z"/>
				<path style="fill:#F7F6EB;" d="M335.199,220.156l-0.475,1.18l-0.475-1.18c-0.284-0.706-0.844-1.266-1.55-1.55l-1.18-0.475
					l1.18-0.475c0.706-0.284,1.266-0.844,1.55-1.55l0.475-1.18l0.475,1.18c0.284,0.706,0.844,1.266,1.55,1.55l1.18,0.475
					l-1.18,0.475C336.043,218.89,335.484,219.45,335.199,220.156z"/>
				<path style="fill:#F7F6EB;" d="M361.073,342.163l1.57-3.904l1.57,3.904c0.94,2.336,2.792,4.189,5.128,5.128l3.904,1.57
					l-3.904,1.57c-2.336,0.94-4.189,2.792-5.128,5.128l-1.57,3.904l-1.57-3.904c-0.94-2.336-2.792-4.188-5.128-5.128l-3.904-1.57
					l3.904-1.57C358.281,346.351,360.133,344.499,361.073,342.163z"/>
				<path style="fill:#F7F6EB;" d="M437.522,323.997l1.57-3.904l1.57,3.904c0.94,2.336,2.792,4.189,5.128,5.128l3.904,1.57
					l-3.904,1.57c-2.336,0.94-4.189,2.792-5.128,5.128l-1.57,3.904l-1.57-3.904c-0.94-2.336-2.792-4.188-5.128-5.128l-3.904-1.57
					l3.904-1.57C434.731,328.186,436.583,326.334,437.522,323.997z"/>
				<path style="fill:#F7F6EB;" d="M371.295,208.932l1.187-2.95l1.187,2.95c0.71,1.766,2.11,3.165,3.875,3.875l2.95,1.187
					l-2.95,1.187c-1.766,0.71-3.165,2.11-3.875,3.875l-1.187,2.95l-1.187-2.95c-0.71-1.766-2.11-3.165-3.875-3.875l-2.95-1.187
					l2.95-1.187C369.185,212.097,370.585,210.698,371.295,208.932z"/>
				<path style="fill:#F7F6EB;" d="M296.031,307.865l1.187-2.95l1.187,2.95c0.71,1.766,2.11,3.165,3.875,3.875l2.95,1.187
					l-2.95,1.187c-1.766,0.71-3.165,2.11-3.875,3.875l-1.187,2.95l-1.187-2.95c-0.71-1.766-2.11-3.165-3.875-3.875l-2.95-1.187
					l2.95-1.187C293.922,311.03,295.321,309.63,296.031,307.865z"/>
				<path style="fill:#F7F6EB;" d="M477.793,238.938l1.187-2.95l1.187,2.95c0.71,1.766,2.11,3.165,3.875,3.875l2.95,1.187
					l-2.95,1.187c-1.766,0.71-3.165,2.11-3.875,3.875l-1.187,2.95l-1.187-2.95c-0.71-1.766-2.11-3.165-3.875-3.875l-2.95-1.187
					l2.95-1.187C475.683,242.103,477.082,240.704,477.793,238.938z"/>
			</g>
			<g>
				
					<text transform="matrix(0.9787 0 0 1 279.7023 272.4544)" style="fill:#F7F6EB; font-family:'RifficFree-Bold'; font-size:80.6164px;">Book</text>
				
					<text transform="matrix(0.9787 0 0 1 329.6569 320.6273)" style="fill:#F7F6EB; font-family:'Montserrat-Regular'; font-size:32.2703px; letter-spacing:1.022;"> day</text>
				
					<text transform="matrix(0.9787 0 0 1 297.9157 195.2962)" style="fill:#F7F6EB; font-family:'Montserrat-Regular'; font-size:32.2703px; letter-spacing:1.022;"> World</text>
			</g>
		</g>
	</g>
</g>
</svg>
