<svg width="750" height="500" viewBox="0 0 750 500" fill="none" xmlns="http://www.w3.org/2000/svg">
<g clip-path="url(#clip0_52_3152)">
<path d="M750 0H0V500H750V0Z" fill="#A3AFFB"/>
<mask id="mask0_52_3152" style="mask-type:luminance" maskUnits="userSpaceOnUse" x="0" y="0" width="750" height="500">
<path d="M750 0H0V500H750V0Z" fill="white"/>
</mask>
<g mask="url(#mask0_52_3152)">
<path opacity="0.2" d="M377.853 379.841C370.082 367.094 361.053 354.387 347.985 347.168C334.917 339.95 316.837 339.829 306.489 350.589C297.332 360.111 296.675 375.404 301.232 387.804C305.789 400.204 314.632 410.461 323.03 420.659C366.151 473.025 414.412 544.087 441.548 606.258C436.434 594.541 443.132 555.702 434.087 526.935C429.918 513.675 426.311 503.859 422.928 490.392C413.179 451.569 398.724 414.077 377.853 379.841Z" fill="#8089C4"/>
<path d="M363.8 376.327C356.03 363.58 347.001 350.873 333.933 343.654C320.865 336.436 302.785 336.315 292.437 347.075C283.28 356.597 282.622 371.89 287.179 384.29C291.736 396.69 300.58 406.947 308.978 417.145C352.099 469.511 400.36 540.573 427.496 602.744C422.382 591.028 429.08 552.189 420.035 523.422C415.866 510.162 412.259 500.345 408.876 486.877C399.127 448.055 384.671 410.564 363.8 376.327Z" fill="#7584E7"/>
<path d="M311.193 360.711C359.714 422.08 409.23 510.158 427.291 597.617" stroke="#E8E8E8" stroke-width="2.8347" stroke-miterlimit="10" stroke-linecap="round" stroke-linejoin="round"/>
<path d="M297.112 363.66C297.362 363.539 297.576 363.354 297.756 363.143C298.411 362.376 298.575 361.185 298.042 360.328C297.114 358.837 294.933 359.294 294.374 360.869C293.852 362.341 295.538 364.423 297.112 363.66Z" fill="#8895ED"/>
<path d="M317.255 393.629C317.505 393.508 317.719 393.323 317.899 393.112C318.554 392.345 318.718 391.154 318.185 390.298C317.257 388.807 315.076 389.264 314.517 390.839C313.994 392.311 315.681 394.393 317.255 393.629Z" fill="#8895ED"/>
<path d="M308.411 349.084C308.661 348.963 308.875 348.778 309.055 348.567C309.71 347.8 309.874 346.609 309.341 345.752C308.413 344.261 306.232 344.718 305.673 346.293C305.151 347.766 306.837 349.848 308.411 349.084Z" fill="#8895ED"/>
<path d="M299.493 354.2C299.667 354.115 299.817 353.986 299.942 353.839C300.399 353.304 300.514 352.473 300.142 351.875C299.494 350.835 297.973 351.154 297.583 352.253C297.218 353.28 298.395 354.732 299.493 354.2Z" fill="#8895ED"/>
<path d="M305.958 392.105C306.117 392.028 306.254 391.91 306.369 391.775C306.787 391.286 306.891 390.526 306.551 389.981C305.959 389.031 304.569 389.322 304.212 390.326C303.879 391.264 304.955 392.591 305.958 392.105Z" fill="#8895ED"/>
<path d="M306.557 377.249C306.806 377.128 307.021 376.943 307.201 376.732C307.856 375.965 308.02 374.774 307.487 373.917C306.559 372.426 304.378 372.884 303.819 374.458C303.297 375.931 304.983 378.013 306.557 377.249Z" fill="#8895ED"/>
<path d="M310.978 406.237C311.228 406.116 311.442 405.931 311.622 405.72C312.277 404.953 312.441 403.762 311.908 402.905C310.98 401.414 308.799 401.871 308.24 403.446C307.717 404.918 309.404 407 310.978 406.237Z" fill="#8895ED"/>
<path d="M288.576 371.92C288.702 372.037 288.856 372.119 289.018 372.176C289.607 372.382 290.331 372.211 290.705 371.712C291.357 370.843 290.606 369.688 289.572 369.717C288.607 369.745 287.784 371.183 288.576 371.92Z" fill="#8895ED"/>
<path d="M298.234 371.67C298.36 371.787 298.514 371.869 298.676 371.926C299.265 372.132 299.989 371.961 300.363 371.462C301.015 370.593 300.264 369.438 299.23 369.467C298.265 369.494 297.442 370.933 298.234 371.67Z" fill="#8895ED"/>
<path d="M313.761 379.428C313.887 379.545 314.041 379.627 314.203 379.684C314.792 379.89 315.516 379.719 315.89 379.219C316.542 378.35 315.791 377.195 314.757 377.224C313.793 377.253 312.969 378.691 313.761 379.428Z" fill="#8895ED"/>
<path d="M295.798 385.036C295.924 385.153 296.078 385.235 296.24 385.292C296.829 385.498 297.553 385.327 297.927 384.828C298.579 383.959 297.828 382.804 296.794 382.833C295.83 382.861 295.006 384.299 295.798 385.036Z" fill="#8895ED"/>
<path d="M305.555 355.184C305.639 355.143 305.712 355.081 305.773 355.009C305.995 354.749 306.05 354.346 305.87 354.056C305.556 353.552 304.818 353.706 304.628 354.239C304.452 354.738 305.022 355.443 305.555 355.184Z" fill="#8895ED"/>
<path d="M299.325 395.05C299.409 395.009 299.482 394.946 299.543 394.875C299.765 394.615 299.82 394.212 299.64 393.922C299.326 393.418 298.588 393.572 298.398 394.105C298.222 394.604 298.793 395.309 299.325 395.05Z" fill="#8895ED"/>
<path d="M289.665 360.217C289.75 360.176 289.822 360.114 289.883 360.042C290.105 359.782 290.16 359.379 289.98 359.089C289.666 358.585 288.928 358.739 288.738 359.272C288.561 359.771 289.132 360.475 289.665 360.217Z" fill="#8895ED"/>
<path d="M310.517 383.952C310.564 383.929 310.605 383.894 310.639 383.854C310.763 383.709 310.794 383.483 310.693 383.321C310.517 383.039 310.104 383.125 309.999 383.424C309.899 383.703 310.219 384.097 310.517 383.952Z" fill="#8895ED"/>
<path d="M290.865 380.022C290.912 379.999 290.953 379.964 290.987 379.924C291.111 379.779 291.142 379.553 291.041 379.391C290.865 379.109 290.452 379.195 290.346 379.494C290.248 379.772 290.567 380.166 290.865 380.022Z" fill="#8895ED"/>
<path opacity="0.2" d="M747.734 355.459C752.091 341.18 755.581 325.987 752.286 311.426C748.991 296.865 737.062 283.278 722.144 282.701C708.943 282.19 697.082 291.867 690.849 303.514C684.616 315.162 682.832 328.587 680.797 341.64C670.345 408.665 649.343 491.958 620.938 553.561C626.291 541.952 659.756 521.136 675.233 495.255C682.367 483.325 687.302 474.105 695.115 462.625C717.635 429.533 736.032 393.81 747.734 355.459Z" fill="#8089C4"/>
<path d="M739.068 354.793C743.425 340.514 746.915 325.321 743.62 310.76C740.325 296.199 728.396 282.612 713.478 282.035C700.277 281.524 688.416 291.201 682.183 302.848C675.949 314.496 674.166 327.921 672.13 340.973C661.678 407.998 640.675 491.291 612.27 552.894C617.623 541.285 651.089 520.469 666.566 494.588C673.7 482.658 678.635 473.438 686.448 461.958C708.969 428.866 727.366 393.144 739.068 354.793Z" fill="#A8C7FB"/>
<path d="M698.684 302.555C698.96 302.586 699.24 302.545 699.505 302.463C700.469 302.165 701.245 301.247 701.252 300.238C701.265 298.482 699.178 297.702 697.863 298.733C696.635 299.697 696.946 302.358 698.684 302.555Z" fill="#D9E7FF"/>
<path d="M699.671 338.652C699.947 338.683 700.227 338.642 700.492 338.56C701.456 338.262 702.232 337.344 702.239 336.335C702.252 334.579 700.165 333.799 698.85 334.83C697.621 335.795 697.933 338.456 699.671 338.652Z" fill="#D9E7FF"/>
<path d="M716.028 296.286C716.304 296.317 716.584 296.276 716.849 296.194C717.813 295.896 718.589 294.978 718.596 293.969C718.609 292.213 716.522 291.433 715.207 292.464C713.979 293.428 714.29 296.089 716.028 296.286Z" fill="#D9E7FF"/>
<path d="M705.757 295.837C705.949 295.859 706.145 295.83 706.33 295.773C707.002 295.565 707.544 294.925 707.549 294.221C707.558 292.996 706.102 292.451 705.185 293.171C704.327 293.843 704.544 295.699 705.757 295.837Z" fill="#D9E7FF"/>
<path d="M690.942 331.321C691.118 331.341 691.296 331.315 691.465 331.262C692.08 331.072 692.574 330.487 692.579 329.843C692.587 328.723 691.257 328.226 690.418 328.883C689.635 329.499 689.834 331.196 690.942 331.321Z" fill="#D9E7FF"/>
<path d="M699.395 319.089C699.671 319.12 699.951 319.079 700.216 318.997C701.18 318.699 701.956 317.781 701.963 316.772C701.976 315.016 699.889 314.236 698.574 315.267C697.346 316.231 697.657 318.892 699.395 319.089Z" fill="#D9E7FF"/>
<path d="M687.624 345.946C687.9 345.977 688.18 345.936 688.445 345.854C689.409 345.556 690.185 344.638 690.192 343.629C690.205 341.873 688.118 341.093 686.803 342.124C685.575 343.088 685.886 345.749 687.624 345.946Z" fill="#D9E7FF"/>
<path d="M687.053 304.969C687.097 305.135 687.183 305.287 687.29 305.422C687.678 305.911 688.381 306.153 688.964 305.932C689.98 305.547 689.963 304.169 689.074 303.641C688.243 303.147 686.778 303.922 687.053 304.969Z" fill="#D9E7FF"/>
<path d="M695.348 309.924C695.392 310.09 695.478 310.242 695.585 310.377C695.973 310.866 696.676 311.108 697.259 310.887C698.275 310.502 698.258 309.124 697.369 308.596C696.538 308.103 695.073 308.877 695.348 309.924Z" fill="#D9E7FF"/>
<path d="M704.317 324.785C704.361 324.951 704.447 325.103 704.554 325.238C704.942 325.727 705.645 325.969 706.228 325.748C707.244 325.363 707.227 323.985 706.338 323.457C705.507 322.963 704.042 323.738 704.317 324.785Z" fill="#D9E7FF"/>
<path d="M686.14 319.914C686.184 320.08 686.27 320.232 686.377 320.367C686.765 320.856 687.468 321.098 688.051 320.877C689.067 320.492 689.05 319.114 688.161 318.586C687.329 318.093 685.864 318.867 686.14 319.914Z" fill="#D9E7FF"/>
<path d="M710.352 299.911C710.445 299.921 710.54 299.907 710.63 299.88C710.956 299.779 711.219 299.468 711.221 299.127C711.226 298.533 710.518 298.269 710.073 298.618C709.657 298.944 709.764 299.844 710.352 299.911Z" fill="#D9E7FF"/>
<path d="M683.761 330.261C683.854 330.272 683.949 330.258 684.039 330.23C684.365 330.129 684.628 329.818 684.63 329.477C684.635 328.883 683.928 328.619 683.483 328.968C683.068 329.294 683.173 330.195 683.761 330.261Z" fill="#D9E7FF"/>
<path d="M694.234 295.662C694.327 295.673 694.422 295.659 694.512 295.631C694.838 295.53 695.101 295.219 695.103 294.878C695.108 294.284 694.401 294.02 693.956 294.369C693.541 294.695 693.646 295.595 694.234 295.662Z" fill="#D9E7FF"/>
<path d="M699.155 326.872C699.207 326.878 699.26 326.87 699.31 326.855C699.492 326.799 699.639 326.625 699.641 326.434C699.644 326.102 699.248 325.954 698.999 326.149C698.767 326.331 698.826 326.835 699.155 326.872Z" fill="#D9E7FF"/>
<path d="M684.653 313.038C684.705 313.044 684.758 313.036 684.809 313.02C684.991 312.964 685.138 312.79 685.14 312.599C685.142 312.267 684.747 312.119 684.498 312.314C684.265 312.497 684.324 313.001 684.653 313.038Z" fill="#D9E7FF"/>
<path d="M715.759 305.111C702.171 382.155 669.291 477.699 615.963 549.332" stroke="#E8E8E8" stroke-width="2.8347" stroke-miterlimit="10" stroke-linecap="round" stroke-linejoin="round"/>
<path opacity="0.2" d="M27.4091 177.988C36.4831 168.257 46.6491 158.787 59.3531 154.834C72.0581 150.881 87.8621 154.025 94.9621 165.277C101.245 175.235 99.0691 188.703 92.8631 198.708C86.6571 208.713 77.0941 216.078 67.9301 223.471C20.8771 261.434 -34.0209 314.795 -68.8809 364.191C-62.3109 354.882 -61.1789 319.775 -48.1139 296.288C-42.0919 285.462 -37.1789 277.541 -31.8059 266.392C-16.3179 234.255 3.03815 204.125 27.4091 177.988Z" fill="#8089C4"/>
<path d="M20.1884 173.558C29.2624 163.827 39.4284 154.357 52.1324 150.404C64.8374 146.451 80.6414 149.595 87.7414 160.847C94.0244 170.805 91.8494 184.273 85.6424 194.278C79.4364 204.283 69.8734 211.648 60.7094 219.041C13.6564 257.004 -41.2416 310.365 -76.1016 359.761C-69.5316 350.452 -68.3996 315.345 -55.3346 291.858C-49.3126 281.032 -44.3996 273.111 -39.0266 261.962C-23.5386 229.824 -4.18257 199.695 20.1884 173.558Z" fill="#A8C7FB"/>
<path d="M69.6872 163.4C69.8142 163.647 70.0042 163.857 70.2192 164.032C71.0012 164.669 72.1952 164.806 73.0392 164.254C74.5082 163.292 74.0012 161.122 72.4142 160.599C70.9302 160.111 68.8882 161.844 69.6872 163.4Z" fill="#BFD5FB"/>
<path d="M40.1853 184.223C40.3123 184.47 40.5023 184.68 40.7173 184.855C41.4993 185.492 42.6933 185.629 43.5373 185.077C45.0063 184.115 44.4993 181.945 42.9123 181.422C41.4283 180.933 39.3863 182.667 40.1853 184.223Z" fill="#BFD5FB"/>
<path d="M84.5176 174.365C84.6446 174.612 84.8337 174.822 85.0497 174.997C85.8317 175.634 87.0257 175.771 87.8697 175.219C89.3387 174.257 88.8317 172.087 87.2447 171.564C85.7607 171.075 83.7176 172.809 84.5176 174.365Z" fill="#BFD5FB"/>
<path d="M79.1996 165.563C79.2876 165.735 79.4206 165.882 79.5706 166.004C80.1166 166.449 80.9496 166.544 81.5386 166.159C82.5636 165.488 82.2096 163.974 81.1026 163.609C80.0666 163.268 78.6416 164.478 79.1996 165.563Z" fill="#BFD5FB"/>
<path d="M41.4521 172.894C41.5331 173.051 41.6541 173.186 41.7911 173.297C42.2901 173.703 43.0511 173.791 43.5891 173.438C44.5261 172.825 44.2031 171.441 43.1911 171.108C42.2451 170.797 40.9431 171.902 41.4521 172.894Z" fill="#BFD5FB"/>
<path d="M56.3184 173.153C56.4454 173.4 56.6344 173.61 56.8494 173.785C57.6314 174.422 58.8254 174.559 59.6694 174.007C61.1384 173.045 60.6314 170.875 59.0444 170.352C57.5614 169.863 55.5184 171.597 56.3184 173.153Z" fill="#BFD5FB"/>
<path d="M27.4392 178.235C27.5662 178.482 27.7552 178.692 27.9702 178.867C28.7522 179.504 29.9462 179.641 30.7902 179.089C32.2592 178.127 31.7522 175.957 30.1652 175.434C28.6822 174.945 26.6402 176.679 27.4392 178.235Z" fill="#BFD5FB"/>
<path d="M61.2344 155.055C61.1204 155.183 61.0414 155.34 60.9884 155.503C60.7954 156.097 60.9834 156.816 61.4914 157.179C62.3744 157.811 63.5124 157.034 63.4594 156.001C63.4094 155.036 61.9524 154.246 61.2344 155.055Z" fill="#BFD5FB"/>
<path d="M61.7071 164.706C61.5931 164.834 61.5141 164.991 61.4611 165.154C61.2681 165.748 61.4561 166.467 61.9641 166.83C62.8471 167.462 63.9851 166.685 63.9321 165.652C63.8821 164.687 62.4251 163.896 61.7071 164.706Z" fill="#BFD5FB"/>
<path d="M54.3028 180.405C54.1888 180.533 54.1098 180.69 54.0568 180.853C53.8638 181.447 54.0518 182.166 54.5598 182.529C55.4428 183.161 56.5808 182.384 56.5278 181.351C56.4788 180.386 55.0218 179.596 54.3028 180.405Z" fill="#BFD5FB"/>
<path d="M48.2867 162.576C48.1727 162.704 48.0937 162.861 48.0407 163.024C47.8487 163.618 48.0357 164.337 48.5437 164.7C49.4267 165.332 50.5647 164.555 50.5117 163.522C50.4617 162.557 49.0057 161.767 48.2867 162.576Z" fill="#BFD5FB"/>
<path d="M78.3539 171.648C78.3969 171.731 78.4609 171.803 78.5339 171.862C78.7989 172.078 79.2029 172.124 79.4889 171.937C79.9859 171.611 79.8149 170.877 79.2769 170.7C78.7749 170.535 78.0829 171.122 78.3539 171.648Z" fill="#BFD5FB"/>
<path d="M38.3558 166.329C38.3988 166.412 38.4628 166.484 38.5358 166.543C38.8008 166.759 39.2048 166.805 39.4908 166.618C39.9878 166.292 39.8168 165.558 39.2788 165.381C38.7768 165.216 38.0848 165.803 38.3558 166.329Z" fill="#BFD5FB"/>
<path d="M72.9593 155.876C73.0023 155.959 73.0663 156.031 73.1393 156.09C73.4043 156.306 73.8083 156.352 74.0943 156.165C74.5913 155.839 74.4203 155.105 73.8823 154.928C73.3803 154.762 72.6883 155.349 72.9593 155.876Z" fill="#BFD5FB"/>
<path d="M49.7081 177.265C49.7321 177.312 49.7681 177.352 49.8091 177.385C49.9571 177.506 50.1831 177.532 50.3431 177.427C50.6211 177.245 50.5251 176.834 50.2251 176.735C49.9431 176.643 49.5561 176.971 49.7081 177.265Z" fill="#BFD5FB"/>
<path d="M53.1881 157.528C53.2121 157.575 53.2481 157.615 53.2891 157.648C53.4371 157.769 53.6631 157.795 53.8231 157.69C54.1011 157.508 54.0051 157.097 53.7051 156.998C53.4241 156.906 53.0371 157.234 53.1881 157.528Z" fill="#BFD5FB"/>
<path d="M62.308 177.028C8.924 221.88 -43.517 282.22 -75 355.321" stroke="#E8E8E8" stroke-width="2.5264" stroke-miterlimit="10" stroke-linecap="round" stroke-linejoin="round"/>
<path opacity="0.2" d="M24.6837 69.8093C32.1347 58.7853 40.7047 47.8503 52.6407 41.9713C64.5767 36.0913 80.6777 36.7403 89.4407 46.7523C97.1947 55.6123 97.1397 69.2543 92.5647 80.1033C87.9887 90.9513 79.6877 99.7133 71.7847 108.441C31.2047 153.257 -14.7303 214.503 -41.4883 268.717C-36.4453 258.5 -40.7843 223.643 -31.5293 198.411C-27.2633 186.78 -23.6413 178.192 -20.0673 166.343C-9.76428 132.188 4.67172 99.4163 24.6837 69.8093Z" fill="#8089C4"/>
<path d="M17.1933 59.7397C24.1273 48.3837 32.1823 37.0647 43.8343 30.6397C55.4863 24.2147 71.5993 24.1187 80.8153 33.7157C88.9703 42.2077 89.5463 55.8387 85.4763 66.8867C81.4063 77.9347 73.5183 87.0707 66.0273 96.1547C27.5623 142.798 -15.4957 206.101 -39.7207 261.493C-35.1557 251.054 -41.0997 216.435 -33.0207 190.802C-29.2967 178.987 -26.0757 170.24 -23.0517 158.239C-14.3367 123.645 -1.4297 90.2397 17.1933 59.7397Z" fill="#7584E7"/>
<path d="M53.0482 38.5623C53.2762 38.7203 53.5432 38.8153 53.8152 38.8683C54.8052 39.0603 55.9232 38.6173 56.4052 37.7313C57.2452 36.1893 55.7732 34.5163 54.1272 34.8053C52.5892 35.0763 51.6082 37.5693 53.0482 38.5623Z" fill="#92A1F7"/>
<path d="M36.8874 70.8543C37.1154 71.0123 37.3824 71.1073 37.6544 71.1603C38.6454 71.3523 39.7624 70.9093 40.2444 70.0233C41.0844 68.4813 39.6124 66.8083 37.9664 67.0973C36.4294 67.3683 35.4484 69.8613 36.8874 70.8543Z" fill="#92A1F7"/>
<path d="M71.2982 41.2185C71.5262 41.3765 71.7932 41.4725 72.0652 41.5245C73.0552 41.7165 74.1732 41.2735 74.6552 40.3875C75.4952 38.8455 74.0232 37.1725 72.3772 37.4615C70.8392 37.7315 69.8582 40.2245 71.2982 41.2185Z" fill="#92A1F7"/>
<path d="M62.4527 35.976C62.6117 36.086 62.7977 36.153 62.9877 36.19C63.6787 36.324 64.4587 36.015 64.7947 35.397C65.3807 34.321 64.3537 33.154 63.2057 33.356C62.1327 33.543 61.4487 35.283 62.4527 35.976Z" fill="#92A1F7"/>
<path d="M32.6488 60.2725C32.7948 60.3725 32.9648 60.4335 33.1378 60.4675C33.7688 60.5895 34.4818 60.3075 34.7898 59.7425C35.3258 58.7595 34.3868 57.6925 33.3378 57.8775C32.3568 58.0495 31.7308 59.6385 32.6488 60.2725Z" fill="#92A1F7"/>
<path d="M45.8717 53.4763C46.0997 53.6343 46.3667 53.7293 46.6387 53.7823C47.6287 53.9743 48.7467 53.5313 49.2287 52.6453C50.0687 51.1033 48.5967 49.4303 46.9507 49.7193C45.4137 49.9893 44.4327 52.4823 45.8717 53.4763Z" fill="#92A1F7"/>
<path d="M22.8236 71.6013C23.0516 71.7593 23.3186 71.8543 23.5906 71.9073C24.5806 72.0993 25.6986 71.6563 26.1806 70.7703C27.0206 69.2283 25.5486 67.5553 23.9026 67.8443C22.3646 68.1143 21.3836 70.6073 22.8236 71.6013Z" fill="#92A1F7"/>
<path d="M41.6537 35.203C41.6137 35.37 41.6188 35.545 41.6488 35.714C41.7598 36.328 42.2647 36.873 42.8837 36.954C43.9607 37.094 44.5967 35.871 44.0617 34.986C43.5617 34.159 41.9047 34.151 41.6537 35.203Z" fill="#92A1F7"/>
<path d="M46.6287 43.4856C46.5887 43.6526 46.5927 43.8276 46.6237 43.9966C46.7347 44.6106 47.2397 45.1556 47.8587 45.2366C48.9357 45.3766 49.5717 44.1536 49.0367 43.2686C48.5377 42.4416 46.8807 42.4326 46.6287 43.4856Z" fill="#92A1F7"/>
<path d="M47.5248 60.8205C47.4848 60.9875 47.4898 61.1625 47.5198 61.3315C47.6308 61.9455 48.1358 62.4905 48.7548 62.5715C49.8318 62.7115 50.4678 61.4885 49.9328 60.6035C49.4328 59.7765 47.7758 59.7675 47.5248 60.8205Z" fill="#92A1F7"/>
<path d="M33.7983 47.9498C33.7583 48.1168 33.7633 48.2918 33.7933 48.4608C33.9043 49.0748 34.4093 49.6198 35.0283 49.7008C36.1053 49.8408 36.7413 48.6178 36.2063 47.7328C35.7073 46.9048 34.0493 46.8968 33.7983 47.9498Z" fill="#92A1F7"/>
<path d="M64.5832 41.7372C64.6602 41.7902 64.7512 41.8232 64.8432 41.8412C65.1782 41.9062 65.5562 41.7562 65.7202 41.4562C66.0042 40.9342 65.5062 40.3682 64.9492 40.4662C64.4282 40.5572 64.0962 41.4012 64.5832 41.7372Z" fill="#92A1F7"/>
<path d="M26.8195 55.9511C26.8965 56.0041 26.9865 56.0371 27.0795 56.0551C27.4145 56.1201 27.7925 55.9701 27.9565 55.6701C28.2405 55.1481 27.7425 54.5821 27.1855 54.6801C26.6645 54.7701 26.3325 55.6141 26.8195 55.9511Z" fill="#92A1F7"/>
<path d="M52.3762 30.3857C52.4532 30.4387 52.5432 30.4717 52.6362 30.4897C52.9712 30.5547 53.3492 30.4047 53.5132 30.1047C53.7972 29.5827 53.2992 29.0167 52.7422 29.1147C52.2212 29.2057 51.8892 30.0497 52.3762 30.3857Z" fill="#92A1F7"/>
<path d="M41.9899 60.2251C42.0329 60.2551 42.0839 60.2731 42.1349 60.2831C42.3229 60.3191 42.5339 60.2351 42.6249 60.0681C42.7839 59.7761 42.5049 59.4591 42.1939 59.5141C41.9039 59.5651 41.7179 60.0371 41.9899 60.2251Z" fill="#92A1F7"/>
<path d="M35.7309 41.186C35.7739 41.216 35.8249 41.234 35.8759 41.244C36.0639 41.28 36.2749 41.196 36.3659 41.029C36.5249 40.737 36.2459 40.42 35.9349 40.475C35.6439 40.526 35.4579 40.998 35.7309 41.186Z" fill="#92A1F7"/>
<path d="M64.0908 45.8555C20.8068 100.519 -23.3802 178.986 -39.5332 256.921" stroke="#E8E8E8" stroke-width="2.5264" stroke-miterlimit="10" stroke-linecap="round" stroke-linejoin="round"/>
<path opacity="0.2" d="M182.403 706.763L64.2649 567.217C61.7419 564.237 62.2289 559.752 65.3309 557.383L257.128 401.027L377.227 545.928C378.688 547.698 378.438 550.317 376.668 551.778L188.252 707.322C186.483 708.783 183.864 708.532 182.403 706.763Z" fill="#8089C4"/>
<path d="M177.577 688.376L59.4386 548.83C56.9156 545.85 57.4026 541.365 60.5056 538.996L252.303 382.64L372.402 527.541C373.863 529.311 373.613 531.93 371.843 533.391L183.427 688.935C181.657 690.396 179.038 690.146 177.577 688.376Z" fill="#D3C496"/>
<path d="M177.577 688.376L66.5534 552.317C65.5664 551.107 65.7414 549.326 66.9454 548.332L251.901 381.716L372.402 527.541L177.577 688.376Z" fill="#E8E8E8"/>
<path d="M177.091 676.665L62.2852 537.596L251.775 381.422L366.582 520.491C368.043 522.261 367.793 524.88 366.023 526.341L182.941 677.224C181.171 678.685 178.552 678.435 177.091 676.665Z" fill="#F3D364"/>
<path d="M260.164 391.596L256.99 387.751L67.619 544.071L70.7931 547.916L260.164 391.596Z" fill="#E0C45D"/>
<path d="M296.295 517.607L243.92 454.158L129.84 548.327L182.215 611.776L296.295 517.607Z" fill="#E8E8E8"/>
<path opacity="0.2" d="M156.586 540.607L-7.73441 460.431C-11.2434 458.719 -12.6034 454.418 -10.7174 450.999L101.902 230.658L270.174 314.947C272.224 315.979 273.049 318.477 272.017 320.527L162.166 538.764C161.134 540.814 158.636 541.639 156.586 540.607Z" fill="#8089C4"/>
<path d="M144.766 525.72L-19.5547 445.545C-23.0637 443.833 -24.4237 439.532 -22.5377 436.113L90.0813 215.771L258.353 300.059C260.403 301.091 261.228 303.59 260.196 305.64L150.346 523.876C149.314 525.926 146.816 526.751 144.766 525.72Z" fill="#D34A4D"/>
<path d="M144.767 525.72L-11.6388 445.872C-13.0298 445.162 -13.5858 443.461 -12.8838 442.066L89.3432 215.086L258.355 300.059L144.767 525.72Z" fill="#E8E8E8"/>
<path d="M257.328 299.408L143.678 525.191" stroke="#D6DBDE" stroke-width="0.831" stroke-miterlimit="10"/>
<path d="M254.728 299.029L141.078 524.812" stroke="#D6DBDE" stroke-width="0.831" stroke-miterlimit="10"/>
<path d="M139.607 515.195L-21.4727 434.114L89.1093 214.868L250.189 295.949C252.239 296.981 253.064 299.479 252.032 301.529L145.187 513.351C144.155 515.401 141.657 516.226 139.607 515.195Z" fill="#D85F53"/>
<path d="M100.893 220.794L96.4395 218.553L-13.9616 437.882L-9.50813 440.123L100.893 220.794Z" fill="#D34A4D"/>
<path d="M184.709 321.595L111.223 284.605L44.7156 416.732L118.202 453.722L184.709 321.595Z" fill="#E8E8E8"/>
<path d="M101.161 353.014L95.5591 350.194L95.7956 349.725L97.1873 350.425L101.969 340.926L100.577 340.226L100.813 339.756L109.303 344.029L107.691 347.405L107.239 347.177L107.487 345.862C107.492 345.851 107.492 345.836 107.487 345.819C107.693 344.513 107.31 343.615 106.335 343.124L104.109 342.003L101.928 346.335L105.355 348.06L105.093 348.582L101.665 346.857L99.3272 351.502L101.397 352.544L101.161 353.014ZM110.92 358.145C110.01 357.672 109.725 356.867 110.064 355.729C109.878 355.897 109.666 356.045 109.427 356.172C108.59 356.565 107.713 356.53 106.797 356.069C106.472 355.906 106.194 355.707 105.963 355.475C105.239 354.747 105.128 353.884 105.63 352.887C106.418 351.35 108.343 351.323 111.405 352.806L111.965 351.693C112.076 351.473 112.167 351.264 112.237 351.067C112.536 350.185 112.337 349.569 111.641 349.218C111.456 349.125 111.27 349.075 111.084 349.069C110.805 349.074 110.477 349.279 110.098 349.685C109.982 349.8 109.897 349.881 109.845 349.928C109.466 350.275 109.069 350.344 108.651 350.134C108.547 350.081 108.451 350.011 108.364 349.924C108.051 349.621 107.994 349.272 108.193 348.878C108.298 348.669 108.461 348.504 108.682 348.383C109.438 347.949 110.547 348.1 112.008 348.836C112.333 349 112.625 349.183 112.886 349.387C114.161 350.378 114.422 351.621 113.669 353.117L111.83 356.771C111.55 357.327 111.537 357.685 111.792 357.842C112.146 358.006 112.562 357.699 113.04 356.922L113.484 357.167C113.297 357.48 113.116 357.738 112.942 357.941C112.418 358.491 111.744 358.559 110.92 358.145ZM107.965 355.741C108.104 355.811 108.273 355.852 108.47 355.865C109.138 355.895 109.769 355.566 110.363 354.877L111.16 353.294C110.574 353.013 110.069 352.832 109.646 352.749C108.752 352.561 108.107 352.861 107.71 353.65C107.68 353.708 107.651 353.766 107.622 353.824C107.201 354.775 107.316 355.414 107.965 355.741ZM117.203 360.522C117.261 360.551 117.31 360.583 117.351 360.618C117.513 360.729 117.527 360.918 117.393 361.184L113.217 359.083L113.445 358.63C113.677 358.747 113.871 358.823 114.028 358.858C114.457 358.958 114.798 358.759 115.049 358.26L117.877 352.641L116.746 352.072L116.965 351.637L120.01 353.169L116.49 360.163L117.203 360.522ZM121.375 350.891C121.276 351.088 121.136 351.25 120.955 351.377C120.531 351.672 120.081 351.7 119.605 351.461C119.42 351.367 119.26 351.236 119.127 351.068C118.803 350.643 118.764 350.187 119.009 349.7C119.102 349.514 119.242 349.352 119.428 349.213C119.865 348.895 120.321 348.855 120.796 349.095C120.982 349.188 121.138 349.325 121.265 349.505C121.578 349.953 121.614 350.415 121.375 350.891ZM122.753 363.315C122.811 363.345 122.86 363.377 122.9 363.412C123.063 363.522 123.077 363.711 122.942 363.978L118.228 361.605L118.455 361.152C118.687 361.269 118.888 361.348 119.056 361.389C119.45 361.472 119.773 361.263 120.024 360.765L122.853 355.145L121.757 354.594L121.976 354.159L124.846 355.604L124.128 357.292C124.436 357.025 124.779 356.82 125.157 356.676C126.006 356.376 126.784 356.404 127.491 356.761C127.63 356.831 127.761 356.918 127.882 357.023C128.357 357.436 128.455 357.922 128.175 358.478C128.105 358.617 128.008 358.736 127.886 358.835C127.508 359.153 127.11 359.207 126.693 358.997C126.577 358.939 126.475 358.866 126.388 358.778C126.203 358.598 126.105 358.272 126.095 357.802C126.078 357.459 125.995 357.25 125.844 357.174C125.751 357.127 125.62 357.113 125.452 357.13C124.714 357.238 124.024 357.828 123.383 358.901L121.483 362.676L122.753 363.315ZM125.699 368.854C125.827 368.919 125.966 368.96 126.117 368.977C126.767 369.043 127.75 368.506 129.065 367.365L129.412 358.447L128.629 358.053L128.848 357.618L132.727 359.571L132.508 360.006L131.412 359.454L131.03 365.628L135.605 361.564L134.3 360.908L134.519 360.473L137.198 361.821C137.157 361.902 137.117 361.969 137.076 362.021C136.965 362.154 136.788 362.16 136.545 362.037C136.487 362.008 136.431 361.988 136.379 361.976C136.199 361.929 135.967 362.03 135.682 362.279L129.753 367.602C129.223 368.077 128.726 368.459 128.26 368.748C127.033 369.54 125.944 369.697 124.993 369.218C124.633 369.037 124.338 368.801 124.106 368.51C123.736 368.033 123.653 367.592 123.857 367.186C123.892 367.116 123.942 367.047 124.006 366.977C124.279 366.693 124.613 366.651 125.008 366.849C125.193 366.943 125.327 367.068 125.407 367.225C125.488 367.382 125.505 367.695 125.457 368.166C125.421 368.526 125.502 368.755 125.699 368.854Z" fill="#D85F53"/>
<path d="M88.7033 360.371L88.9309 359.919L90.1314 360.523L90.9633 358.87L93.0609 359.468L92.0451 361.486L94.4807 362.712L94.253 363.165L91.8174 361.939L89.164 367.21C89.1056 367.326 89.053 367.445 89.0062 367.567C88.7547 368.269 88.8724 368.742 89.3595 368.988C89.9337 369.262 90.6081 368.947 91.3829 368.044L91.8176 368.35C91.567 368.674 91.3195 368.935 91.0751 369.132C90.3826 369.699 89.5782 369.752 88.6619 369.291C87.2297 368.497 86.8847 367.233 87.6268 365.499L89.9037 360.975L88.7033 360.371ZM97.665 373.801C96.7546 373.328 96.4693 372.523 96.8092 371.386C96.6229 371.553 96.4106 371.701 96.1721 371.828C95.3349 372.221 94.4581 372.186 93.5419 371.725C93.2171 371.562 92.9389 371.364 92.7073 371.131C91.9834 370.403 91.8725 369.54 92.3745 368.543C93.1626 367.006 95.0877 366.979 98.1497 368.462L98.7102 367.349C98.8211 367.129 98.9117 366.92 98.9819 366.723C99.2804 365.841 99.0817 365.225 98.3858 364.874C98.2003 364.781 98.0146 364.731 97.8288 364.725C97.55 364.73 97.2214 364.935 96.8428 365.341C96.7264 365.456 96.642 365.537 96.5896 365.584C96.2112 365.931 95.8132 366 95.3957 365.79C95.2913 365.737 95.1957 365.667 95.1088 365.58C94.7961 365.277 94.7389 364.928 94.9374 364.534C95.0425 364.325 95.2055 364.16 95.4265 364.039C96.1826 363.605 97.2913 363.757 98.7527 364.492C99.0774 364.656 99.3702 364.839 99.631 365.043C100.906 366.034 101.167 367.277 100.414 368.773L98.5746 372.427C98.2944 372.983 98.2818 373.341 98.5369 373.498C98.8907 373.662 99.3067 373.355 99.7849 372.578L100.229 372.823C100.042 373.136 99.8611 373.394 99.6864 373.597C99.1623 374.147 98.4885 374.215 97.665 373.801ZM94.71 371.397C94.8491 371.467 95.0174 371.508 95.2148 371.521C95.8825 371.551 96.5135 371.222 97.1076 370.533L97.9045 368.95C97.3188 368.669 96.8141 368.488 96.3904 368.405C95.4966 368.217 94.8512 368.517 94.4543 369.306C94.4251 369.364 94.3959 369.422 94.3667 369.48C93.946 370.431 94.0605 371.07 94.71 371.397ZM104.226 376.318C104.295 376.353 104.362 376.394 104.426 376.441C104.559 376.551 104.562 376.734 104.433 376.989L99.8577 374.686L100.085 374.234C100.457 374.421 100.741 374.535 100.938 374.576C101.339 374.647 101.664 374.433 101.915 373.934L106.662 364.505L105.322 363.83L105.55 363.378L108.803 365.016L103.339 375.871L104.226 376.318ZM112.826 372.143C112.698 372.079 112.556 372.029 112.399 371.994C111.447 371.834 110.534 372.566 109.658 374.19L110.971 374.916C111.453 375.173 111.839 375.331 112.129 375.39C112.593 375.449 112.962 375.206 113.237 374.661C113.336 374.464 113.415 374.264 113.474 374.061C113.761 373.144 113.545 372.505 112.826 372.143ZM113.251 379.225C113.094 379.364 112.919 379.495 112.727 379.616C111.663 380.258 110.469 380.246 109.147 379.58C108.37 379.189 107.756 378.662 107.305 377.999C106.478 376.725 106.464 375.293 107.264 373.704C107.755 372.73 108.421 372.026 109.264 371.593C110.457 370.987 111.719 371.019 113.053 371.69C113.784 372.058 114.369 372.527 114.809 373.097C115.503 374.028 115.62 374.952 115.159 375.868C115.03 376.123 114.861 376.315 114.652 376.442C114.035 376.8 112.866 376.524 111.144 375.614L109.404 374.694C109.398 374.706 109.393 374.718 109.387 374.729C108.283 377.066 108.41 378.577 109.767 379.26C110.022 379.388 110.291 379.473 110.576 379.514C111.423 379.65 112.199 379.437 112.903 378.876L113.251 379.225ZM116.543 382.692C117.32 383.083 117.932 383.065 118.381 382.636C118.474 382.538 118.55 382.431 118.608 382.315C118.888 381.758 118.759 381.104 118.221 380.354C118.1 380.191 117.903 379.946 117.631 379.62C116.936 378.777 116.52 378.116 116.382 377.64C116.256 377.111 116.315 376.603 116.56 376.116C117.022 375.2 117.838 374.819 119.011 374.973C119.528 375.044 120.059 375.217 120.604 375.491C121.45 375.917 122.064 376.43 122.446 377.029C122.621 376.681 122.81 376.536 123.013 376.595C123.077 376.613 123.138 376.636 123.196 376.665L122.102 378.84L121.58 378.577C122.064 377.498 121.753 376.673 120.646 376.101C119.868 375.71 119.265 375.711 118.834 376.105C118.723 376.209 118.636 376.325 118.572 376.452C118.326 376.939 118.461 377.538 118.976 378.248C119.092 378.393 119.28 378.626 119.54 378.946C120.258 379.802 120.683 380.474 120.815 380.962C120.965 381.531 120.905 382.083 120.637 382.616C120.141 383.602 119.297 384.006 118.108 383.829C117.62 383.758 117.121 383.594 116.611 383.337C115.636 382.847 114.915 382.244 114.447 381.528C114.295 381.83 114.132 381.966 113.958 381.936C113.882 381.913 113.798 381.878 113.705 381.831L115.036 379.187L115.593 379.467C114.887 380.928 115.203 382.003 116.543 382.692Z" fill="#D85F53"/>
<path opacity="0.2" d="M863.765 80.9838L776.293 241.54C774.425 244.968 770.067 246.134 766.737 244.097L551.674 121.7L643.431 -42.6192C644.554 -44.6202 647.086 -45.3332 649.088 -44.2102L862.174 75.3268C864.175 76.4498 864.888 78.9828 863.765 80.9838Z" fill="#8089C4"/>
<path d="M848.361 92.1225L760.89 252.68C759.022 256.108 754.663 257.274 751.333 255.237L536.27 132.84L628.027 -31.4805C629.15 -33.4815 631.682 -34.1945 633.684 -33.0715L846.77 86.4665C848.772 87.5885 849.484 90.1215 848.361 92.1225Z" fill="#D3C496"/>
<path d="M848.36 92.1225L761.572 244.787C760.8 246.145 759.076 246.624 757.714 245.86L535.553 133.548L628.026 -31.4805L848.36 92.1225Z" fill="#E8E8E8"/>
<path d="M627.328 -30.4834L847.782 93.1876" stroke="#D6DBDE" stroke-width="0.831" stroke-miterlimit="10"/>
<path d="M626.834 -27.9023L847.288 95.7687" stroke="#D6DBDE" stroke-width="0.831" stroke-miterlimit="10"/>
<path d="M837.614 96.8032L749.384 254.081L535.324 133.77L623.554 -23.5078C624.677 -25.5088 627.209 -26.2218 629.211 -25.0988L836.023 91.1472C838.025 92.2692 838.737 94.8022 837.614 96.8032Z" fill="#F3D364"/>
<path d="M541.803 122.285L539.363 126.633L753.511 246.782L755.951 242.434L541.803 122.285Z" fill="#E0C45D"/>
<path d="M646.276 43.0896L606.02 114.84L735.025 187.22L775.281 115.469L646.276 43.0896Z" fill="#E8E8E8"/>
<path d="M682.862 132.667C683.604 133.068 684.091 133.67 684.321 134.474C684.644 135.623 684.426 136.9 683.667 138.305C683.019 139.504 682.162 140.392 681.098 140.968C681.315 141.085 681.469 141.183 681.559 141.261C681.7 141.411 681.693 141.629 681.539 141.914L677.94 139.97L678.274 139.353C678.738 139.559 679.189 139.707 679.628 139.797C681.199 140.085 682.352 139.55 683.087 138.19C683.284 137.825 683.4 137.46 683.435 137.095C683.54 136.192 683.192 135.524 682.392 135.092C682.13 134.95 681.844 134.877 681.537 134.873C680.927 134.853 680.105 135.213 679.071 135.953C677.947 136.748 677.294 137.207 677.11 137.329C675.878 138.05 674.783 138.152 673.823 137.633C673.183 137.288 672.753 136.76 672.531 136.05C672.2 134.97 672.392 133.768 673.108 132.443C673.67 131.403 674.418 130.553 675.351 129.891C675.248 129.835 675.16 129.78 675.086 129.726C674.894 129.563 674.884 129.321 675.057 129.001L678.124 130.659L677.791 131.276C677.162 130.936 676.533 130.803 675.904 130.876C674.97 130.991 674.251 131.517 673.744 132.454C673.584 132.751 673.484 133.059 673.445 133.377C673.338 134.175 673.627 134.76 674.312 135.13C674.575 135.272 674.866 135.348 675.185 135.359C675.783 135.372 676.593 135.02 677.616 134.303C678.722 133.513 679.363 133.063 679.541 132.953C680.784 132.237 681.891 132.142 682.862 132.667ZM679.4 129.445L678.955 129.204L679.594 128.022L677.966 127.142L678.625 125.063L680.613 126.137L681.909 123.738L682.355 123.979L681.058 126.378L686.25 129.184C686.364 129.246 686.481 129.302 686.602 129.352C687.296 129.624 687.773 129.52 688.032 129.041C688.323 128.475 688.029 127.791 687.148 126.99L687.466 126.565C687.783 126.825 688.037 127.08 688.226 127.33C688.773 128.039 688.803 128.844 688.315 129.747C687.48 131.155 686.206 131.463 684.494 130.671L680.039 128.263L679.4 129.445ZM687.037 122.813C687.848 123.251 688.53 123.546 689.083 123.697C690.189 124 690.973 123.722 691.436 122.866C691.591 122.58 691.673 122.292 691.682 122.002C691.681 121.102 690.762 120.154 688.923 119.16C688.146 118.74 687.487 118.458 686.945 118.313C685.839 118.01 685.052 118.293 684.583 119.161C684.404 119.492 684.32 119.824 684.333 120.155C684.399 120.988 685.301 121.874 687.037 122.813ZM684.174 118.852C684.668 117.938 685.34 117.283 686.189 116.885C687.416 116.309 688.698 116.382 690.034 117.104C691.028 117.641 691.724 118.401 692.123 119.384C692.629 120.632 692.539 121.89 691.854 123.158C691.354 124.083 690.644 124.74 689.726 125.129C688.466 125.658 687.173 125.565 685.848 124.849C684.888 124.33 684.22 123.6 683.844 122.658C683.36 121.423 683.47 120.154 684.174 118.852ZM696.174 113.692C696.204 113.635 696.238 113.586 696.274 113.547C696.39 113.388 696.579 113.379 696.841 113.521L694.332 118.165L693.886 117.924C694.009 117.696 694.094 117.498 694.14 117.331C694.234 116.939 694.035 116.61 693.544 116.345L688.01 113.353L687.426 114.432L686.998 114.201L688.526 111.374L690.192 112.142C689.935 111.825 689.74 111.476 689.607 111.095C689.332 110.238 689.383 109.461 689.76 108.764C689.834 108.627 689.925 108.499 690.033 108.38C690.461 107.918 690.949 107.834 691.497 108.131C691.634 108.205 691.75 108.304 691.845 108.429C692.152 108.817 692.194 109.216 691.972 109.627C691.91 109.742 691.834 109.841 691.745 109.925C691.559 110.105 691.231 110.194 690.76 110.19C690.417 110.197 690.205 110.274 690.125 110.423C690.076 110.514 690.057 110.644 690.069 110.813C690.156 111.554 690.726 112.26 691.779 112.933L695.498 114.943L696.174 113.692ZM701.796 110.908C701.864 110.783 701.909 110.645 701.932 110.494C702.016 109.846 701.508 108.848 700.406 107.5L691.501 106.893L691.085 107.664L690.656 107.433L692.722 103.612L693.15 103.843L692.567 104.923L698.727 105.486L694.799 100.794L694.104 102.079L693.676 101.847L695.102 99.2084C695.182 99.2517 695.247 99.2944 695.298 99.3367C695.428 99.4513 695.428 99.6285 695.299 99.8683C695.268 99.9255 695.246 99.9799 695.232 100.032C695.18 100.21 695.274 100.446 695.515 100.738L700.663 106.82C701.122 107.363 701.489 107.871 701.765 108.345C702.521 109.595 702.646 110.688 702.14 111.625C701.948 111.979 701.704 112.268 701.406 112.491C700.918 112.847 700.474 112.917 700.075 112.701C700.006 112.664 699.938 112.612 699.87 112.546C699.595 112.264 699.562 111.929 699.772 111.541C699.871 111.358 700 111.229 700.159 111.152C700.318 111.076 700.632 111.069 701.101 111.13C701.46 111.176 701.691 111.102 701.796 110.908Z" fill="#755AF2"/>
<path opacity="0.2" d="M626.146 -42.0021L481.473 69.7979C478.384 72.1849 473.925 71.4989 471.696 68.2939L324.045 -130.283L474.156 -243.803C475.989 -245.184 478.594 -244.817 479.975 -242.984L626.966 -47.8211C628.346 -45.9881 627.979 -43.3831 626.146 -42.0021Z" fill="#8089C4"/>
<path d="M607.563 -38.0011L462.89 73.7989C459.801 76.1859 455.342 75.5009 453.113 72.2949L305.461 -126.282L455.572 -239.802C457.405 -241.183 460.01 -240.816 461.391 -238.983L608.382 -43.8201C609.763 -41.9871 609.396 -39.3821 607.563 -38.0011Z" fill="#D34A4D"/>
<path d="M607.564 -38.0008L466.691 66.8482C465.438 67.7812 463.667 67.5263 462.727 66.2783L304.521 -125.922L455.573 -239.802L607.564 -38.0008Z" fill="#E8E8E8"/>
<path d="M595.843 -38.0391L451.794 70.4539L304.223 -125.809L448.272 -234.303C450.105 -235.684 452.71 -235.317 454.091 -233.484L596.662 -43.8581C598.043 -42.0251 597.676 -39.4191 595.843 -38.0391Z" fill="#D85F53"/>
<path d="M314.774 -133.745L310.791 -130.745L458.516 65.4034L462.499 62.4038L314.774 -133.745Z" fill="#D34A4D"/>
<path d="M442.274 -164.227L376.555 -114.731L465.546 3.43105L531.266 -46.0644L442.274 -164.227Z" fill="#E8E8E8"/>
<path opacity="0.2" d="M752.885 232.513L618.818 28.2557C617.559 26.3367 614.983 25.8027 613.064 27.0617L454.695 133.625L588.52 337.513C591.163 341.54 596.587 342.633 600.583 339.944L624.345 323.955L638.454 345.916L641.056 332.357L654.575 335.559L640.246 313.256L751.69 238.268C753.61 237.007 754.144 234.431 752.885 232.513Z" fill="#8089C4"/>
<path d="M731.689 228.265L580.581 329.942C576.584 332.631 571.161 331.538 568.517 327.511L434.693 123.624L593.062 17.0607C594.98 15.8017 597.557 16.3357 598.816 18.2547L732.883 222.512C734.142 224.43 733.608 227.006 731.689 228.265Z" fill="#674BEB"/>
<path d="M730.227 226.067L579.245 325.834C576.222 327.831 572.152 326.993 570.164 323.965L435.139 118.25L591.599 14.8633L730.227 226.067Z" fill="#E8E8E8"/>
<path d="M590.658 15.624L729.361 226.943" stroke="#D6DBDE" stroke-width="0.831" stroke-miterlimit="10"/>
<path d="M588.523 16.9619L727.226 228.282" stroke="#D6DBDE" stroke-width="0.831" stroke-miterlimit="10"/>
<path d="M634.575 325.555L621.056 322.353L618.454 335.913L577.965 272.893L594.086 262.535L634.575 325.555Z" fill="#FBEB8F"/>
<path d="M718.47 227.703L567.709 326.657L429.082 115.453L579.843 16.4992C581.762 15.2402 584.338 15.7742 585.597 17.6932L719.664 221.95C720.923 223.867 720.389 226.443 718.47 227.703Z" fill="#755AF2"/>
<path d="M440.194 108.172L436.025 110.908L574.647 322.112L578.815 319.376L440.194 108.172Z" fill="#674BEB"/>
<path d="M544.679 181.315C544.737 181.277 544.797 181.244 544.861 181.216C545.004 181.163 545.145 181.242 545.283 181.453L541.952 183.639L541.707 183.266C541.87 183.159 542.002 183.058 542.105 182.964C542.396 182.677 542.4 182.318 542.117 181.887L536.991 174.077L536.072 174.68L535.827 174.306L538.325 172.667L541.199 177.046C541.156 176.814 541.141 176.571 541.152 176.317C541.235 175.441 541.663 174.749 542.439 174.24C542.716 174.057 543.006 173.936 543.308 173.874C544.297 173.691 545.165 174.169 545.913 175.308L548.297 178.94L548.843 178.582C548.9 178.545 548.961 178.512 549.025 178.483C549.168 178.431 549.309 178.509 549.447 178.72L546.259 180.812L546.014 180.439C546.235 180.294 546.382 180.163 546.455 180.046C546.549 179.876 546.467 179.594 546.209 179.202L544.221 176.172C544.089 175.971 543.95 175.802 543.805 175.664C543.262 175.171 542.714 175.107 542.158 175.471C541.967 175.597 541.81 175.775 541.688 176.006C541.349 176.68 541.46 177.443 542.019 178.295L544.205 181.626L544.679 181.315ZM549.895 173.988C550.341 174.668 550.747 175.182 551.113 175.531C551.845 176.228 552.57 176.342 553.288 175.87C553.527 175.713 553.711 175.524 553.839 175.303C554.216 174.604 553.898 173.484 552.887 171.943C552.46 171.292 552.066 170.797 551.707 170.457C550.975 169.76 550.246 169.65 549.518 170.127C549.24 170.309 549.037 170.532 548.908 170.795C548.611 171.469 548.94 172.533 549.895 173.988ZM549.33 169.716C550.096 169.214 550.892 168.986 551.717 169.033C552.911 169.099 553.875 169.692 554.61 170.812C555.157 171.644 555.379 172.526 555.277 173.455C555.148 174.636 554.552 175.575 553.489 176.272C552.714 176.781 551.889 176.994 551.013 176.912C549.813 176.795 548.849 176.182 548.12 175.071C547.593 174.267 547.379 173.421 547.481 172.532C547.623 171.371 548.239 170.432 549.33 169.716ZM560.631 170.845C560.688 170.808 560.749 170.775 560.812 170.747C560.956 170.694 561.096 170.773 561.235 170.983L557.458 173.462L557.213 173.088C557.52 172.887 557.732 172.72 557.851 172.588C558.081 172.313 558.061 171.97 557.791 171.559L552.684 163.777L551.578 164.502L551.333 164.129L554.018 162.367L559.898 171.326L560.631 170.845ZM564.78 168.122C564.828 168.091 564.874 168.067 564.919 168.052C565.075 167.976 565.225 168.049 565.37 168.269L561.924 170.531L561.679 170.157C561.87 170.032 562.014 169.917 562.11 169.813C562.376 169.529 562.373 169.181 562.103 168.77L559.059 164.132L558.126 164.745L557.89 164.386L560.403 162.737L564.191 168.508L564.78 168.122ZM559.265 160.69C559.372 160.852 559.434 161.031 559.452 161.224C559.49 161.679 559.313 162.035 558.92 162.292C558.767 162.393 558.597 162.457 558.409 162.484C557.942 162.544 557.576 162.373 557.312 161.971C557.212 161.818 557.15 161.64 557.126 161.436C557.075 160.963 557.246 160.597 557.638 160.34C557.792 160.239 557.965 160.18 558.159 160.162C558.639 160.121 559.007 160.297 559.265 160.69ZM571.141 164.481L570.055 163.201C570.077 163.297 570.092 163.403 570.1 163.521C570.226 164.671 569.819 165.554 568.881 166.17C568.355 166.515 567.775 166.676 567.144 166.653C565.998 166.597 565.035 165.976 564.256 164.789C563.678 163.908 563.41 163.009 563.451 162.092C563.514 160.955 564.019 160.076 564.966 159.454C565.674 158.989 566.42 158.821 567.204 158.951L565.046 155.663L563.725 156.53L563.48 156.157L566.394 154.244L572.275 163.203L572.95 162.76C573.026 162.71 573.092 162.674 573.146 162.652C573.279 162.605 573.415 162.687 573.554 162.898L571.141 164.481ZM565.88 163.476C566.138 163.869 566.402 164.209 566.673 164.496C567.543 165.405 568.332 165.626 569.041 165.161C569.299 164.992 569.483 164.761 569.593 164.47C569.898 163.64 569.61 162.555 568.731 161.215C568.429 160.755 568.119 160.377 567.801 160.079C567.009 159.353 566.283 159.206 565.622 159.64C565.402 159.784 565.229 159.98 565.103 160.227C564.717 161.015 564.976 162.098 565.88 163.476ZM579.491 159.206C578.729 159.693 577.988 159.555 577.27 158.795C577.316 159.011 577.335 159.238 577.327 159.476C577.258 160.289 576.845 160.943 576.089 161.439C575.821 161.615 575.547 161.74 575.267 161.814C574.392 162.046 573.684 161.751 573.144 160.927C572.318 159.648 573.146 158.166 575.629 156.482L575.026 155.563C574.906 155.381 574.787 155.22 574.667 155.079C574.125 154.463 573.567 154.343 572.993 154.72C572.84 154.82 572.72 154.94 572.633 155.079C572.514 155.294 572.526 155.636 572.669 156.104C572.706 156.244 572.731 156.344 572.743 156.404C572.841 156.846 572.718 157.18 572.374 157.407C572.287 157.463 572.192 157.505 572.087 157.533C571.718 157.638 571.426 157.528 571.213 157.203C571.1 157.031 571.046 156.833 571.05 156.611C571.053 155.843 571.657 155.063 572.863 154.271C573.131 154.095 573.4 153.953 573.671 153.843C574.99 153.307 576.054 153.656 576.864 154.89L578.843 157.906C579.145 158.365 579.412 158.532 579.645 158.407C579.926 158.209 579.875 157.756 579.493 157.048L579.875 156.817C580.032 157.098 580.149 157.35 580.227 157.573C580.416 158.215 580.171 158.76 579.491 159.206ZM576.353 160.403C576.468 160.327 576.574 160.217 576.67 160.072C576.988 159.575 577.015 158.948 576.75 158.191L575.893 156.884C575.42 157.208 575.059 157.513 574.81 157.8C574.272 158.4 574.217 159.025 574.644 159.676C574.675 159.724 574.707 159.772 574.738 159.82C575.279 160.56 575.817 160.755 576.353 160.403ZM584.078 159.277C584.183 159.208 584.276 159.12 584.356 159.012C584.693 158.545 584.716 157.557 584.425 156.05L577.768 151.853L577.121 152.277L576.886 151.918L580.088 149.817L580.323 150.176L579.419 150.769L583.965 153.784L582.879 148.498L581.802 149.205L581.566 148.846L583.778 147.395C583.822 147.462 583.854 147.522 583.876 147.577C583.929 147.72 583.855 147.858 583.654 147.989C583.606 148.021 583.566 148.054 583.534 148.089C583.419 148.205 583.394 148.427 583.458 148.755L584.909 155.629C585.038 156.243 585.111 156.791 585.126 157.274C585.19 158.561 584.829 159.462 584.044 159.977C583.748 160.172 583.437 160.293 583.113 160.342C582.585 160.414 582.212 160.283 581.992 159.948C581.954 159.89 581.923 159.822 581.898 159.742C581.802 159.408 581.917 159.134 582.242 158.921C582.395 158.82 582.549 158.774 582.705 158.781C582.861 158.789 583.107 158.914 583.445 159.158C583.704 159.344 583.915 159.384 584.078 159.277Z" fill="#E8E8E8"/>
<path d="M566.586 188.712C565.68 189.293 564.747 189.364 563.788 188.926L564.309 190.001L562.242 191.358L561.997 190.985C562.178 190.865 562.322 190.75 562.428 190.64C562.665 190.375 562.645 190.032 562.368 189.611L557.251 181.814L556.361 182.399L556.116 182.025L558.6 180.395L561.559 184.904C561.556 184.878 561.553 184.853 561.55 184.827C561.378 183.543 561.8 182.568 562.814 181.902C563.35 181.55 563.931 181.402 564.556 181.457C565.635 181.557 566.564 182.201 567.343 183.387C567.965 184.335 568.222 185.29 568.113 186.251C567.995 187.301 567.485 188.122 566.586 188.712ZM562.631 182.968C562.334 183.163 562.13 183.447 562.019 183.821C561.778 184.664 562.063 185.703 562.874 186.937C563.213 187.454 563.565 187.866 563.932 188.174C564.705 188.83 565.422 188.942 566.082 188.509C566.216 188.421 566.335 188.309 566.437 188.173C567.005 187.431 566.767 186.265 565.724 184.676C565.655 184.571 565.586 184.466 565.517 184.36C564.454 182.867 563.492 182.402 562.631 182.968ZM570.099 181.764C570.545 182.443 570.951 182.958 571.316 183.306C572.048 184.004 572.773 184.117 573.491 183.646C573.73 183.489 573.914 183.3 574.043 183.078C574.419 182.379 574.102 181.259 573.09 179.718C572.663 179.067 572.27 178.572 571.91 178.233C571.179 177.535 570.449 177.425 569.721 177.903C569.444 178.085 569.241 178.307 569.112 178.57C568.815 179.244 569.144 180.309 570.099 181.764ZM569.534 177.492C570.3 176.989 571.095 176.762 571.92 176.809C573.114 176.875 574.078 177.467 574.813 178.587C575.36 179.42 575.582 180.301 575.48 181.231C575.351 182.411 574.755 183.35 573.693 184.048C572.918 184.556 572.092 184.77 571.216 184.687C570.017 184.57 569.052 183.957 568.324 182.847C567.796 182.043 567.583 181.196 567.685 180.308C567.826 179.147 568.443 178.208 569.534 177.492ZM577.536 176.882C577.982 177.562 578.388 178.076 578.754 178.425C579.486 179.123 580.21 179.236 580.928 178.765C581.168 178.607 581.352 178.418 581.48 178.197C581.857 177.498 581.539 176.378 580.528 174.837C580.101 174.186 579.707 173.691 579.348 173.352C578.616 172.654 577.886 172.544 577.159 173.021C576.881 173.204 576.678 173.426 576.549 173.689C576.252 174.363 576.581 175.428 577.536 176.882ZM576.971 172.61C577.737 172.108 578.533 171.88 579.358 171.927C580.551 171.993 581.516 172.586 582.251 173.706C582.797 174.539 583.02 175.42 582.918 176.35C582.788 177.53 582.193 178.469 581.13 179.166C580.355 179.675 579.529 179.888 578.653 179.806C577.454 179.689 576.49 179.076 575.761 177.965C575.233 177.161 575.02 176.315 575.122 175.427C575.264 174.265 575.88 173.327 576.971 172.61ZM588.228 173.768C588.276 173.736 588.322 173.713 588.367 173.697C588.523 173.622 588.673 173.695 588.818 173.915L585.085 176.365L584.84 175.992C585.012 175.879 585.154 175.772 585.266 175.671C585.653 175.321 585.705 174.931 585.422 174.5L580.296 166.69L579.205 167.406L578.96 167.032L581.63 165.28L585.701 171.482L586.772 166.979L585.709 167.676L585.474 167.317L587.915 165.715C587.946 165.763 587.973 165.814 587.994 165.868C588.07 166.025 587.997 166.175 587.777 166.319C587.681 166.382 587.601 166.448 587.537 166.518C587.39 166.669 587.257 167.01 587.139 167.539L586.707 169.384L591.473 171.638L591.789 171.431C591.846 171.393 591.902 171.363 591.956 171.341C592.093 171.279 592.234 171.358 592.379 171.578L590.163 173.053L586.289 171.158L586.078 172.057L587.51 174.239L588.228 173.768Z" fill="#E8E8E8"/>
<path d="M643.444 209.711C643.444 207.248 644.719 205.086 646.642 203.839L573.169 91.8993C572.069 92.6183 570.758 93.0403 569.346 93.0403C566.891 93.0403 564.735 91.7743 563.486 89.8623L506.383 127.342C507.12 128.451 507.552 129.781 507.552 131.212C507.552 133.657 506.297 135.806 504.398 137.058L577.871 248.998C578.962 248.296 580.257 247.884 581.65 247.884C584.097 247.884 586.248 249.142 587.499 251.044L644.602 213.563C643.871 212.457 643.444 211.134 643.444 209.711Z" stroke="#E8E8E8" stroke-miterlimit="10"/>
<path opacity="0.2" d="M252.51 209.786C283.795 178.5 283.795 127.777 252.51 96.4915C221.225 65.2061 170.501 65.2061 139.216 96.4915C107.93 127.777 107.93 178.5 139.216 209.786C170.501 241.071 221.225 241.071 252.51 209.786Z" fill="#8089C4"/>
<path d="M238.101 211.048C268.799 180.35 268.799 130.578 238.101 99.8802C207.403 69.1821 157.631 69.1821 126.933 99.8802C96.2353 130.578 96.2353 180.35 126.933 211.048C157.631 241.746 207.403 241.746 238.101 211.048Z" fill="#F6F6F6"/>
<path d="M202.996 226.526C235.871 217.824 258.206 188.434 259.035 155.628L237.529 152.822C241.502 182.514 227.418 211.136 202.996 226.526Z" fill="#F7F9FF"/>
<path d="M217.398 110.743L228.798 93.292C211.79 80.587 189.548 75.101 167.205 80.098C158.54 82.036 150.562 85.397 143.457 89.875C144.411 89.622 145.372 89.382 146.344 89.164C173.118 83.178 199.747 92.241 217.398 110.743Z" fill="#F7F9FF"/>
<path d="M228.798 93.292L217.398 110.743C226.535 120.32 233.267 132.424 236.366 146.282C236.854 148.465 237.239 150.647 237.53 152.823L259.036 155.629C259.189 149.572 258.61 143.398 257.227 137.216C253.137 118.927 242.721 103.692 228.798 93.292Z" fill="#F7F9FF"/>
<path d="M217.399 110.743C199.748 92.2405 173.119 83.1765 146.346 89.1645C145.374 89.3815 144.414 89.6225 143.459 89.8755C117.248 106.395 102.941 138.154 110.089 170.12C119.175 210.751 159.479 236.323 200.111 227.236C201.083 227.019 202.043 226.778 202.998 226.525C227.42 211.134 241.503 182.514 237.531 152.822C237.24 150.646 236.855 148.464 236.367 146.281C233.268 132.424 226.535 120.32 217.399 110.743Z" fill="#EEF2FF"/>
<path d="M251.111 114.383L235.619 121.188C238.046 124.589 240.164 128.287 241.911 132.265C242.113 132.725 242.308 133.187 242.498 133.649L256.811 127.362C259.124 126.346 260.176 123.647 259.16 121.334L257.139 116.733C256.124 114.419 253.425 113.367 251.111 114.383Z" fill="#F6F6F6"/>
<path d="M235.62 121.188L227.377 124.808L233.077 137.786L242.498 133.648C242.308 133.186 242.113 132.725 241.911 132.265C240.165 128.288 238.048 124.589 235.62 121.188Z" fill="#F0ECE8"/>
<path d="M199.547 203.836C227.251 195.06 242.595 165.487 233.818 137.783C225.042 110.078 195.468 94.7346 167.764 103.511C140.06 112.288 124.716 141.861 133.493 169.565C142.269 197.269 171.843 212.613 199.547 203.836Z" fill="#F6F6F6"/>
<path d="M139.566 158.246C144.976 182.44 168.975 197.666 193.169 192.256C217.363 186.846 232.59 162.847 227.179 138.653C223.926 124.105 213.95 112.802 201.254 107.276C192.484 103.941 182.673 103.049 172.832 105.249C168.651 106.184 164.712 107.621 161.065 109.483C144.426 119.003 135.163 138.56 139.566 158.246Z" fill="#DEC8B2"/>
<path d="M201.253 107.276C213.949 112.802 223.925 124.105 227.178 138.653C232.588 162.847 217.361 186.845 193.168 192.256C168.974 197.666 144.976 182.44 139.565 158.246C135.163 138.56 144.425 119.003 161.063 109.484C141.385 119.53 130.195 141.936 135.24 164.495C141.22 191.235 167.745 208.065 194.485 202.085C221.225 196.105 238.055 169.58 232.075 142.84C228.297 125.94 216.311 113.003 201.253 107.276Z" fill="#EDE0D3"/>
<path d="M148.759 159.27C145.242 143.541 151.578 127.905 163.676 118.813C148.143 126.948 139.35 144.751 143.359 162.678C148.148 184.093 169.391 197.572 190.806 192.783C196.493 191.511 201.62 189.079 205.993 185.792C202.97 187.375 199.694 188.594 196.206 189.374C174.791 194.164 153.548 180.686 148.759 159.27Z" fill="#362628"/>
<path d="M220.911 145.337C216.122 123.922 194.879 110.443 173.464 115.232C169.975 116.012 166.699 117.231 163.677 118.814C151.579 127.906 145.242 143.542 148.76 159.271C153.549 180.686 174.792 194.165 196.207 189.376C199.695 188.596 202.972 187.377 205.994 185.794C218.092 176.702 224.428 161.066 220.911 145.337Z" fill="#422E32"/>
<path d="M173.465 115.232C169.976 116.012 166.7 117.231 163.678 118.814C148.145 126.949 139.352 144.752 143.361 162.679C148.15 184.094 169.393 197.573 190.808 192.784C196.495 191.512 201.622 189.08 205.995 185.793C218.093 176.701 224.43 161.065 220.912 145.336C216.123 123.922 194.88 110.443 173.465 115.232ZM206.438 183.595C202.521 186.539 197.929 188.717 192.836 189.856C173.656 194.145 157.363 182.591 153.054 168.09C148.367 152.319 173.409 151.807 171.465 133.578C170.185 121.575 174.001 119.823 178.896 119.118C198.35 116.316 215.509 128.18 219.798 147.36C222.949 161.448 217.273 175.452 206.438 183.595Z" fill="#AD6E4E"/>
<path d="M167.739 130.039C168.285 132.479 166.749 134.9 164.309 135.445C161.869 135.991 159.448 134.455 158.903 132.015C158.358 129.575 159.893 127.154 162.333 126.609C164.772 126.063 167.193 127.599 167.739 130.039Z" fill="#DEC8B2"/>
<path d="M167.027 129.718C167.554 132.074 166.071 134.411 163.715 134.938C161.359 135.465 159.022 133.982 158.495 131.626C157.968 129.27 159.451 126.933 161.807 126.406C164.163 125.879 166.5 127.362 167.027 129.718Z" fill="#422E32"/>
<path d="M160.627 129.71C160.684 129.963 160.525 130.213 160.272 130.269C160.019 130.326 159.769 130.167 159.713 129.914C159.656 129.661 159.815 129.411 160.068 129.355C160.32 129.298 160.571 129.457 160.627 129.71Z" fill="#DEC8B2"/>
<path d="M161.288 127.805C161.556 127.626 161.864 127.517 162.172 127.425C162.505 127.325 162.845 127.241 163.192 127.216C163.651 127.183 164.116 127.256 164.543 127.427C164.709 127.493 165.015 127.635 164.91 127.779C164.687 128.086 164.161 127.69 163.782 127.671C163.538 127.659 163.295 127.707 163.058 127.768C162.37 127.946 161.712 128.235 161.116 128.623C160.785 128.838 160.709 128.609 160.794 128.335C160.86 128.124 161.112 127.923 161.288 127.805Z" fill="#DEC8B2"/>
<path d="M151.223 150.975C152.34 151.947 152.458 153.64 151.486 154.758C150.514 155.875 148.821 155.993 147.703 155.021C146.586 154.049 146.468 152.356 147.44 151.238C148.413 150.121 150.106 150.003 151.223 150.975Z" fill="#DEC8B2"/>
<path d="M150.772 151.072C151.851 152.01 151.964 153.646 151.026 154.724C150.088 155.803 148.452 155.916 147.374 154.978C146.295 154.039 146.182 152.404 147.12 151.326C148.058 150.247 149.693 150.133 150.772 151.072Z" fill="#422E32"/>
<path d="M147.715 153.316C147.831 153.417 147.843 153.592 147.742 153.707C147.642 153.822 147.466 153.835 147.351 153.734C147.236 153.633 147.223 153.458 147.324 153.343C147.425 153.227 147.6 153.215 147.715 153.316Z" fill="#DEC8B2"/>
<path d="M147.363 152.175C147.428 151.996 147.536 151.836 147.651 151.683C147.775 151.518 147.907 151.359 148.064 151.225C148.271 151.048 148.519 150.92 148.782 150.851C148.884 150.824 149.08 150.784 149.081 150.89C149.082 151.115 148.693 151.111 148.505 151.235C148.384 151.315 148.285 151.423 148.194 151.536C147.928 151.862 147.716 152.232 147.568 152.626C147.486 152.845 147.369 152.762 147.313 152.602C147.271 152.477 147.321 152.293 147.363 152.175Z" fill="#DEC8B2"/>
<path d="M149.335 164.217C148.803 165.348 147.455 165.835 146.323 165.303C145.191 164.771 144.705 163.423 145.237 162.291C145.769 161.159 147.117 160.673 148.249 161.205C149.381 161.737 149.867 163.085 149.335 164.217Z" fill="#DEC8B2"/>
<path d="M149.151 163.872C148.638 164.964 147.336 165.434 146.243 164.921C145.15 164.408 144.681 163.106 145.194 162.013C145.707 160.921 147.009 160.451 148.102 160.964C149.195 161.478 149.665 162.78 149.151 163.872Z" fill="#422E32"/>
<path d="M146.624 161.908C146.569 162.025 146.429 162.075 146.312 162.02C146.195 161.965 146.145 161.825 146.2 161.708C146.255 161.591 146.395 161.541 146.512 161.596C146.629 161.652 146.679 161.791 146.624 161.908Z" fill="#DEC8B2"/>
<path d="M147.468 161.357C147.629 161.368 147.784 161.42 147.934 161.477C148.096 161.539 148.256 161.61 148.401 161.707C148.592 161.835 148.754 162.006 148.87 162.204C148.915 162.281 148.993 162.431 148.907 162.456C148.725 162.509 148.638 162.191 148.494 162.068C148.401 161.988 148.29 161.933 148.178 161.885C147.852 161.745 147.503 161.657 147.149 161.628C146.952 161.612 146.992 161.498 147.11 161.416C147.201 161.352 147.363 161.35 147.468 161.357Z" fill="#DEC8B2"/>
<path d="M155.409 175.838C156.13 176.411 156.249 177.46 155.676 178.181C155.103 178.902 154.054 179.021 153.333 178.448C152.612 177.875 152.493 176.826 153.066 176.105C153.639 175.384 154.688 175.265 155.409 175.838Z" fill="#DEC8B2"/>
<path d="M155.131 175.91C155.827 176.463 155.942 177.476 155.389 178.172C154.836 178.868 153.823 178.983 153.127 178.43C152.431 177.877 152.316 176.864 152.869 176.168C153.422 175.472 154.435 175.357 155.131 175.91Z" fill="#422E32"/>
<path d="M153.295 177.388C153.37 177.447 153.382 177.556 153.323 177.63C153.264 177.705 153.155 177.717 153.081 177.658C153.006 177.599 152.994 177.49 153.053 177.416C153.112 177.341 153.221 177.329 153.295 177.388Z" fill="#DEC8B2"/>
<path d="M153.044 176.689C153.079 176.576 153.142 176.473 153.209 176.375C153.281 176.269 153.359 176.167 153.453 176.079C153.577 175.963 153.727 175.877 153.889 175.827C153.952 175.808 154.072 175.778 154.076 175.843C154.083 175.983 153.841 175.991 153.728 176.073C153.655 176.126 153.597 176.196 153.543 176.268C153.387 176.478 153.265 176.713 153.184 176.962C153.139 177.1 153.064 177.052 153.025 176.954C152.995 176.88 153.02 176.764 153.044 176.689Z" fill="#DEC8B2"/>
<path d="M170.627 121.487C170.441 122.389 169.56 122.969 168.658 122.784C167.756 122.599 167.176 121.716 167.361 120.815C167.547 119.913 168.428 119.333 169.33 119.518C170.232 119.703 170.813 120.585 170.627 121.487Z" fill="#DEC8B2"/>
<path d="M170.436 121.271C170.257 122.142 169.405 122.702 168.535 122.523C167.664 122.344 167.104 121.492 167.283 120.622C167.462 119.751 168.314 119.191 169.185 119.37C170.055 119.549 170.615 120.401 170.436 121.271Z" fill="#422E32"/>
<path d="M168.289 120.301C168.27 120.394 168.179 120.454 168.085 120.435C167.992 120.416 167.932 120.325 167.951 120.231C167.97 120.138 168.061 120.078 168.155 120.097C168.248 120.116 168.308 120.207 168.289 120.301Z" fill="#DEC8B2"/>
<path d="M168.799 119.761C168.916 119.741 169.036 119.751 169.153 119.767C169.28 119.784 169.407 119.807 169.527 119.851C169.686 119.909 169.831 120.004 169.949 120.126C169.995 120.173 170.076 120.267 170.019 120.3C169.897 120.369 169.781 120.157 169.656 120.093C169.576 120.052 169.487 120.031 169.398 120.016C169.14 119.972 168.875 119.969 168.616 120.009C168.472 120.031 168.481 119.943 168.551 119.864C168.607 119.803 168.722 119.774 168.799 119.761Z" fill="#DEC8B2"/>
<path d="M163.787 142.722C164.778 144.44 164.188 146.636 162.471 147.627C160.753 148.618 158.557 148.028 157.567 146.311C156.576 144.593 157.165 142.397 158.883 141.406C160.601 140.414 162.796 141.004 163.787 142.722Z" fill="#DEC8B2"/>
<path d="M163.174 142.647C164.131 144.306 163.562 146.426 161.903 147.382C160.244 148.339 158.124 147.77 157.168 146.111C156.211 144.452 156.78 142.332 158.439 141.376C160.097 140.42 162.217 140.989 163.174 142.647Z" fill="#422E32"/>
<path d="M158.325 144.157C158.427 144.335 158.367 144.562 158.189 144.664C158.011 144.767 157.784 144.706 157.682 144.528C157.58 144.35 157.64 144.123 157.818 144.021C157.996 143.918 158.223 143.979 158.325 144.157Z" fill="#DEC8B2"/>
<path d="M158.376 142.558C158.536 142.359 158.744 142.204 158.955 142.061C159.183 141.906 159.421 141.762 159.678 141.661C160.017 141.528 160.387 141.472 160.751 141.501C160.892 141.512 161.157 141.547 161.112 141.681C161.016 141.966 160.524 141.791 160.232 141.867C160.044 141.916 159.872 142.01 159.707 142.112C159.228 142.41 158.798 142.785 158.439 143.219C158.239 143.46 158.128 143.305 158.127 143.077C158.128 142.901 158.272 142.689 158.376 142.558Z" fill="#DEC8B2"/>
<path d="M157.455 133.473C158.446 135.191 157.856 137.387 156.139 138.377C154.421 139.368 152.225 138.778 151.235 137.061C150.244 135.343 150.833 133.147 152.551 132.156C154.268 131.166 156.464 131.755 157.455 133.473Z" fill="#DEC8B2"/>
<path d="M156.84 133.399C157.797 135.058 157.228 137.178 155.569 138.135C153.91 139.092 151.79 138.523 150.834 136.864C149.877 135.205 150.446 133.085 152.105 132.129C153.764 131.171 155.884 131.74 156.84 133.399Z" fill="#422E32"/>
<path d="M151.993 134.908C152.095 135.086 152.035 135.313 151.857 135.415C151.679 135.517 151.452 135.456 151.35 135.279C151.248 135.101 151.308 134.874 151.486 134.772C151.664 134.67 151.891 134.73 151.993 134.908Z" fill="#DEC8B2"/>
<path d="M152.042 133.311C152.202 133.112 152.409 132.957 152.621 132.814C152.849 132.659 153.087 132.515 153.344 132.414C153.683 132.281 154.053 132.225 154.417 132.254C154.558 132.265 154.823 132.3 154.778 132.434C154.682 132.72 154.19 132.544 153.898 132.62C153.71 132.669 153.538 132.763 153.373 132.865C152.894 133.163 152.464 133.538 152.105 133.972C151.905 134.213 151.793 134.058 151.793 133.83C151.794 133.653 151.937 133.441 152.042 133.311Z" fill="#DEC8B2"/>
<path d="M151.742 147.17C150.236 148.013 148.332 147.476 147.489 145.97C146.646 144.464 147.183 142.56 148.689 141.717C150.195 140.874 152.099 141.411 152.942 142.916C153.785 144.421 153.247 146.327 151.742 147.17Z" fill="#DEC8B2"/>
<path d="M151.813 146.637C150.359 147.451 148.521 146.933 147.707 145.479C146.893 144.025 147.411 142.187 148.865 141.373C150.319 140.559 152.157 141.077 152.971 142.531C153.785 143.984 153.267 145.823 151.813 146.637Z" fill="#422E32"/>
<path d="M150.554 142.402C150.398 142.489 150.201 142.434 150.114 142.278C150.027 142.122 150.082 141.925 150.238 141.838C150.394 141.751 150.591 141.806 150.678 141.962C150.766 142.118 150.71 142.315 150.554 142.402Z" fill="#DEC8B2"/>
<path d="M151.943 142.463C152.114 142.605 152.247 142.787 152.369 142.972C152.501 143.173 152.624 143.381 152.709 143.605C152.821 143.902 152.865 144.224 152.837 144.54C152.826 144.663 152.793 144.893 152.677 144.852C152.43 144.765 152.588 144.339 152.525 144.085C152.485 143.921 152.405 143.77 152.318 143.626C152.065 143.206 151.743 142.828 151.369 142.511C151.161 142.335 151.298 142.239 151.496 142.241C151.648 142.243 151.831 142.37 151.943 142.463Z" fill="#DEC8B2"/>
<path opacity="0.2" d="M396.372 72.1277C395.863 71.7737 395.354 71.4197 394.843 71.0687C391.127 68.5167 387.311 66.1147 383.276 64.1107C380.085 62.5257 376.817 61.0747 373.513 59.7397C368.887 57.8717 364.113 56.4737 359.125 55.9507C349.65 54.9557 341.067 57.2627 333.361 62.7657C332.721 62.6707 332.079 62.5937 331.434 62.5517C330.909 62.1867 330.383 61.8257 329.871 61.4437C326.125 58.6477 321.962 56.9097 317.285 56.5507C315.014 54.4777 312.368 52.8697 309.492 51.8207C309.026 50.7917 308.517 49.7817 307.96 48.7927C303.115 40.1937 295.787 34.6147 286.585 31.3887C283.767 30.4007 280.891 29.5387 277.987 28.8477C274.736 28.0737 271.439 27.4547 268.134 26.9567C263.598 26.2727 259.016 26.0307 254.428 25.9597C253.324 25.9427 252.929 26.2127 252.574 27.2777C251.938 29.1827 251.315 31.0907 250.665 32.9907C250.268 34.1507 249.826 35.2947 250.111 36.5597C250.137 36.6737 250.115 36.7997 250.103 36.9197C249.59 41.9187 249.074 46.9177 248.561 51.9167C248.212 55.3207 247.701 58.7177 247.551 62.1307C246.934 76.1597 256.138 89.5317 271.39 92.4527C276.274 93.3877 281.091 93.0427 285.808 91.4837C292.072 89.4137 297.093 85.6637 300.852 80.2327C300.963 80.0727 301.096 79.8207 301.238 79.8067C302.379 79.6927 303.026 78.8597 303.698 78.1127C305.589 76.0107 307.061 73.6217 308.189 71.0407C308.745 69.7687 309.264 68.4807 309.774 67.1897L314.038 68.1817L308.572 71.5637L326.395 76.3447C326.19 77.3297 326.023 78.3237 325.923 79.3327C325.701 81.5897 325.541 83.8457 325.911 86.0987C326.029 86.8167 326.118 87.5767 326.786 88.0787C326.876 88.1467 326.87 88.3767 326.865 88.5297C326.703 94.1427 327.985 99.3987 330.858 104.229C335.485 112.008 342.295 116.751 351.181 118.338C358.11 119.575 364.671 118.263 370.755 114.726C375.484 111.976 379.159 108.172 381.866 103.412C384.657 98.5037 387.462 93.6027 390.327 88.7377C391.624 86.5357 392.714 84.1977 394.405 82.2377C394.581 82.0337 394.676 81.7467 394.764 81.4837C395.172 80.2647 395.563 79.0407 395.961 77.8187C395.937 77.8107 395.913 77.8027 395.889 77.7957C396.286 76.5737 396.689 75.3527 397.079 74.1287C397.377 73.1947 397.194 72.6987 396.372 72.1277Z" fill="#8089C4"/>
<path d="M386.372 108.131C385.33 108.131 384.42 107.364 384.269 106.303L382.787 95.8689C381.646 87.8309 376.159 81.2219 368.467 78.6209L248.015 34.0009C246.914 33.5929 246.352 32.3699 246.76 31.2689C247.168 30.1679 248.392 29.6059 249.492 30.0139L369.887 74.6129C379.051 77.7099 385.629 85.6339 386.998 95.2709L388.479 105.705C388.644 106.868 387.836 107.944 386.673 108.109C386.573 108.124 386.472 108.131 386.372 108.131Z" fill="#5C4046"/>
<path d="M377.48 75.9889L256.775 32.2359C248.522 28.9729 239.136 30.6359 232.506 36.5359L224.633 43.5419" stroke="#422E32" stroke-width="4.252" stroke-miterlimit="10" stroke-linecap="round" stroke-linejoin="round"/>
<path d="M385.962 67.8158C385.565 69.0378 385.173 70.2618 384.765 71.4808C384.677 71.7438 384.582 72.0308 384.406 72.2348C382.716 74.1948 381.625 76.5328 380.328 78.7348C377.463 83.5998 374.658 88.5008 371.867 93.4088C369.161 98.1688 365.486 101.973 360.756 104.723C354.672 108.261 348.111 109.573 341.182 108.335C332.296 106.749 325.486 102.005 320.859 94.2258C317.986 89.3958 316.704 84.1398 316.866 78.5268C316.87 78.3728 316.876 78.1438 316.787 78.0758C316.119 77.5738 316.03 76.8138 315.912 76.0958C315.542 73.8438 315.702 71.5878 315.924 69.3298C316.23 66.2128 317.145 63.2388 318.02 60.2578C318.219 59.5788 318.099 59.1888 317.529 58.7508C312.857 55.1648 307.59 53.5048 301.711 53.7338C301.28 53.7508 301.069 53.9018 300.916 54.2888C300.022 56.5448 299.161 58.8158 298.189 61.0378C297.06 63.6198 295.589 66.0088 293.698 68.1098C293.026 68.8568 292.379 69.6898 291.238 69.8038C291.096 69.8178 290.963 70.0698 290.852 70.2298C287.093 75.6598 282.072 79.4108 275.808 81.4808C271.091 83.0398 266.274 83.3848 261.39 82.4498C246.138 79.5288 236.934 66.1568 237.551 52.1278C237.701 48.7148 238.212 45.3178 238.561 41.9148C239.073 36.9158 239.59 31.9168 240.103 26.9178C240.115 26.7988 240.137 26.6718 240.111 26.5578C239.826 25.2938 240.268 24.1488 240.665 22.9888C241.315 21.0888 241.938 19.1798 242.574 17.2758C242.929 16.2108 243.324 15.9408 244.428 15.9578C249.016 16.0278 253.598 16.2708 258.134 16.9548C261.439 17.4528 264.736 18.0718 267.987 18.8458C270.891 19.5368 273.767 20.3998 276.585 21.3868C285.788 24.6128 293.115 30.1918 297.96 38.7908C299.235 41.0528 300.306 43.4068 301.01 45.9138C301.106 46.2558 301.24 46.3898 301.621 46.3948C303.482 46.4168 305.348 46.4038 307.202 46.5398C311.913 46.8848 316.102 48.6298 319.871 51.4418C320.64 52.0158 321.45 52.5368 322.222 53.1068C322.478 53.2958 322.633 53.2838 322.891 53.0938C330.717 47.3468 339.458 44.9338 349.124 45.9488C354.112 46.4728 358.886 47.8698 363.512 49.7378C366.817 51.0718 370.084 52.5238 373.275 54.1088C377.311 56.1128 381.126 58.5148 384.842 61.0668C385.353 61.4178 385.862 61.7718 386.371 62.1248C387.194 62.6958 387.376 63.1918 387.079 64.1238C386.689 65.3478 386.286 66.5688 385.889 67.7908C385.914 67.7998 385.938 67.8078 385.962 67.8158ZM239.983 45.0178C235.284 59.6938 242.985 75.4878 257.921 80.3708C273.571 85.4878 288.918 76.4278 293.414 62.3448C298.148 47.5158 290.039 31.7198 275.302 26.9898C260.764 22.3228 244.896 30.1088 239.983 45.0178ZM319.402 70.8518C314.617 85.6048 322.699 101.431 337.473 106.242C352.218 111.044 368.937 102.903 373.301 86.6488C376.938 73.1048 369.675 57.6938 354.761 52.8378C340.04 48.0448 324.176 56.1348 319.402 70.8518Z" fill="#422E32"/>
<path opacity="0.22" d="M239.982 45.0177C244.896 30.1097 260.763 22.3227 275.3 26.9897C290.037 31.7207 298.147 47.5157 293.412 62.3447C288.916 76.4287 273.569 85.4877 257.919 80.3707C242.984 75.4877 235.283 59.6937 239.982 45.0177Z" fill="white"/>
<path opacity="0.07" d="M319.403 70.8518C324.177 56.1348 340.04 48.0458 354.762 52.8388C369.676 57.6948 376.939 73.1048 373.302 86.6498C368.938 102.904 352.219 111.044 337.474 106.243C322.7 101.43 314.618 85.6038 319.403 70.8518Z" fill="white"/>
<path opacity="0.07" d="M242.621 68.4162C252.655 52.2912 266.366 39.3532 282.193 30.2862C280.053 28.8442 277.681 27.6712 275.102 26.8432C260.564 22.1762 244.697 29.9632 239.784 44.8712C237.159 53.0702 238.407 61.6162 242.621 68.4162Z" fill="white"/>
<path opacity="0.07" d="M322.119 94.2648C332.153 78.1398 345.864 65.2018 361.691 56.1348C359.551 54.6928 357.18 53.5198 354.6 52.6918C340.062 48.0248 324.195 55.8118 319.282 70.7198C316.657 78.9188 317.905 87.4658 322.119 94.2648Z" fill="white"/>
<path d="M246.348 24.4239C251.022 21.8599 256.381 20.4409 261.803 20.2299C267.234 19.9919 272.716 20.9889 277.789 22.9899C278.438 23.2049 279.049 23.5089 279.661 23.8129L281.5 24.7109C282.125 24.9879 282.701 25.3549 283.282 25.7119L285.022 26.7859C285.613 27.1269 286.138 27.5669 286.679 27.9809L288.294 29.2319C289.367 30.0679 290.294 31.0809 291.281 32.0089C295.052 35.9109 297.94 40.6969 299.314 45.8559C296.97 41.0709 293.767 36.8659 289.932 33.3949C286.089 29.9399 281.655 27.1769 276.872 25.2899C272.105 23.3609 266.988 22.3169 261.819 22.1559C256.641 22.0079 251.425 22.8089 246.348 24.4239Z" fill="#E6E6E6"/>
<path d="M377.639 59.5449L383.316 62.6439C384.269 63.1639 384.737 64.2719 384.447 65.3179L383.368 69.2019L377.639 59.5449Z" fill="#5C4046"/>
<path d="M302.035 49.1035C303.472 48.5735 305.019 48.3595 306.561 48.3695C308.107 48.3695 309.651 48.6285 311.139 49.0605C312.619 49.5205 314.048 50.1575 315.338 51.0115C316.629 51.8545 317.799 52.8885 318.703 54.1265C317.375 53.3685 316.084 52.6665 314.757 52.0585C313.428 51.4615 312.082 50.9315 310.696 50.5275C309.318 50.0965 307.904 49.7945 306.466 49.5565C305.024 49.3305 303.56 49.2025 302.035 49.1035Z" fill="#E6E6E6"/>
<path d="M572.181 651.319L383.324 609.447C378.808 608.339 376.046 603.78 377.155 599.264L434.421 365.935C435.529 361.419 440.088 358.657 444.604 359.766L636.813 408.727L572.181 651.319Z" fill="#755AF2"/>
<path d="M569.562 650.129L755.115 704.816C759.603 706.03 764.225 703.375 765.438 698.887L828.159 466.965C829.373 462.477 826.718 457.854 822.23 456.641L630.315 406.537L569.562 650.129Z" fill="#755AF2"/>
<path d="M571.945 645.213L567.484 641.463C545.54 623.016 518.88 611.065 490.508 606.957L379.189 605.658L450.71 361.279L562.029 362.577C590.401 366.685 617.061 378.636 639.005 397.083L643.466 400.833L571.945 645.213Z" fill="#EDECE1"/>
<path d="M571.946 645.214L567.485 641.464C545.541 623.017 518.881 611.066 490.509 606.958L390.172 602.436L461.693 358.057L562.03 362.579C590.402 366.687 617.062 378.638 639.006 397.085L643.467 400.835L571.946 645.214Z" fill="#F7F6EB"/>
<path d="M571.512 645.085L577.29 644.332C605.717 640.627 634.614 644.935 660.724 656.772L747.667 707.06L821.294 451.71L736.51 411.452C710.4 399.615 677.239 396.247 648.812 399.953L643.034 400.706L571.512 645.085Z" fill="#EDECE1"/>
<path d="M477.473 385.23L553.103 395.209C574.705 399.478 595.622 407.63 613.496 418.744L617.129 421.003" stroke="#A3AFFB" stroke-width="3.9776" stroke-miterlimit="10"/>
<path d="M472.33 399.301L547.96 409.28C569.562 413.549 590.478 421.701 608.353 432.815L611.986 435.074" stroke="#A3AFFB" stroke-width="3.9776" stroke-miterlimit="10"/>
<path d="M467.188 413.37L542.818 423.349C564.42 427.618 585.336 435.77 603.211 446.884L606.844 449.143" stroke="#A3AFFB" stroke-width="3.9776" stroke-miterlimit="10"/>
<path d="M477.473 385.23L553.103 395.209C574.705 399.478 595.622 407.63 613.496 418.744L617.129 421.003" stroke="#A3AFFB" stroke-width="3.9776" stroke-miterlimit="10"/>
<path d="M472.33 399.301L547.96 409.28C569.562 413.549 590.478 421.701 608.353 432.815L611.986 435.074" stroke="#A3AFFB" stroke-width="3.9776" stroke-miterlimit="10"/>
<path d="M467.188 413.37L542.818 423.349C564.42 427.618 585.336 435.77 603.211 446.884L606.844 449.143" stroke="#A3AFFB" stroke-width="3.9776" stroke-miterlimit="10"/>
<path d="M461.766 439.007L537.396 448.986C558.998 453.255 579.914 461.407 597.789 472.521L601.422 474.78" stroke="#A3AFFB" stroke-width="3.9776" stroke-miterlimit="10"/>
<path d="M456.625 453.076L532.255 463.055C553.857 467.324 574.773 475.476 592.648 486.591L596.281 488.85" stroke="#A3AFFB" stroke-width="3.9776" stroke-miterlimit="10"/>
<path d="M451.482 467.146L527.112 477.125C548.714 481.394 569.63 489.546 587.505 500.66L591.138 502.919" stroke="#A3AFFB" stroke-width="3.9776" stroke-miterlimit="10"/>
<path d="M445.625 496.392L521.255 506.371C542.857 510.64 563.773 518.792 581.648 529.906L585.281 532.165" stroke="#A3AFFB" stroke-width="3.9776" stroke-miterlimit="10"/>
<path d="M653.555 430.972C653.555 430.972 685.375 429.926 703.572 432.802C731.22 437.172 772.279 455.376 790.154 466.49L793.787 468.749" stroke="#A3AFFB" stroke-width="3.9776" stroke-miterlimit="10"/>
<path d="M649.895 447.136C649.895 447.136 692.914 447.356 711.523 451.948C735.707 457.915 767.136 469.445 785.01 480.56L788.644 482.819" stroke="#A3AFFB" stroke-width="3.9776" stroke-miterlimit="10"/>
<path d="M646.234 463.3C646.234 463.3 700.521 464.52 719.475 471.095C740.279 478.311 761.993 483.516 779.868 494.63L783.501 496.889" stroke="#A3AFFB" stroke-width="3.9776" stroke-miterlimit="10"/>
<path d="M638.426 486.752L714.056 496.731C735.658 501 756.574 509.152 774.449 520.266L778.082 522.525" stroke="#A3AFFB" stroke-width="3.9776" stroke-miterlimit="10"/>
<path d="M633.283 500.822L708.913 510.801C730.515 515.07 751.431 523.222 769.306 534.336L772.939 536.595" stroke="#A3AFFB" stroke-width="3.9776" stroke-miterlimit="10"/>
</g>
<mask id="mask1_52_3152" style="mask-type:luminance" maskUnits="userSpaceOnUse" x="0" y="0" width="750" height="500">
<path d="M750 0H0V500H750V0Z" fill="white"/>
</mask>
<g mask="url(#mask1_52_3152)">
<path d="M293.534 178.562L295.104 174.658L296.674 178.562C297.614 180.899 299.466 182.75 301.802 183.69L305.706 185.26L301.802 186.83C299.466 187.77 297.614 189.622 296.674 191.958L295.104 195.862L293.534 191.958C292.594 189.621 290.742 187.769 288.406 186.83L284.502 185.26L288.406 183.69C290.742 182.751 292.594 180.899 293.534 178.562Z" fill="#F7F6EB"/>
<path d="M408.198 150.76L409.768 146.856L411.338 150.76C412.278 153.096 414.13 154.948 416.466 155.888L420.37 157.458L416.466 159.028C414.13 159.968 412.277 161.82 411.338 164.156L409.768 168.06L408.198 164.156C407.258 161.82 405.406 159.968 403.07 159.028L399.166 157.458L403.07 155.888C405.406 154.948 407.258 153.096 408.198 150.76Z" fill="#F7F6EB"/>
<path d="M426.504 299.966L425.711 301.937L424.918 299.966C424.444 298.787 423.509 297.852 422.33 297.378L420.359 296.585L422.33 295.792C423.509 295.318 424.444 294.383 424.918 293.204L425.711 291.233L426.504 293.204C426.978 294.383 427.913 295.318 429.092 295.792L431.063 296.585L429.092 297.378C427.913 297.852 426.978 298.787 426.504 299.966Z" fill="#F7F6EB"/>
<path d="M320.114 295.509L319.321 297.48L318.528 295.509C318.054 294.33 317.119 293.395 315.94 292.921L313.969 292.128L315.94 291.335C317.119 290.861 318.054 289.926 318.528 288.747L319.321 286.776L320.114 288.747C320.588 289.926 321.523 290.861 322.702 291.335L324.673 292.128L322.702 292.921C321.523 293.395 320.588 294.33 320.114 295.509Z" fill="#F7F6EB"/>
<path d="M348.034 160.694L347.241 162.665L346.448 160.694C345.974 159.515 345.039 158.58 343.86 158.106L341.889 157.313L343.86 156.52C345.039 156.046 345.974 155.111 346.448 153.932L347.241 151.961L348.034 153.932C348.508 155.111 349.443 156.046 350.622 156.52L352.593 157.313L350.622 158.106C349.443 158.58 348.509 159.514 348.034 160.694Z" fill="#F7F6EB"/>
<path d="M464.862 212.732L464.387 213.912L463.912 212.732C463.628 212.026 463.068 211.466 462.362 211.182L461.182 210.707L462.362 210.232C463.068 209.948 463.628 209.388 463.912 208.682L464.387 207.502L464.862 208.682C465.146 209.388 465.706 209.948 466.412 210.232L467.592 210.707L466.412 211.182C465.706 211.466 465.146 212.026 464.862 212.732Z" fill="#F7F6EB"/>
<path d="M266.688 239.752L266.213 240.932L265.738 239.752C265.454 239.046 264.894 238.486 264.188 238.202L263.008 237.727L264.188 237.252C264.894 236.968 265.454 236.408 265.738 235.702L266.213 234.522L266.688 235.702C266.972 236.408 267.532 236.968 268.238 237.252L269.418 237.727L268.238 238.202C267.531 238.486 266.972 239.046 266.688 239.752Z" fill="#F7F6EB"/>
<path d="M376.053 145.765L375.578 146.945L375.103 145.765C374.819 145.059 374.259 144.499 373.553 144.215L372.373 143.74L373.553 143.265C374.259 142.981 374.819 142.421 375.103 141.715L375.578 140.535L376.053 141.715C376.337 142.421 376.897 142.981 377.603 143.265L378.783 143.74L377.603 144.215C376.897 144.499 376.337 145.059 376.053 145.765Z" fill="#F7F6EB"/>
<path d="M466.186 304.152L465.711 305.332L465.236 304.152C464.952 303.446 464.392 302.886 463.686 302.602L462.506 302.127L463.686 301.652C464.392 301.368 464.952 300.808 465.236 300.102L465.711 298.922L466.186 300.102C466.47 300.808 467.03 301.368 467.736 301.652L468.916 302.127L467.736 302.602C467.03 302.886 466.47 303.446 466.186 304.152Z" fill="#F7F6EB"/>
<path d="M373.442 283.368L372.967 284.548L372.492 283.368C372.208 282.662 371.648 282.102 370.942 281.818L369.762 281.343L370.942 280.868C371.648 280.584 372.208 280.024 372.492 279.318L372.967 278.138L373.442 279.318C373.726 280.024 374.286 280.584 374.992 280.868L376.172 281.343L374.992 281.818C374.286 282.102 373.726 282.662 373.442 283.368Z" fill="#F7F6EB"/>
<path d="M335.2 220.156L334.725 221.336L334.25 220.156C333.966 219.45 333.406 218.89 332.7 218.606L331.52 218.131L332.7 217.656C333.406 217.372 333.966 216.812 334.25 216.106L334.725 214.926L335.2 216.106C335.484 216.812 336.044 217.372 336.75 217.656L337.93 218.131L336.75 218.606C336.044 218.89 335.485 219.45 335.2 220.156Z" fill="#F7F6EB"/>
<path d="M361.073 342.163L362.643 338.259L364.213 342.163C365.153 344.499 367.005 346.352 369.341 347.291L373.245 348.861L369.341 350.431C367.005 351.371 365.152 353.223 364.213 355.559L362.643 359.463L361.073 355.559C360.133 353.223 358.281 351.371 355.945 350.431L352.041 348.861L355.945 347.291C358.281 346.351 360.133 344.499 361.073 342.163Z" fill="#F7F6EB"/>
<path d="M437.522 323.997L439.092 320.093L440.662 323.997C441.602 326.333 443.454 328.186 445.79 329.125L449.694 330.695L445.79 332.265C443.454 333.205 441.601 335.057 440.662 337.393L439.092 341.297L437.522 337.393C436.582 335.057 434.73 333.205 432.394 332.265L428.49 330.695L432.394 329.125C434.731 328.186 436.583 326.334 437.522 323.997Z" fill="#F7F6EB"/>
<path d="M371.296 208.932L372.483 205.982L373.67 208.932C374.38 210.698 375.78 212.097 377.545 212.807L380.495 213.994L377.545 215.181C375.779 215.891 374.38 217.291 373.67 219.056L372.483 222.006L371.296 219.056C370.586 217.29 369.186 215.891 367.421 215.181L364.471 213.994L367.421 212.807C369.186 212.097 370.586 210.698 371.296 208.932Z" fill="#F7F6EB"/>
<path d="M296.03 307.865L297.217 304.915L298.404 307.865C299.114 309.631 300.514 311.03 302.279 311.74L305.229 312.927L302.279 314.114C300.513 314.824 299.114 316.224 298.404 317.989L297.217 320.939L296.03 317.989C295.32 316.223 293.92 314.824 292.155 314.114L289.205 312.927L292.155 311.74C293.921 311.03 295.32 309.63 296.03 307.865Z" fill="#F7F6EB"/>
<path d="M477.794 238.938L478.981 235.988L480.168 238.938C480.878 240.704 482.278 242.103 484.043 242.813L486.993 244L484.043 245.187C482.277 245.897 480.878 247.297 480.168 249.062L478.981 252.012L477.794 249.062C477.084 247.296 475.684 245.897 473.919 245.187L470.969 244L473.919 242.813C475.684 242.103 477.083 240.704 477.794 238.938Z" fill="#F7F6EB"/>
</g>
</g>
<defs>
<clipPath id="clip0_52_3152">
<rect width="750" height="500" fill="white"/>
</clipPath>
</defs>
</svg>
